<svg version="1.2" xmlns="http://www.w3.org/2000/svg" viewBox="0 0 744 727" width="744" height="727">
	<title>Mobile-login</title>
	<style>
		.s0 { fill: #f5f5f5 } 
		.s1 { fill: #ebebeb } 
		.s2 { fill: #fb2c36 } 
		.s3 { opacity: .2;fill: #000000 } 
		.s4 { fill: #ffffff } 
		.s5 { fill: #e0e0e0 } 
		.s6 { fill: #f0f0f0 } 
		.s7 { fill: #455a64 } 
		.s8 { fill: #37474f } 
		.s9 { fill: #263238 } 
		.s10 { fill: #ffffff;stroke: #fb2c36;stroke-miterlimit:10;stroke-width: 2 } 
		.s11 { fill: #fb2c36;stroke: #fb2c36;stroke-miterlimit:10;stroke-width: 2 } 
		.s12 { opacity: .7;fill: #ffffff } 
		.s13 { opacity: .1;fill: #000000 } 
		.s14 { opacity: .2;fill: #ffffff } 
		.s15 { fill: #ffa8a7 } 
		.s16 { fill: #f28f8f } 
		.s17 { opacity: .3;fill: #000000 } 
	</style>
	<g id="Floor">
		<path id="&lt;Path&gt;" class="s0" d="m112.5 639.5c137.8 65.7 361.2 65.7 499 0 137.8-65.7 137.8-172.2 0-237.9-137.8-65.7-361.2-65.7-499 0-137.8 65.7-137.8 172.2 0 237.9z"/>
	</g>
	<g id="Shadow">
		<path id="&lt;Path&gt;" class="s1" d="m578.6 584.5c17.9 8.6 47 8.6 65 0 17.9-8.5 17.9-22.4 0-30.9-18-8.6-47.1-8.6-65 0-18 8.5-18 22.4 0 30.9z"/>
	</g>
	<g id="Plants">
		<g id="&lt;Group&gt;">
			<g id="&lt;Group&gt;">
				<g id="&lt;Group&gt;">
					<g id="&lt;Group&gt;">
						<path id="&lt;Path&gt;" class="s2" d="m101.9 572.2l16.3-9.4c0 0 13.4-9.8 20-28.1 5-13.9 4.3-24.4 0.7-29.7-4.4-6.5-15.9-5.3-16.3 8.3-0.9 27-8.8 45.7-20.7 58.9z"/>
						<path id="&lt;Path&gt;" class="s3" d="m101.9 572.2l16.3-9.4c0 0 13.4-9.8 20-28.1 5-13.9 4.3-24.4 0.7-29.7-4.4-6.5-15.9-5.3-16.3 8.3-0.9 27-8.8 45.7-20.7 58.9z"/>
					</g>
					<path id="&lt;Path&gt;" class="s4" d="m101.9 573.2c-0.3 0-0.6-0.2-0.8-0.4-0.3-0.5-0.2-1.1 0.2-1.4 37.6-26.1 30.4-62.3 30.3-62.7-0.1-0.5 0.2-1 0.7-1.1 0.6-0.2 1.1 0.2 1.2 0.7 0.1 0.4 7.7 37.9-31 64.7q-0.3 0.2-0.6 0.2z"/>
				</g>
				<g id="&lt;Group&gt;">
					<path id="&lt;Path&gt;" class="s2" d="m69.4 590.9c0 0-5.6-4.6-4.3-10.8 1.4-6.2 5-10.7-1.2-18.8-6.3-8-7.9-18.7-0.5-24.5 5.7-4.5 14.6 1.8 17.8-10.1 2.3-8.6 1.5-27.9 12.6-34.3 11.1-6.3 17.9 3.3 16.2 16.3-1.5 11.7-3.6 22.9-2 26 3.3 5.9 8.8 5.1 8.5 16.1-0.2 10.2-9.8 18.6-9.8 18.6z"/>
					<path id="&lt;Path&gt;" class="s4" d="m88 581.2c-0.5 0-0.9-0.4-1-0.9-2.9-23.7 4-64.6 9.6-76.7 0.2-0.5 0.8-0.8 1.3-0.5 0.5 0.2 0.8 0.8 0.5 1.3-5.5 12-12.1 53-9.4 75.7 0.1 0.5-0.3 1-0.9 1.1q0 0-0.1 0z"/>
					<path id="&lt;Path&gt;" class="s4" d="m87.5 562.8q-0.3 0-0.5-0.1c-6.9-3.4-11.3-15.5-11.5-16-0.2-0.5 0.1-1.1 0.6-1.3 0.5-0.2 1.1 0.1 1.3 0.6 0 0.2 4.3 11.8 10.5 14.9 0.5 0.2 0.7 0.8 0.5 1.3-0.2 0.4-0.6 0.6-0.9 0.6z"/>
					<path id="&lt;Path&gt;" class="s4" d="m87.3 570.8c-0.4 0-0.7-0.3-0.9-0.7-0.2-0.5 0.1-1.1 0.6-1.3 11.6-4.7 18.9-18.6 19-18.7 0.3-0.5 0.9-0.7 1.3-0.4 0.5 0.2 0.7 0.8 0.5 1.3-0.3 0.6-7.7 14.7-20.1 19.7q-0.2 0.1-0.4 0.1z"/>
				</g>
			</g>
			<g id="&lt;Group&gt;">
				<g id="&lt;Group&gt;">
					<path id="&lt;Path&gt;" class="s2" d="m495.6 463.2c0 0-8.7-14.2-9.6-29.6-0.8-15.4 2.5-21.8 7.2-23.6 4.6-1.8 5 3.8 7.4 7.2 2.4 3.3 7.2 1.4 9-9 1.8-10.4 8.4-28.1 21.9-31.4 15-3.8 7 13.8 3.2 20.7-3.7 6.9-6.7 16.2-4.2 18.8 2.5 2.5 6.3-2.2 10 2.2 4.5 5.2-9.4 24.2-17.3 28.7z"/>
					<path id="&lt;Path&gt;" class="s4" d="m507.6 457.2q0 0-0.1 0c-0.5 0-0.9-0.5-0.9-1 2.2-41 22.2-69.4 22.4-69.6 0.3-0.5 0.9-0.6 1.4-0.3 0.4 0.4 0.5 1 0.2 1.4-0.2 0.3-19.8 28.2-22 68.6 0 0.5-0.5 0.9-1 0.9z"/>
					<path id="&lt;Path&gt;" class="s4" d="m508.7 445.4q-0.2 0-0.5-0.1c-5.6-3.1-8.7-12.3-8.8-12.7-0.2-0.5 0.1-1.1 0.6-1.3 0.6-0.2 1.1 0.1 1.3 0.7 0 0.1 3 8.8 7.9 11.5 0.5 0.3 0.7 0.9 0.4 1.4-0.2 0.3-0.5 0.5-0.9 0.5z"/>
					<path id="&lt;Path&gt;" class="s4" d="m509.7 439.3c-0.4 0-0.8-0.3-1-0.7-0.1-0.5 0.2-1.1 0.8-1.2 14.4-3.7 19.4-11.2 19.4-11.3 0.3-0.5 1-0.6 1.4-0.3 0.5 0.3 0.6 0.9 0.3 1.4-0.2 0.3-5.4 8.2-20.6 12.1q-0.2 0-0.3 0z"/>
				</g>
				<g id="&lt;Group&gt;">
					<g id="&lt;Group&gt;">
						<path id="&lt;Path&gt;" class="s2" d="m278 432.1c0 0-19.1-4.7-20.1-40.6-1.1-38.8 4.7-84-18-87.7-22.6-3.7-35.3 24.1-35 56.3 0.3 28.3 11.7 89.7 73.1 101.7z"/>
						<path id="&lt;Path&gt;" class="s3" d="m278 432.1c0 0-19.1-4.7-20.1-40.6-1.1-38.8 4.7-84-18-87.7-22.6-3.7-35.3 24.1-35 56.3 0.3 28.3 11.7 89.7 73.1 101.7z"/>
					</g>
					<path id="&lt;Path&gt;" class="s4" d="m278 458.2q0-0.1-0.1-0.1c-13.9-2.5-25.1-10.1-33.5-22.6-24.8-37-17-106.2-14.4-118.3 0.1-0.6 0.6-0.9 1.1-0.8 0.6 0.1 0.9 0.7 0.8 1.2-2.5 11.9-10.3 80.3 14.2 116.8 8 12 18.8 19.3 32.1 21.8 0.6 0.1 0.9 0.6 0.8 1.1-0.1 0.5-0.5 0.9-1 0.9z"/>
					<g id="&lt;Group&gt;">
						<path id="&lt;Path&gt;" class="s2" d="m278 550.3c-19.8 2.7-52 2.7-70.5-12-18.6-14.6-14.7-27.2-7.6-32.5 7.1-5.2 13.3-11.2 1.1-22.9-12.3-11.7-32.1-30.4-38.4-58.6-6.4-28.1-3.3-45.7 9.3-51.6 12.2-5.7 15.4 3.4 22.8 22 7.5 18.7 24.3 2.7 38.6 8.5 14.4 5.8 13.8 17.3 14.7 27.2 0.9 9.9 5.7 12.7 13.8 12.7 8.1 0 16.2 4.7 16.2 14.1z"/>
						<path id="&lt;Path&gt;" class="s4" d="m278 517.7q-0.1 0-0.2-0.1c-0.9-0.2-21.4-6.2-51.2-33.6-31.8-29.2-46.8-73-47-73.4-0.2-0.6 0.1-1.1 0.6-1.3 0.6-0.2 1.1 0.1 1.3 0.6 0.1 0.5 15 43.8 46.4 72.6 29.5 27.1 50.2 33.1 50.4 33.2 0.5 0.2 0.9 0.7 0.7 1.2-0.1 0.5-0.5 0.8-1 0.8z"/>
						<path id="&lt;Path&gt;" class="s4" d="m234.9 491c-0.4 0-0.8-0.3-1-0.7-6.4-16.4-7.8-51.7-7.9-53.2 0-0.5 0.4-1 1-1 0.5 0 1 0.4 1 0.9 0 0.4 1.5 36.4 7.8 52.6 0.2 0.5-0.1 1.1-0.6 1.3q-0.2 0.1-0.3 0.1z"/>
						<path id="&lt;Path&gt;" class="s4" d="m234.7 514.7c-3.1 0-5.3-0.2-5.5-0.3-0.6 0-1-0.5-0.9-1.1 0.1-0.5 0.6-0.9 1.1-0.9 0.2 0.1 18.8 2.2 27.4-6.5 0.3-0.4 1-0.4 1.4-0.1 0.4 0.4 0.4 1.1 0 1.4-6.3 6.4-17 7.5-23.5 7.5z"/>
					</g>
				</g>
			</g>
		</g>
	</g>
	<g id="Gear">
		<g id="&lt;Group&gt;">
			<g id="&lt;Group&gt;">
				<path id="&lt;Compound Path&gt;" fill-rule="evenodd" class="s5" d="m209.6 145.8l3.6 7.6 3.2 5.8-6.9 15.4-2.5 4.1c-1.9 3-11 8.9-13.4 11.6l0.3 4.9-11.9 9.3-3.2-10.5c-2.6 1.3-2 5.9-4.4 6.2l-10.5 10.2-9.9-2.2 5.3-14.4c-1.7-1.3-3.1-3-4.2-5.1l-11.2 7.3-2.1-12.5 10.7-9.8c0.2-3.2 0.8-6.4 1.7-9.8l-8.5-3.6 6.9-15.4 9.8 0.5c2-3.1 4.2-6 6.6-8.7l-0.8-12.4 11.9-9.3 3.2 10.5q3.9-1.9 7.6-2.5l7.3-13.9 9.9 2.2-5.3 14.4c1.7 1.3 3.1 3 4.2 5.1l11.1-7.3 2.2 12.5zm-12.1 1c-1.6-9.6-5.1-9.1-14.2-1.9-9.1 7.2-14.5 21.7-12.8 31.3 1.6 9.6 4.4 8 13.5 0.9 9.1-7.2 15.2-20.8 13.5-30.3z"/>
				<path id="&lt;Path&gt;" class="s0" d="m198.2 109.1l13 7.5-7.4 13.9-12.9-7.5z"/>
				<path id="&lt;Path&gt;" class="s0" d="m231.1 131l-11.1 7.3-13-7.5 11.1-7.3z"/>
				<path id="&lt;Path&gt;" class="s5" d="m229.3 166.7l-8.4-3.6-13-7.5 8.5 3.6z"/>
				<path id="&lt;Path&gt;" class="s5" d="m154 208.2l13 7.5 5.3-14.4-13-7.5z"/>
				<path id="&lt;Path&gt;" class="s5" d="m195 212l-13-7.5-3.2-10.5 13 7.5z"/>
				<path id="&lt;Compound Path&gt;" fill-rule="evenodd" class="s1" d="m222.6 153.3c-0.2 3.2-0.8 6.5-1.7 9.8l8.4 3.6-6.8 15.4-9.9-0.5c-1.9 3.1-4.1 6-6.5 8.7l0.8 12.4-11.9 9.3-3.2-10.5q-4 1.9-7.6 2.5l-7.3 13.9-9.9-2.2 5.3-14.4c-1.7-1.3-3.1-3-4.3-5.1l-11.1 7.3-2.1-12.5 10.7-9.8c0.2-3.2 0.7-6.5 1.6-9.8l-8.4-3.6 6.9-15.4 9.8 0.5c2-3.1 4.2-6 6.6-8.7l-0.8-12.4 11.9-9.3 3.1 10.5c2.7-1.3 5.2-2.1 7.6-2.5l7.4-13.9 9.9 2.2-5.3 14.4c1.6 1.3 3.1 3 4.2 5.1l11.1-7.3 2.2 12.5zm-12.1 0.9c-1.6-9.5-10.4-11.5-19.5-4.3-9.1 7.2-15.1 20.7-13.5 30.3 1.7 9.5 10.4 11.5 19.5 4.3 9.1-7.1 15.2-20.7 13.5-30.3z"/>
				<path id="&lt;Path&gt;" class="s0" d="m193.1 122.5l-13-7.5-11.9 9.3 13 7.5z"/>
				<path id="&lt;Path&gt;" class="s5" d="m168.2 124.3l0.8 12.4 13 7.5-0.8-12.4z"/>
				<path id="&lt;Path&gt;" class="s0" d="m175.4 152.9l-13-7.5-9.8-0.5 13 7.5z"/>
				<path id="&lt;Path&gt;" class="s5" d="m152.6 144.9l-6.9 15.4 13 7.5 6.9-15.4z"/>
				<path id="&lt;Path&gt;" class="s0" d="m165.5 181.2l-13-7.5-10.7 9.8 13 7.5z"/>
				<path id="&lt;Path&gt;" class="s5" d="m156.9 203.5l-13-7.5-2.1-12.5 13 7.5z"/>
				<path id="&lt;Path&gt;" class="s0" d="m211.2 116.6l-13-7.5 9.9 2.2 13 7.5z"/>
			</g>
			<g id="&lt;Group&gt;">
				<path id="&lt;Compound Path&gt;" fill-rule="evenodd" class="s5" d="m147.4 89.9c0.2 3.9 0 11-1.7 15.4l7 6.1-11.4 19.7-8.4-2.9c-2.9 3.7-8.1 7.4-12.9 9l-1.6 18.1-16.1 9.3-1.7-16.2c-3.4 1-6.6 1.3-9.6 1l-11.6 17.5-11.4-6.6 9.3-18.8c-1.8-2.5-3.1-5.4-4-8.9l-14.8 6.7v-18.6l14.8-10.4c0.9-4.5 2.2-9 4-13.5l-9.3-8 11.4-19.8 11.6 4.1c3-3.8 6.2-7.2 9.6-10.2l1.7-18.1 16.1-9.3 1.6 16.2c3.4-1 6.7-1.2 9.7-0.9l11.6-17.6 11.4 6.6-9.3 18.9c1.7 2.4 3.1 5.3 4 8.8l14.8-6.7v18.6zm-14.6-2.7c0-14.3-7.5-19.5-19.9-12.4-12.4 7.2-22.6 24.7-22.6 39 0 14.3 7.7 19.3 20 12.2 12.4-7.1 22.5-24.5 22.5-38.8z"/>
				<path id="&lt;Path&gt;" class="s0" d="m154.3 40.7l-13-7.5-11.6 17.6 12.9 7.4z"/>
				<path id="&lt;Path&gt;" class="s0" d="m175.2 68.3l-13-7.5-14.8 6.7 12.9 7.5z"/>
				<path id="&lt;Path&gt;" class="s5" d="m115.2 172.1l-12.9-7.5-1.7-16.2 13 7.5z"/>
				<path id="&lt;Path&gt;" class="s5" d="m68 160.3l12.9 7.5 9.4-18.9-13-7.4z"/>
				<path id="&lt;Compound Path&gt;" fill-rule="evenodd" class="s1" d="m160.3 97.3c-0.9 4.5-2.2 9-4 13.5l9.4 8-11.4 19.8-11.7-4.1c-3 3.8-6.2 7.2-9.6 10.2l-1.6 18.1-16.2 9.3-1.6-16.2c-3.4 0.9-6.7 1.2-9.6 0.9l-11.7 17.5-11.4-6.5 9.4-18.9c-1.8-2.4-3.2-5.3-4-8.8l-14.9 6.7v-18.6l14.9-10.5c0.8-4.4 2.2-9 4-13.4l-9.4-8.1 11.4-19.7 11.7 4.1c2.9-3.8 6.2-7.2 9.6-10.2l1.6-18.1 16.2-9.3 1.6 16.2c3.4-1 6.6-1.3 9.6-1l11.7-17.5 11.4 6.6-9.4 18.8c1.8 2.5 3.1 5.4 4 8.9l14.9-6.7v18.6zm-14.7-2.7c0-14.3-10-20.1-22.4-13-12.4 7.2-22.4 24.6-22.4 38.8 0 14.3 10 20.1 22.4 13 12.4-7.2 22.4-24.5 22.4-38.8z"/>
				<path id="&lt;Path&gt;" class="s6" d="m91 73.1l13 7.5-11.7-4.1-12.9-7.5z"/>
				<path id="&lt;Path&gt;" class="s0" d="m80.9 96.2l-12.9-7.4 11.4-19.8 12.9 7.5z"/>
				<path id="&lt;Path&gt;" class="s5" d="m68 88.8l12.9 7.4 9.4 8.1-13-7.5z"/>
				<path id="&lt;Path&gt;" class="s0" d="m73.3 110.3l13 7.4-14.9 10.5-12.9-7.5z"/>
				<path id="&lt;Path&gt;" class="s5" d="m58.5 120.7l12.9 7.5v18.6l-12.9-7.5z"/>
				<path id="&lt;Path&gt;" class="s0" d="m131.4 43l-13-7.5-16.1 9.3 12.9 7.5z"/>
			</g>
		</g>
	</g>
	<g id="Device">
		<g id="&lt;Group&gt;">
			<path id="&lt;Path&gt;" class="s5" d="m297.8 577.1l188-108.6c1.9-1.1 1.9-2.9 0-4l-17.4-10c-1.9-1.1-5-1.1-6.9 0l-188.1 108.5c-1.9 1.1-1.9 2.9 0 4l17.4 10.1c1.9 1.1 5 1.1 7 0z"/>
			<path id="&lt;Path&gt;" class="s7" d="m480.6 49.4l-169.5 97.9c-4.8 2.7-8.7 9.4-8.7 15v402.1c0 5.5 3.9 7.8 8.7 5l169.5-97.9c4.8-2.7 8.7-9.4 8.7-15v-402.1c0-5.5-3.9-7.8-8.7-5z"/>
			<path id="&lt;Path&gt;" class="s8" d="m311.1 147.3l169.5-97.9c4.3-2.5 7.8-0.9 8.5 3.4-0.6-5.2-4.2-10.9-8.5-13.4l-7-4.1c-4.8-2.7-12.6-2.7-17.4 0l-169.5 97.9c-2.4 1.4-4.6 3.8-6.1 6.5l24.4 14c1.5-2.7 3.7-5 6.1-6.4z"/>
			<path id="&lt;Path&gt;" class="s9" d="m278 550.3c0 5.6 3.9 12.3 8.7 15l7.1 4.1c4.3 2.5 11 2.7 15.8 0.7-4.1 1.6-7.2-0.7-7.2-5.7v-402.1c0-2.8 1-5.8 2.6-8.6l-24.4-14c-1.6 2.7-2.6 5.7-2.6 8.5z"/>
			<path id="&lt;Path&gt;" class="s4" d="m315.7 200.9l160.2-92.5c2.9-1.7 5.2-0.3 5.2 3v297.5c0 3.4-2.3 7.4-5.2 9l-160.2 92.5c-2.8 1.7-5.2 0.3-5.2-3v-297.5c0-3.3 2.4-7.4 5.2-9z"/>
			<path id="&lt;Path&gt;" class="s8" d="m395.8 113.6c-1.6 1-3 3.3-3 5.3 0 1.9 1.4 2.7 3 1.7 1.7-0.9 3.1-3.3 3.1-5.3 0-1.9-1.4-2.7-3.1-1.7z"/>
			<path id="&lt;Path&gt;" class="s8" d="m395.8 478.5c-6.6 3.8-12 13.1-12 20.8 0 7.7 5.4 10.8 12 7 6.7-3.9 12.1-13.2 12.1-20.9 0-7.6-5.4-10.8-12.1-6.9z"/>
			<g id="&lt;Group&gt;">
				<path id="&lt;Path&gt;" class="s8" d="m367.1 144.5c-3.4 2-6.1 6.7-6.1 10.6 0 3.9 2.7 5.5 6.1 3.5 3.3-1.9 6.1-6.7 6.1-10.5 0-3.9-2.8-5.5-6.1-3.6z"/>
				<path id="&lt;Path&gt;" class="s8" d="m382 143.2c0 2.6 1.9 3.6 4.3 2.2l40.1-23.1c2.4-1.4 4.3-4.6 4.3-7.2 0-2.6-1.9-3.6-4.3-2.2l-40.1 23.1c-2.4 1.4-4.3 4.6-4.3 7.2z"/>
			</g>
			<path id="&lt;Path&gt;" class="s8" d="m291.5 213.7c2.7 1.6 4.9 5.4 4.9 8.5 0 3.1-2.2 4.4-4.9 2.8-2.7-1.6-4.8-5.3-4.8-8.4 0-3.1 2.1-4.4 4.8-2.9z"/>
			<path id="&lt;Path&gt;" class="s8" d="m291.5 251.3c2.7 1.6 4.9 5.3 4.9 8.4 0 3.1-2.2 4.4-4.9 2.9-2.7-1.6-4.8-5.4-4.8-8.5 0-3.1 2.1-4.4 4.8-2.8z"/>
			<path id="&lt;Path&gt;" class="s7" d="m290 214.5c2.7 1.6 4.9 5.3 4.9 8.4 0 3.1-2.2 4.4-4.9 2.9-2.7-1.6-4.9-5.4-4.9-8.5 0-3.1 2.2-4.4 4.9-2.8z"/>
			<path id="&lt;Path&gt;" class="s7" d="m290 252c2.7 1.6 4.9 5.4 4.9 8.5 0 3.1-2.2 4.4-4.9 2.8-2.7-1.5-4.9-5.3-4.9-8.4 0-3.1 2.2-4.4 4.9-2.9z"/>
			<g id="&lt;Group&gt;">
				<path id="&lt;Path&gt;" class="s10" d="m513.6 120.8c0-3.3-2.3-4.7-5.2-3l-19.1 11-141.1 81.5c-2.8 1.6-5.2 5.7-5.2 9v297.5c0 3.4 2.4 4.7 5.2 3l141.1-81.4 19.1-11.1c2.9-1.6 5.2-5.6 5.2-9z"/>
				<path id="&lt;Path&gt;" class="s11" d="m345.9 521.6q-1 0-1.8-0.5c-1.3-0.8-2.1-2.3-2.1-4.3v-297.5c0-3.7 2.5-8 5.7-9.9l141.1-81.4 1 1.7-141.1 81.4c-2.5 1.5-4.7 5.2-4.7 8.2v297.5c0 1.3 0.4 2.2 1.1 2.5 0.6 0.4 1.6 0.3 2.6-0.3l141.1-81.5 1 1.8-141.1 81.4q-1.4 0.9-2.8 0.9z"/>
				<path id="&lt;Path&gt;" class="s11" d="m489.8 439.3l-1-1.8 19.1-11c2.6-1.5 4.7-5.2 4.7-8.2v-297.5c0-1.2-0.3-2.1-1-2.5-0.6-0.4-1.6-0.3-2.7 0.3l-19.1 11.1-1-1.7 19.1-11.1c1.8-1 3.4-1.1 4.7-0.4 1.3 0.8 2 2.3 2 4.3v297.5c0 3.7-2.5 8.1-5.7 9.9z"/>
			</g>
			<g id="&lt;Group&gt;">
				<path id="&lt;Path&gt;" class="s2" d="m428.3 189.9c18-10.3 32.5-1.9 32.5 18.8 0 20.7-14.5 45.9-32.5 56.3-17.9 10.3-32.5 1.9-32.5-18.8 0-20.7 14.6-45.9 32.5-56.3z"/>
				<path id="&lt;Path&gt;" class="s2" d="m428.3 206.2c5.9-3.3 10.6-0.6 10.6 6.1 0 6.7-4.7 14.9-10.6 18.3-5.8 3.3-10.5 0.6-10.5-6.1 0-6.7 4.7-14.9 10.5-18.3z"/>
			</g>
			<path id="&lt;Path&gt;" class="s2" d="m448.9 242.1c0-11.1-7.8-15.5-17.3-10l-6 3.4c-9.6 5.6-17.3 19-17.3 30v3c5.5 1.8 12.5 0.9 20-3.5 7.8-4.5 15-11.8 20.6-20.4z"/>
			<g id="&lt;Group&gt;">
				<path id="&lt;Path&gt;" class="s12" d="m428.3 206.2c5.9-3.3 10.6-0.6 10.6 6.1 0 6.7-4.7 14.9-10.6 18.3-5.8 3.3-10.5 0.6-10.5-6.1 0-6.7 4.7-14.9 10.5-18.3z"/>
				<path id="&lt;Path&gt;" class="s12" d="m448.9 242.1c0-11.1-7.8-15.5-17.3-10l-6 3.4c-9.6 5.6-17.3 19-17.3 30v3c5.5 1.8 12.5 0.9 20-3.5 7.8-4.5 15-11.8 20.6-20.4z"/>
			</g>
			<g id="&lt;Group&gt;">
				<path id="&lt;Path&gt;" class="s2" d="m365.5 310.7l41.8-24.2c1.9-1.1 3.4-0.2 3.4 2v1.4c0 2.2-1.5 4.9-3.4 6l-41.8 24.2c-1.9 1.1-3.5 0.2-3.5-2v-1.4c0-2.2 1.6-4.9 3.5-6z"/>
				<path id="&lt;Path&gt;" class="s13" d="m365.5 310.7l41.8-24.2c1.9-1.1 3.4-0.2 3.4 2v1.4c0 2.2-1.5 4.9-3.4 6l-41.8 24.2c-1.9 1.1-3.5 0.2-3.5-2v-1.4c0-2.2 1.6-4.9 3.5-6z"/>
			</g>
			<g id="&lt;Group&gt;">
				<path id="&lt;Path&gt;" class="s2" d="m363.7 339.8l126.6-73c0.9-0.6 1.7-0.1 1.7 1v14.7c0 1.1-0.8 2.5-1.7 3l-126.6 73.1c-0.9 0.5-1.7 0.1-1.7-1v-14.8c0-1.1 0.8-2.4 1.7-3z"/>
				<path id="&lt;Path&gt;" class="s14" d="m363.7 339.8l126.6-73c0.9-0.6 1.7-0.1 1.7 1v14.7c0 1.1-0.8 2.5-1.7 3l-126.6 73.1c-0.9 0.5-1.7 0.1-1.7-1v-14.8c0-1.1 0.8-2.4 1.7-3z"/>
			</g>
			<g id="&lt;Group&gt;">
				<path id="&lt;Path&gt;" class="s2" d="m365.5 376.3l41.8-24.1c1.9-1.1 3.4-0.2 3.4 2v1.4c0 2.2-1.5 4.9-3.4 6l-41.8 24.1c-1.9 1.1-3.5 0.2-3.5-2v-1.4c0-2.2 1.6-4.9 3.5-6z"/>
				<path id="&lt;Path&gt;" class="s13" d="m365.5 376.3l41.8-24.1c1.9-1.1 3.4-0.2 3.4 2v1.4c0 2.2-1.5 4.9-3.4 6l-41.8 24.1c-1.9 1.1-3.5 0.2-3.5-2v-1.4c0-2.2 1.6-4.9 3.5-6z"/>
			</g>
			<g id="&lt;Group&gt;">
				<path id="&lt;Path&gt;" class="s2" d="m363.7 405.5l126.6-73.1c0.9-0.5 1.7-0.1 1.7 1v14.8c0 1.1-0.8 2.4-1.7 3l-126.6 73c-0.9 0.6-1.7 0.2-1.7-1v-14.7c0-1.1 0.8-2.5 1.7-3z"/>
				<path id="&lt;Path&gt;" class="s14" d="m363.7 405.5l126.6-73.1c0.9-0.5 1.7-0.1 1.7 1v14.8c0 1.1-0.8 2.4-1.7 3l-126.6 73c-0.9 0.6-1.7 0.2-1.7-1v-14.7c0-1.1 0.8-2.5 1.7-3z"/>
			</g>
			<g id="&lt;Group&gt;">
				<path id="&lt;Path&gt;" class="s2" d="m414.2 413.9l49.9-28.9c2-1.1 3.5-0.2 3.5 2v15.5c0 2.2-1.5 4.9-3.5 6l-49.9 28.8c-1.9 1.1-3.5 0.2-3.5-2v-15.4c0-2.2 1.6-4.9 3.5-6z"/>
				<path id="&lt;Path&gt;" class="s13" d="m414.2 413.9l49.9-28.9c2-1.1 3.5-0.2 3.5 2v15.5c0 2.2-1.5 4.9-3.5 6l-49.9 28.8c-1.9 1.1-3.5 0.2-3.5-2v-15.4c0-2.2 1.6-4.9 3.5-6z"/>
			</g>
		</g>
	</g>
	<g id="Character">
		<g id="&lt;Group&gt;">
			<path id="&lt;Path&gt;" class="s15" d="m532.6 348.7c0 0-24.6-33.9-26.1-37.9-1.1-3.1 0.1-7.6 0.4-9.7 0.3-2.1 0.7-6.8 1-8.1 0.6-2.2-2.3-1.8-4 0.3-1.6 2.1-2.2 6.2-3 6.9-0.9 0.7-7.4-8.8-10.9-13.2-3.4-4.5-5.5-7.1-7.6-5.5-1.5 1.2-0.4 3.8 2.1 7.5 2.5 3.8 3.6 5.5 3.9 6.3 0.4 0.8-1.6 0.9-2.7 2.6-0.9 1.3-0.1 3.5-1.2 4.5-1.2 1-2.2 2.8-1 4.9 1.6 2.7 4.8 6.4 8.5 9 3.7 2.5 5.1 3.4 7.3 6.9 2.2 3.4 21.8 38.8 23.1 40.9 1.3 2.1 3.8 6.4 7.7 6.6 3.9 0.1 35.5-27.1 37.1-28.5 5.2-4.3 6.8-4.9 7.7-1 0.3 1.2 0.5 2.6 0.7 4.2 0.6 4.9 4 22.6 4 22.6 0 0 16 7.8 29.1 4 13.2-3.9 17.6-9.4 17.6-9.4l-6.6-10.7c1.8-4.4 10.1-22.3 12.7-34.9l-41.2-6.6c-0.9-0.2-2.2-0.5-3.9-1-2.3-0.6-8-2.6-12.4 1.2-14.2 12.4-42.3 38.1-42.3 38.1z"/>
			<path id="&lt;Path&gt;" class="s8" d="m614.3 556.6l-7.4 10.2c0 0 3.4 2.1 10.7 2.3 6.6 0.3 8.5-1.9 8.7-2.4 1.1-2.4-0.6-6.7-1.1-10.4z"/>
			<path id="&lt;Path&gt;" class="s8" d="m607.3 561.9c0 0-8.9-0.6-15.1-1.3-6.2-0.8-11.1 2.2-9.7 4.8 1.5 2.5 4.9 4.6 10.2 6.4 4.6 1.5 10 2.6 14.7 4.1 4.9 1.4 8 3.1 10.8 2.1 3-1 4.4-2.2 4.1-4.5-0.3-2.2-2.5-9.4-2.5-9.4z"/>
			<path id="&lt;Path&gt;" class="s16" d="m626.3 546.3c0 0-1.1 9.3-1.2 11.3-0.1 2-9.1 2.6-10.8-1l-0.3-11.4z"/>
			<path id="&lt;Path&gt;" class="s15" d="m617.2 552l3.2 14.2c0 0 0.3 1.7-7 2.8-7.4 1.1-18.9-3.9-20.9-4.9-2-1-2.2-3 5-2.6 7.3 0.4 9.8 0.4 9.8 0.4l-2.3-6.2z"/>
			<path id="&lt;Path&gt;" class="s16" d="m632.4 317l5.1-1.4c0 0 10.6 33.8 11.8 37 1.2 3.3 2.5 6.7 0.2 10.7-2.7 4.8-17.1 24.1-17.1 24.1l-9.2-9 10.4-19-9.2-18.6z"/>
			<path id="&lt;Path&gt;" class="s8" d="m579.9 273.2c0 0-4-6.6 0.3-14.6 5-9.4 16.4-14 29.8-12.2 6.3 0.8 13.6 5.9 17.7 13.7 4.4 8.6 4.8 25.9 5.9 32.4z"/>
			<path id="&lt;Path&gt;" class="s15" d="m579.6 276.9c0 0-3.2 6.1-2.6 6.6 0.5 0.6 2.7 1 2.7 1z"/>
			<path id="&lt;Path&gt;" class="s15" d="m589.4 257.6c-3.5 2.3-9.5 6.4-9.8 20.1-0.3 14.1 1.7 18.6 3.8 20.3 1.4 1.1 9.6 0.5 13.2-0.3 3.5-0.9 13.6-5.9 17.3-13.5 4.3-8.9 3.4-22.1-3-25.9-9-5.3-18.6-2.6-21.5-0.7z"/>
			<g id="&lt;Group&gt;">
				<path id="&lt;Path&gt;" class="s2" d="m626.3 362.6c6.2 9.6 12 18.1 13.3 28.9 2.6 22.8-6 48.8-7.9 65.7 0 0 5.8 7.5 5.8 16.4 0 7-11.2 72.7-11.2 72.7 0 0-8.2 2.5-12.3-1.1l-7.7-120.9 4.1-14.7z"/>
				<path id="&lt;Path&gt;" class="s3" d="m626.3 362.6c6.2 9.6 12 18.1 13.3 28.9 2.6 22.8-6 48.8-7.9 65.7 0 0 5.8 7.5 5.8 16.4 0 7-11.2 72.7-11.2 72.7 0 0-8.2 2.5-12.3-1.1l-7.7-120.9 4.1-14.7z"/>
			</g>
			<g id="&lt;Group&gt;">
				<path id="&lt;Path&gt;" class="s2" d="m606.3 424.3l4.1-14.7c0 0 11.2-2.7 22-8.7 0 0-4.2 7.5-16.1 11.7l-6.3 18.9-0.5 43.3z"/>
				<path id="&lt;Path&gt;" class="s17" d="m606.3 424.3l4.1-14.7c0 0 11.2-2.7 22-8.7 0 0-4.2 7.5-16.1 11.7l-6.3 18.9-0.5 43.3z"/>
			</g>
			<g id="&lt;Group&gt;">
				<path id="&lt;Path&gt;" class="s2" d="m626.3 362.6c3.3 5.4 11.2 14.6 9.5 23.5-2 10.7-7.8 18.3-25.4 23.5l-16.6 60c0 0 8.6 8 11.3 15.7 2.6 7.7 12.1 66.7 12.1 66.7 0 0-2.9 4.8-12.2 3.7 0 0-32.5-74.1-34.7-78.9-2.3-4.7-3.8-8.3-2.8-16.1 1-7.7 12.1-92.7 12.1-92.7z"/>
				<path id="&lt;Path&gt;" class="s3" d="m626.3 362.6c3.3 5.4 11.2 14.6 9.5 23.5-2 10.7-7.8 18.3-25.4 23.5l-16.6 60c0 0 8.6 8 11.3 15.7 2.6 7.7 12.1 66.7 12.1 66.7 0 0-2.9 4.8-12.2 3.7 0 0-32.5-74.1-34.7-78.9-2.3-4.7-3.8-8.3-2.8-16.1 1-7.7 12.1-92.7 12.1-92.7z"/>
			</g>
			<g id="&lt;Group&gt;">
				<path id="&lt;Path&gt;" class="s2" d="m632.4 317l-41.2-6.6c-0.9-0.2-2.2-0.5-3.9-1 0 0-1.8 25.8-12.4 31.8q0.4 1.8 0.7 4.2c0.6 4.9 4 22.6 4 22.6 0 0 16 7.8 29.1 4 13.2-3.9 17.6-9.4 17.6-9.4l-6.6-10.7c1.8-4.4 10.1-22.3 12.7-34.9z"/>
				<path id="&lt;Path&gt;" class="s12" d="m632.4 317l-41.2-6.6c-0.9-0.2-2.2-0.5-3.9-1 0 0-1.8 25.8-12.4 31.8q0.4 1.8 0.7 4.2c0.6 4.9 4 22.6 4 22.6 0 0 16 7.8 29.1 4 13.2-3.9 17.6-9.4 17.6-9.4l-6.6-10.7c1.8-4.4 10.1-22.3 12.7-34.9z"/>
			</g>
			<path id="&lt;Path&gt;" class="s2" d="m621.5 347.7c-0.2 0.4-13.2 7.4-17.1 8.5 6.1-0.3 11.2-1.8 15.3-4.3z"/>
			<path id="&lt;Path&gt;" class="s8" d="m588.3 258.3c0 0-1.9 13 2.8 20.6 0 0 1.7-5.2 6.1-4.2 4.4 1 4.6 6.8 1.5 10-3 3.3-6.4 2.1-6.4 2.1 0 0-0.7 9.4-1.1 17.3-0.4 7.6-2.5 25.1 6.4 32.1 8.8 7 31.1 9.4 41.5-5.2 5.8-8.1-1.9-22.4-5.5-38.5-3.3-14.7-5.1-36.6-20.8-40.1-15.7-3.6-24.5 5.9-24.5 5.9z"/>
		</g>
	</g>
	<g id="Cloud">
		<path id="&lt;Path&gt;" class="s1" d="m645.8 80.7l-3.3 1.9c0.3-1.3 0.5-2.5 0.5-3.6 0-6.7-4.7-9.4-10.5-6.1-1.7 1-3.3 2.4-4.7 4q0 0 0 0c0-9-6.3-12.7-14.1-8.2-7.8 4.5-14.1 15.5-14.1 24.5q0 0.7 0 1.3c-1.6-0.3-3.6 0.1-5.7 1.3-5.8 3.4-10.5 11.5-10.5 18.2q0 1.4 0.2 2.5l-1.7 1.1c-4.8 2.7-8.7 8.1-8.7 12 0 3.9 3.9 4.8 8.7 2l63.9-36.9c4.8-2.7 8.7-8.1 8.7-12 0-3.9-3.9-4.8-8.7-2z"/>
	</g>
</svg>