<svg version="1.2" xmlns="http://www.w3.org/2000/svg" viewBox="0 0 1400 1000" width="1400" height="1000">
	<title>6262910</title>
	<defs>
		<clipPath clipPathUnits="userSpaceOnUse" id="cp1">
			<path d="m211.43 207.91v359.96 316.5q0 3.95 1.22 7.72l238.22 0.05h450.8 300.99q1.27-3.81 1.27-7.77v-356.1-320.36l-0.05 55.99h-270.39-492.34l-229.71-0.05v-55.94c0-14.08 11.89-25.97 25.96-25.97-14.08 0-25.97 11.89-25.97 25.97z"/>
		</clipPath>
	</defs>
	<style>
		tspan { white-space:pre } 
		.s0 { fill: #cfe7e0 } 
		.s1 { fill: #fba92d } 
		.s2 { fill: #e38907 } 
		.s3 { fill: #2fc3b0 } 
		.s4 { fill: #34dcc7 } 
		.s5 { fill: #206969 } 
		.s6 { fill: #eef3d9 } 
		.s7 { fill: #fe514a } 
		.s8 { fill: none;stroke: #206969;stroke-linecap: round;stroke-miterlimit:10;stroke-width: 2.8 } 
		.s9 { fill: none;stroke: #fba92d;stroke-linecap: round;stroke-miterlimit:10;stroke-width: 22.1 } 
		.s10 { fill: none;stroke: #2fc3b0;stroke-linecap: round;stroke-miterlimit:10;stroke-width: 22.1 } 
		.s11 { fill: none;stroke: #b5dae6;stroke-miterlimit:10;stroke-width: 2.8 } 
		.s12 { fill: none;stroke: #206969;stroke-linecap: round;stroke-miterlimit:10;stroke-width: 2.6 } 
		.s13 { fill: none;stroke: #fba92d;stroke-linecap: round;stroke-miterlimit:10;stroke-width: 19.8 } 
		.s14 { fill: none;stroke: #206969;stroke-linecap: round;stroke-miterlimit:10;stroke-width: 4 } 
		.s15 { fill: #021621 } 
		.s16 { fill: #04283d } 
		.s17 { fill: #cb5c37 } 
		.s18 { fill: #b94827 } 
		.s19 { fill: #db633c } 
		.s20 { fill: #c94e2b } 
		.s21 { fill: #201c61 } 
		.s22 { fill: #181448 } 
		.s23 { fill: #fefefe } 
		.s24 { fill: #a5a5a5 } 
		.s25 { mix-blend-mode: soft-light;fill: #fefefe } 
		.t26 { font-size: 61px;fill: #fefefe;font-weight: 900;font-family: "RobotoSlab-Black", "Roboto Slab" } 
		.t27 { font-size: 36px;fill: #fefefe;font-weight: 900;font-family: "RobotoSlab-Black", "Roboto Slab" } 
	</style>
	<g id="OBJECTS">
		<path id="&lt;Path&gt;" class="s0" d="m707.5 89.3c-9.1 0-18.4 0.2-27.8 0.5-35.4 1.2-71.5 5-107.4 11.2-37.3 6.5-74.7 16.1-111.2 28.5-35.3 12.1-70.1 27.2-103.3 45.1-16.4 8.8-33 18.8-49.4 29.7-7.4 4.8-15 10.1-23.2 16.2-7.6 5.5-15.2 11.4-22.5 17.3-7.5 6.1-14.9 12.4-22 18.8-7 6.3-14.1 13-21.8 20.7-12.8 12.8-25.4 27-37.5 41.9-10.6 13.4-20.9 27.8-30.5 43-9.7 15.2-18.7 31.7-26.9 49.1-7.7 16.4-14.6 34.2-20.4 52.6-5.3 16.7-9.6 34.8-12.7 53.5-2.8 16.1-4.5 33.2-5.2 50.8-0.6 16.8-0.1 34.5 1.7 52.4 1.6 17.4 4.6 35.4 8.9 53.5 3.8 16.5 9.2 33.7 15.7 51.1 5.7 14.9 12.6 30.2 20.6 45.6 7.9 15.2 17.3 30.8 28 46.4 6.6 9.8 13.9 19.6 22.3 30 6.8 8.5 14.2 17.1 22.7 26.4l0.9 0.9 0.8 0.9c6.1 6.5 12.3 12.8 18.4 18.7l-1.8-0.1c-0.8 0-1.5 0.7-1.5 1.5 0 0.8 0.7 1.5 1.5 1.5h336 326.8 267 28.1l-0.8 0.6-0.7 0.6c-0.2 0.3-0.4 0.6-0.4 1 0 0.4 0.1 0.9 0.4 1.1 0.3 0.3 0.6 0.5 1 0.5 0.4 0 0.7-0.2 1-0.5l3-2.8 0.3-0.3 0.3-0.2h6.1c0.8 0 1.4-0.7 1.4-1.5 0-0.8-0.6-1.5-1.4-1.5h-3.2l0.5-0.3 0.7-0.7 0.5-0.5 0.6-0.5c6-6 12-12.1 17.7-18.3 0.9-1 1.7-1.8 2.5-2.7q1.6-1.8 3.1-3.4l0.3-0.4 0.8-0.9c7.1-7.9 13.8-16 20.1-24.1l0.2-0.2 0.2-0.2 0.5-0.7q0.1-0.1 0.2-0.2 1.9-2.5 3.9-5.1l0.3-0.3 0.2-0.3 0.2-0.3 0.3-0.4c3.4-4.6 6.8-9.3 10-13.8 3.3-4.7 6.6-9.7 10.2-15.2 6.2-9.7 12.2-19.8 18.2-31.1l0.1-0.2c4.1-7.5 7.9-15.3 11.5-23.1 3.3-7 6.5-14.7 10-23.5 3-7.6 5.8-15.8 8.8-24.9 2.9-9.2 5.6-18.8 8.1-29.4 4.1-17.4 7.1-36 8.9-55.2 1.8-18.3 2.1-37.7 1.1-57.6-1-18.1-3.4-37.1-7.3-56.5-3.6-18.1-8.8-36.9-15.5-55.9-5.8-16.4-13.2-33.5-21.9-50.7-8.4-16.4-18.1-32.7-29.6-49.7-10.1-14.7-21.2-29.1-34.1-44-10.9-12.7-22.7-25.1-36.2-37.9-11.9-11.2-24.6-22.2-39-33.6-14.1-11.1-29.1-21.8-45.7-32.5-14.5-9.4-29.7-18.3-46.4-27.2-14.7-7.9-30.2-15.3-47.4-22.8-33.9-14.8-70.5-27.3-108.7-37-34.5-8.9-71.2-15.3-109.1-19.3-26-2.7-53-4.1-80.1-4.1z"/>
		<g id="&lt;Group&gt;">
			<path id="&lt;Path&gt;" class="s1" d="m84.8 545.5q-0.8 0-1.5 0.1c-0.8 0.1-1.5 0.3-2.3 0.5-1.1 0.4-2.4 1-3.9 2-1.5 1.1-2.9 2.5-4.1 4.1-1.4 1.9-2.3 4.2-2.9 6.8-0.4 2.2-0.5 4.6-0.1 7.5 0.2 2.3 0.8 4.8 1.7 7.8 1.5 4.5 3.6 9.1 6.5 14.1 2.4 4 5.2 8 8.7 12.3 3.6 4.4 7.7 8.7 12.2 12.7 8.3 7.6 18 14.2 28.8 19.8q0.2 0.1 0.4 0.1c0.4 0 0.9-0.3 1-0.7 0.2-0.4 0.2-0.7 0-1 0.2-0.4 0.3-0.8 0.2-1.2q-0.2-0.9-0.4-1.9-0.2-1.1-0.4-2.2-0.5-2.1-1-4.2-0.4-1.7-0.9-3.4-0.6-2.3-1.1-4.7-0.1-0.3-0.2-0.6v-0.2c-1.2-5.1-2.7-10.3-4.6-16-2.7-8.1-5.6-15.4-8.8-22.1-1.9-4.1-3.8-7.8-5.8-11.2-2-3.5-4.1-6.4-6.2-9-2.4-3-4.7-5-7-6.6-2.7-1.8-5.2-2.7-7.7-2.8q-0.3 0-0.6 0z"/>
			<path id="&lt;Path&gt;" class="s1" d="m164.9 571.6q-2.5 0-4.8 1c-3 1.2-5.7 3.9-8.1 7.8-2 3.4-3.6 7.3-5 12-1.1 4-1.9 7.9-2.2 11.6-0.2 2.6-0.4 5.5-0.4 8.8 0 3 0.2 6.2 0.4 9.5 0.6 6 1.7 12.3 3.3 18.7 2.7 10.7 6.9 21.2 12.6 31.2-5-4.1-10.4-7.6-15.7-10.9l-2.2-1.4-1.9-1.3-0.5-0.3c-4.1-2.6-8.3-5.3-12.6-7.6-3-1.5-5.7-2.7-8.3-3.5-3.1-1-5.8-1.5-8.4-1.5q-0.2-0.1-0.4 0c-3.3 0-9.3 0.7-12.6 5.7-1.1 1.9-1.8 4.1-1.8 6.6 0 2.3 0.6 4.7 1.7 7.2 1.9 4.3 5.3 8.2 9.5 11.1 3.6 2.3 7.8 4.1 12.7 5.1 3.2 0.7 6.8 1 10.9 1q1.7 0 3.4 0c4.3-0.2 9-0.8 14.3-1.8 4.4-0.9 8.9-2.1 13.9-3.6q0.5-0.1 0.7-0.7c0.4 0 0.6-0.1 0.8-0.2 0.4-0.3 0.4-0.9 0.1-1.4l-0.3-0.6c1.5-2.6 2.8-5.4 4-8.2 1.3-2.9 2.5-6.1 3.9-10.1 1.4-3.9 3-8.5 4.4-13.1 2.8-8.8 4.8-16.9 6.2-24.8 0.8-4.9 1.3-9.4 1.5-13.7 0.2-4.9 0-9.1-0.7-13-0.8-4.2-2.1-7.8-4-10.9-1.9-3.1-4.6-5.5-7.9-7.1q-3-1.5-5.9-1.6-0.3 0-0.6 0z"/>
			<path id="&lt;Path&gt;" class="s1" d="m207.8 643.4q-1.2 0-2.5 0.2c-1.7 0.2-3.4 0.8-5.6 1.7q-2.5 1-4.8 2.7c-2.8 2.1-5.1 4.9-6.9 8.3-1.6 3.1-2.8 6.8-3.5 10.9-0.7 3.9-1 8-0.9 12.6 0.1 7.3 1 15.1 2.9 23.7 1.4 6.6 3.2 13.1 5.4 19.1 0 0.4 0.1 0.9 0.4 1.2 0.2 0.3 0.6 0.5 1 0.5 0.4 0 0.8-0.2 1.1-0.5 1.1-1 2.1-1.9 3-2.9 1.2-1.2 2.2-2.5 3.1-3.7 1.7-2.3 3.3-4.9 5-8 1.4-2.5 2.7-5.2 4.1-8.6 1.1-2.7 2-4.9 2.8-7 2.2-6.1 3.9-12.5 5.1-19 0.9-4.3 1.4-8.2 1.5-11.7q0.2-2.8 0-5.3c-0.1-1.9-0.4-3.5-0.7-5q-0.6-2.3-1.6-4.1-1.1-1.9-2.8-3.2c-1-0.8-2.2-1.4-3.6-1.7q-1.2-0.2-2.5-0.2z"/>
			<path id="&lt;Path&gt;" class="s2" d="m220.2 773.1c-5.4-13.4-11.5-26.5-18.1-39.3q-3.1-6.1-6.5-12 0.1-2.1 0.1-4.2 0-2.5-0.1-5c-0.1-1.7-0.1-3.4-0.1-5.1q-0.1-2.8 0-5.5c0-1.7 0-3.4 0-5 0-1.7 0.1-3.4 0.2-5.1 0.1-1.6 0.3-3.3 0.4-5q0.3-2.7 0.7-5.4-0.1 0.1-0.1 0.3c1.4-9.3 3.3-18.4 5.7-27.5 0.1-0.4-0.2-0.7-0.5-0.7-0.3 0-0.5 0.1-0.5 0.4-1.6 5.6-3 11.2-4.3 16.9q-0.9 4.3-1.8 8.5-0.3 2-0.7 4.1c-0.3 1.4-0.6 2.9-0.9 4.4q-0.7 4.3-1.4 8.5-0.8 4.3-1.2 8.7-0.2 2.1-0.3 4.1-0.1 2-0.1 3.9-5.1-8.6-10.4-16.9-5.9-8.9-12.1-17.5-2.5-3.4-5-6.8-0.1-1.4-0.3-2.8-0.2-2.8-0.5-5.6-0.6-4.8-1.1-9.7-0.3-3.2-0.6-6.4c-0.2-2.3-0.4-4.5-0.5-6.8q-0.3-3.3-0.4-6.7c-0.1-2.2-0.1-4.5-0.1-6.7 0.1-9.1 0.7-18.2 2-27.1q0 0 0 0.1c0.9-6.3 2.1-12.6 3.7-18.7 0.1-0.4-0.3-0.7-0.6-0.7-0.2 0-0.4 0.1-0.5 0.4q-1.4 5.3-2.6 10.7-1.1 5.4-2 10.9c-1.2 7.3-1.9 14.7-2.5 22.1-0.2 3.7-0.4 7.4-0.5 11.2q-0.2 2.7-0.2 5.4-0.1 2.9-0.1 5.8c0.1 5.6 0.3 11.3 0.9 16.9q-0.8-1-1.6-2c-4.2-5.4-8.5-10.7-12.8-16-2.1-2.7-4.3-5.3-6.4-8-2.1-2.6-4.2-5.2-6.3-7.9-3.8-4.8-7.6-9.6-11.3-14.5-3.7-4.8-7.3-9.8-10.8-14.8-7.1-10.3-13.8-20.8-20-31.8q0 0 0 0-3-5.4-5.7-10.9c-0.1-0.2-0.3-0.3-0.5-0.3q-0.1 0-0.3 0c-0.2 0.2-0.4 0.5-0.2 0.8 6.2 12.5 13.2 24.5 20.7 36.1q5.6 8.6 11.5 17c3.9 5.6 7.9 11.1 11.8 16.7q1.4 1.9 2.9 3.9c1 1.5 2 2.9 3.1 4.3 2 2.8 4.1 5.5 6.1 8.2 4 5.6 8.1 11 12.1 16.6q3 4.2 6.1 8.3 0.4 0.5 0.7 1-2-0.4-4.1-0.6-3.7-0.6-7.4-1.2-3.6-0.6-7.1-1.4-3.6-0.8-7.1-1.8c-8.8-2.4-17.4-5.7-25.5-10q-0.1-0.1-0.2-0.1c-0.2 0-0.5 0.2-0.5 0.4-0.2 0.3 0 0.6 0.3 0.8q3.2 1.7 6.6 3.4 3.2 1.6 6.5 3c4.4 1.9 8.9 3.6 13.4 5.1q3.3 1.1 6.6 2.1c2.4 0.6 4.7 1.3 7.1 1.9 2.3 0.6 4.6 1.1 6.9 1.6 2.4 0.6 4.9 1.1 7.4 1.2q0.1 0.1 0.2 0.2 0.3 0.3 0.7 0.5 0.8 1.1 1.6 2.3c4.1 5.7 8.1 11.5 12 17.4 4.8 7.5 9.3 15.1 13.6 22.8 5.1 9.2 9.9 18.5 14.4 27.9 4.6 9.7 8.9 19.4 13 29.3 0.7 1.6 2.4 2.3 3.9 1.6 1.5-0.7 2.2-2.6 1.5-4.2z"/>
		</g>
		<g id="&lt;Group&gt;">
			<path id="&lt;Compound Path&gt;" fill-rule="evenodd" class="s3" d="m81.8 718.4l0.8 0.3q0.8 0.2 1.7 0.5c0.7 0.2 1.4 0.3 2.2 0.5h0.2c7.9 1.7 16.4 2.3 26.1 1.8 6.5-0.3 13-0.9 19.4-1.6q3.7-0.4 7.4-0.8c7.3-0.7 16.9-1.5 26.5-1.2 10 0.4 19.5 1.6 28.3 3.8 8.8 2.1 17.1 5.2 24.8 9.1 8 4 15.3 8.8 21.9 14.3 6.9 5.8 13.2 12.4 18.6 19.4 5.7 7.3 10.8 15.5 15.3 24.2 4 8 7.3 15.9 9.8 23.7 3.2 9.7 4.9 17.8 5.5 25.5 0.4 5 0.3 9.1-0.1 12.9-0.6 4.4-1.5 8.4-2.9 11.9-1.7 4.1-3.7 7.6-6.3 10.5-1.6 1.9-3.1 3.4-4.6 4.7-1.7 1.5-3.7 2.9-5.9 4.2-4.1 2.4-8.7 4.5-14.2 6.2-2.3 0.7-4.7 1.4-7.1 2-2.8 0.7-5.7 1.3-8.8 1.8-10.7 1.8-21.5 2.6-33.4 3.4-5 0.3-10.2 0.7-15.3 1.2h-0.9c-4.1 0.4-8.4 0.9-12.6 1q3.1 1.4 6.3 2.7c0.6 0.2 0.8 0.8 0.7 1.3-0.2 0.4-0.5 0.6-0.8 0.7q-0.3 0.1-0.6 0c-1.9-0.8-3.7-1.5-5.3-2.2q-2.5-1.1-5-2.3-0.8 0-1.5-0.1c-1 0-1.6-0.8-1.7-1.6-5.6-3-10.8-6.6-15.4-10.5-6.5-5.5-12.3-11.9-17.4-19.1-10.7-15.6-17.3-33.6-21.8-47.6-3-9.1-5.6-18.4-7.9-26.4-2.5-8.6-5.1-17.5-7.8-26.1-3-9.3-5.8-16.8-8.8-23.5-1.8-4.2-3.6-8-5.5-11.5-1.8-3.3-3.8-6.7-6.2-10.6-0.4-0.7-0.1-1.7 0.4-2.2q0.4-0.2 0.8-0.4 0.5-0.1 1.1 0.1zm38.6 103.6l0.1 0.4q0.4 1.2 0.8 2.3-0.4-1.3-0.9-2.7z"/>
			<g id="&lt;Group&gt;">
				<path id="&lt;Path&gt;" class="s4" d="m276.3 876.6c-3.1-4.9-6.6-9.5-10.2-14.2q-5.2-6.6-10.7-13-0.5-0.6-1.1-1.3 0.2-0.7 0.3-1.4 0.4-2.2 0.6-4.3 0.4-3.9 0.4-7.7 0-8.1-1.1-16.2c-1.3-10.6-3.5-21.1-7.4-31.1-0.9-2.5-1.9-4.9-3-7.3-1.1-2.3-2.4-4.7-3.7-6.9-0.2-0.3-0.4-0.4-0.6-0.3-0.4 0.1-0.6 0.4-0.4 0.8 1.9 3.3 3.5 6.9 4.9 10.5q0-0.1 0-0.1c1.6 4.2 2.9 8.6 3.9 13 1.1 4.6 1.9 9.3 2.4 13.9 0.3 3.2 0.5 6.3 0.5 9.5 0.1 3.3-0.1 6.6-0.3 9.9-0.1 3.2-0.5 6.3-0.9 9.4q-0.2 1.4-0.4 2.9-8.2-9-16.9-17.5c-9.3-9.2-19-17.8-29.1-26.1q0-0.1 0.1-0.3c0-1.2 0.1-2.5 0.1-3.8q0-2-0.2-3.9c-0.3-2.8-0.7-5.5-1.3-8.2-1.2-5.4-3-10.8-5-16-2-5-4.5-9.9-7.1-14.6q-2-3.5-4.1-6.9c-1.4-2.2-3-4.4-4.5-6.6-0.2-0.3-0.4-0.4-0.7-0.3q-0.1 0-0.2 0c-0.2 0.2-0.4 0.6-0.2 0.9 2.3 3.3 4.3 6.7 6.1 10.3 2 3.7 3.7 7.6 5.3 11.5q2.2 5.8 3.8 11.8c1 4 1.8 8 2.2 12q0.4 3.3 0.5 6.6 0.1 1.7 0.1 3.4-8.1-6.5-16.4-12.7c-8.9-6.5-18-12.7-27.1-18.8q-4.8-3.1-9.5-6.1-0.2-0.2-0.4-0.2-0.4-0.3-0.8-0.5 0-0.1 0-0.2c-0.8-2.7-1.9-5.3-3.2-7.9-1.4-2.5-2.9-4.9-4.5-7.2q-1.2-1.6-2.4-3.2-1.3-1.7-2.7-3.4c-0.9-1.2-1.9-2.3-2.8-3.4q-1.4-1.7-2.8-3.4c-0.1-0.1-0.3-0.2-0.5-0.1q-0.1 0-0.2 0.1c-0.2 0.2-0.2 0.5 0 0.7q1 1.3 2 2.6 1.6 2.2 3 4.4 0.9 1.2 1.6 2.5 0.8 1.2 1.5 2.5c1 1.7 2 3.4 2.8 5.2q1.3 2.6 2.3 5.2 0.5 1.2 0.9 2.4-6.2-3.9-12.5-7.6-8.9-5.3-17.9-10.5c-6-3.5-12-6.9-18-10.4q-0.2-0.1-0.5-0.1-0.1 0.1-0.2 0.2c-0.2 0.2-0.1 0.6 0.1 0.7 4.8 2.8 9.6 5.8 14.3 8.8q7.1 4.4 14.1 8.9 3.5 2.2 7 4.6c2.3 1.5 4.6 3 6.9 4.6q3 2 6 4-0.1 0-0.1 0c-2.2 0-4.3 0-6.4 0-4.4-0.1-8.8-0.4-13-1.3q0 0 0 0c-4.8-1-9.5-2.5-13.8-4.7q-0.2-0.1-0.3 0c-0.2 0-0.4 0.1-0.4 0.3-0.2 0.2-0.2 0.7 0.1 0.8 3 1.5 6 2.9 9.2 4 3.2 1.2 6.6 2 9.9 2.8q5.1 1.2 10.3 1.8 2.5 0.3 5.1 0.3 1.4 0.1 2.8 0 1.1-0.1 2.1-0.3 1.1 0.8 2.3 1.6c4.5 3.2 9 6.3 13.5 9.6q6.6 4.9 13.2 9.9 12 9.1 23.5 18.9-0.5 0.1-1 0.2c-2.3 0.4-4.7 1-7.1 1.4-4.9 0.9-9.8 1.3-14.7 1.6q0 0 0 0 0 0-0.1 0-0.2 0-0.3 0 0 0 0.1 0-3.3 0.1-6.6 0-3.6 0-7.2-0.3c-4.6-0.3-9.1-1.1-13.6-2-6.4-1.4-12.6-3.3-18.6-6q-0.1 0-0.3 0c-0.1 0.1-0.3 0.2-0.4 0.4-0.1 0.3 0.1 0.5 0.4 0.7q7.1 3.2 14.6 5.4c5.2 1.5 10.4 2.7 15.8 3.5 2.7 0.5 5.4 0.9 8.1 1.2 2.7 0.2 5.4 0.4 8.2 0.6q4 0.2 8.1 0.1 4.2-0.1 8.3-0.4c2.3-0.2 4.7-0.4 6.9-0.8q1.7-0.3 3.4-0.8 0.6-0.2 1.2-0.4c2.4 2.1 4.8 4.1 7.1 6.3 13.6 12.1 26.4 25.1 38.4 38.8-1.5 0.5-2.8 1.1-4.2 1.6-2.6 1-5.2 1.9-7.8 2.8q0.2-0.1 0.5-0.2-0.3 0.1-0.5 0.2-0.1 0-0.2 0 0.1 0 0.2 0c-3.5 1-7.2 1.7-10.9 2.3-3.8 0.6-7.7 0.9-11.5 1.1-5.8 0.3-11.7 0-17.5-0.6-5.9-0.6-11.8-1.5-17.6-2.8-5.9-1.2-11.7-2.7-17.5-4.5q-0.1 0-0.3 0c-0.4 0.1-0.5 0.8 0 0.9 5.6 1.8 11.2 3.6 16.9 5q8.6 2.1 17.3 3.4 8.7 1.3 17.5 1.6c5.9 0.1 11.8-0.1 17.6-0.7 4-0.5 7.9-1 11.8-1.8 2.1-0.4 4.2-1 6.3-1.6 1.4-0.5 2.9-1 4.2-1.6q1.7 1.9 3.3 3.8 4.2 5.1 8.2 10.3 2.1 2.6 4.2 5.3c1.3 1.9 2.7 3.7 4.1 5.5 0.9 1 2.4 1.3 3.6 0.7 0.7-0.3 1.3-0.9 1.5-1.7q0.1-0.4 0.2-0.7 0.1-0.8-0.3-1.6z"/>
				<path id="&lt;Path&gt;" class="s4" d="m173.7 803.6q-0.2 0-0.3 0 0.1 0 0.2 0 0 0 0.1 0z"/>
				<path id="&lt;Path&gt;" class="s4" d="m235.2 854.3q0 0 0 0 0 0 0 0z"/>
			</g>
		</g>
		<g id="&lt;Group&gt;">
			<path id="&lt;Path&gt;" class="s1" d="m1324.3 734.7c-2 1.8-4.1 3.5-6.4 5q-3.5 2.3-7.2 4.5-7.6 4.4-15.8 7.7c-5.5 2.2-11.2 4.1-16.9 5.8q-2.4 0.7-4.7 1.3-2.6 0.8-5.1 1.5c-5.4 1.6-11 3.2-16.3 5.3-6 2.5-11.1 5.4-15.5 8.9-3.3 2.6-6.6 5.7-9.5 9-3 3.3-5.8 7-8.8 11.2-2.7 4-5.3 8.3-7.6 12.7-4.8 9.1-8.6 18.7-11.5 28.7-2.8 10-4.3 19.9-4.5 29.4-0.1 9.9 1.4 18.7 4.6 26.3q0.4 1.1 0.9 2.2c0.3 0.5 0.8 0.7 1.3 0.7q0.4 0 0.8-0.2c0.3-0.3 0.5-0.6 0.6-1 0.1-0.3 0.1-0.5 0-0.8q0.2 0.5 0.6 0.9c1.3 1.6 2.6 3 4 4.2q2.3 1.9 5.1 3.4c1.7 0.9 3.5 1.7 6 2.5 1.9 0.6 4 1.1 6.3 1.6 4.5 0.8 9.4 1.3 14.9 1.3q7.6 0 15.7-1.1c5.5-0.8 10.9-1.9 16.1-3.3 4.9-1.3 9.7-2.9 14.1-4.8 4.6-2 8.6-4.2 12.1-6.7 4.5-3.2 8.5-6.8 12.1-10.6 3.3-3.5 6.3-7.5 9-11.9 4.4-7.3 7.6-16.1 9.5-26 0.9-4.3 1.4-9 1.8-14.3 0.2-4.5 0.3-9.2 0.2-14.3-0.2-9.9-1.1-19.8-2-29.1l-0.4-4.8c-0.7-6.9-1.4-14-1.8-21-0.7-9.6-0.7-17.3-0.1-24.3l0.1-1.4q-0.8 0.8-1.7 1.5z"/>
			<g id="&lt;Group&gt;">
				<path id="&lt;Path&gt;" class="s2" d="m1318.6 751.6c0.2-0.2 0-0.6-0.3-0.8q-0.1 0-0.2 0c-0.3 0-0.4 0.1-0.6 0.3-2.6 4-5.3 7.8-8.2 11.7q0 0 0.1-0.1c-5.6 7.4-11.4 14.6-17.4 21.6-0.1-0.8-0.2-1.5-0.2-2.3q0-1.8 0.2-3.7c0.4-4.3 1.5-8.5 3-12.6q0 0.1 0 0.1 0.8-2.1 1.7-4.2c0.1-0.3 0-0.6-0.3-0.7q-0.1-0.1-0.2-0.1c-0.2 0-0.4 0.1-0.5 0.3-1.7 4-3.4 8-4.6 12.3q-0.9 3.1-1.3 6.3-0.1 1.5-0.1 3.1c0 1.1 0.1 2.2 0.4 3.3q-0.2 0.3-0.2 0.6 0 0 0 0c-6.2 7.2-12.5 14.3-18.7 21.6q-3.8 4.5-7.6 9.1-0.4-2-0.9-4c-0.6-2.7-1.3-5.4-1.7-8.2q0 0.1 0 0.2 0-0.1-0.1-0.3 0 0 0-0.1v0.1c-0.7-4.9-0.8-9.9-0.4-14.9q0.3-3.1 1-6.1c0.4-2.3 1-4.6 1.8-6.7q0.1-0.2 0.1-0.3c0.1-0.2 0.1-0.5-0.2-0.7q-0.1 0-0.2 0c-0.2 0-0.4 0.1-0.5 0.2-0.6 1.8-1.3 3.5-1.8 5.3-0.6 1.9-1.1 3.9-1.5 5.9-0.7 3.7-1 7.6-1.1 11.4 0 1.8 0.1 3.7 0.1 5.5 0.1 2 0.2 4 0.4 6 0.1 2 0.5 4.1 0.9 6.1 0.3 1.4 0.6 2.8 1.1 4.2q-4.2 5.2-8.1 10.5c-3.1 4-6 8.1-8.8 12.2q-4.1 6.1-7.7 12.6-0.8 1.4-1.5 2.8-1-1.9-1.9-4c-0.9-1.9-1.6-3.8-2.2-5.8-0.7-2.1-1.1-4.3-1.5-6.5q0 0 0 0.1c-1.5-9.6-1.3-19.3-1.3-29 0.1-0.3-0.2-0.5-0.5-0.5-0.3 0-0.6 0.3-0.6 0.6 0 8.5-0.7 17.1-0.3 25.7q0.4 6.4 1.7 12.7c0.4 2.1 0.9 4.1 1.6 6 0.7 1.9 1.6 3.7 2.7 5.3q-3 6.1-5.4 12.4c-2.5 6.9-4.5 14.1-5.3 21.4q0-0.3 0.1-0.7l-0.1 0.3c-0.1 0.8-0.1 1.5 0.4 2.2 0.4 0.7 1 1.2 1.8 1.4 1.5 0.4 3.3-0.6 3.6-2.2 0.2-1.1 0.5-2.1 0.7-3.2q0.4-1.7 0.9-3.5 0.9-3.4 1.9-6.9 1.9-6.5 4.3-12.8 0.9-2.3 1.9-4.6 2.2 0.3 4.3 0.4c2.4 0.1 4.6-0.1 6.9-0.4q3.7-0.5 7.4-1.3 3.6-0.8 7.1-2c4.9-1.6 9.6-3.6 14.2-5.9 4.6-2.3 9-4.8 13.3-7.6q5.3-3.5 10.3-7.4 4.4-3.5 8.5-7.3c0.2-0.2 0.2-0.6 0-0.8q-0.2-0.2-0.4-0.2-0.2 0-0.4 0.2-2.1 1.9-4.2 3.7-2.8 2.2-5.6 4.3-3.2 2.2-6.6 4.3-3.5 2.2-7.1 4.1-3.6 2-7.4 3.7c-1.8 0.8-3.6 1.5-5.5 2.2q-2.8 1.2-5.8 2.1-5.8 1.8-11.7 2.8c-2.3 0.3-4.5 0.6-6.8 0.6-2.3 0.1-4.5 0-6.8-0.2q0.2 0 0.3 0-0.2 0-0.3 0 0 0 0 0-0.7-0.1-1.4-0.2 3.6-7.8 8-15.2c4.7-8 9.9-15.8 15.5-23.3q0.4-0.5 0.8-1c0.3-0.2 0.5-0.5 0.6-0.8q0.2-0.2 0.3-0.4 0.5 0.2 1.1 0 3-0.7 6-1.6 3-0.9 6-2c3.9-1.4 7.7-3 11.5-4.8q2.7-1.4 5.4-2.9 2.7-1.6 5.3-3.4c3.5-2.4 6.7-5.1 9.7-8.1 0.2-0.2 0.2-0.5 0-0.7q-0.1-0.1-0.3-0.1-0.2 0-0.4 0.1-2 2-4.2 3.8c-4.5 3.7-9.5 6.7-14.7 9.1q-2.9 1.3-5.8 2.4-2.9 1.1-5.9 2c-3.5 1-7.1 1.7-10.7 2.4 7.8-10.2 16-20.2 24.1-30.2 2.2-0.2 4.2-0.8 6.2-1.7 2.1-0.9 4.1-2.1 6-3.5 3.8-2.7 7-6 10-9.4 0.2-0.2 0.2-0.5 0-0.7q-0.2-0.1-0.4-0.1-0.2 0-0.3 0.1-2.9 3.3-6.2 6-1.6 1.3-3.3 2.4-1.9 1.2-4 2.2-2.7 1.1-5.5 1.7 2.9-3.7 5.8-7.3c6.6-8.4 12.9-17 18.7-26z"/>
				<path id="&lt;Path&gt;" class="s2" d="m1261 805.2q-0.1 0-0.1-0.1 0 0 0 0 0 0.1 0.1 0.1z"/>
			</g>
		</g>
		<g id="&lt;Group&gt;">
			<g id="&lt;Group&gt;">
				<path id="&lt;Path&gt;" class="s5" d="m1189.4 167.7h-365.8-368-230.5c-14.4 0-26.7 12.2-26.7 26.6v369.1 324.5c0 2.7 0.5 5.3 1.3 7.9l244.3 0.1h462.2 308.5q1.4-4 1.4-8v-365.1-328.5c0-14.4-12.2-26.6-26.7-26.6z"/>
				<path id="&lt;Path&gt;" class="s6" d="m211.4 207.9v360 316.5q0 3.9 1.3 7.7h238.2 450.8 301q1.2-3.8 1.2-7.7v-356.1-320.4 56h-270.4-492.3-229.8v-56c0-14.1 11.9-26 26-26-14.1 0-26 11.9-26 26z"/>
				<path id="&lt;Path&gt;" class="s3" d="m1178 181.9h-356.8-359-224.8c-14.1 0-26 11.9-26 26v56h229.8 492.3 270.4v-56c0-14.1-11.9-26-25.9-26z"/>
				<g id="&lt;Clip Group&gt;" clip-path="url(#cp1)">
					<path id="&lt;Path&gt;" class="s7" d="m857.2 345.1c-3.6 0-7.2 0.2-10.9 0.6-5.2 0.6-10.6 1.6-16.4 3.1-5.6 1.5-11.4 3.7-18.5 6.8-4.4 2-8.7 4.3-12.8 6.8-3.8 2.3-7.3 5-10.2 7.2-6.3 5-12.6 11.1-19.9 19.2-6.1 6.9-11.8 14.2-16.7 20.6q-3.8 5-7.6 10.1l-0.7 1q-4.4 5.8-8.9 11.7l0.5-0.6c-9.5 12.1-20 24.8-32.8 34.9-2.8 2.1-5.8 4.1-8.8 6-3.1 1.9-6.5 3.7-10.5 5.4-2.8 1.1-5.5 2-8.2 2.8-3.1 0.9-6.4 1.6-10.4 2.2-3.1 0.4-6 0.6-8.9 0.7h-0.6c-2.3 0-4.8-0.2-7.7-0.6-2.6-0.4-5.1-0.9-7.7-1.6-2.2-0.6-4.5-1.4-7.2-2.5-5.8-2.5-11.4-5.9-17.1-10.2-8.2-6.4-15.3-13.7-21.8-20.6q-3.4-3.5-6.7-7.1c-4.5-4.9-9.6-10.4-14.8-15.5-8-8-15.6-14.2-23.3-19-4.8-3-10.1-5.5-16.4-7.8-5.9-2.1-12.5-3.4-20.8-4.3-2.7-0.2-5.7-0.4-8.8-0.4-3.6 0-7.5 0.2-11.8 0.6-6.5 0.6-13.5 1.8-21.4 3.8-11.9 3-24.2 7.6-38.5 14.7-20.6 10.1-41.7 24.3-64.6 43.3-20.1 16.8-39.1 35.5-57.5 53.6l-0.1 0.1-6.9 6.8c-20.1 19.8-41.8 40.7-65.6 59.1-8.6 6.6-17.2 12.6-25.5 17.9-8.7 5.6-18.1 10.8-27.9 15.6-0.7 0.3-1.1 0.9-1.4 1.6-0.2 0.9-0.1 1.8 0.3 2.6 0.4 0.6 1 1.1 1.8 1.3q0.4 0.2 0.8 0.2c0.5 0 1-0.2 1.5-0.4 9.3-4.6 18.7-9.8 28-15.6 8.5-5.4 17.2-11.5 26.5-18.7 14.9-11.5 29.9-24.7 48.7-42.7 8.1-7.7 16.3-15.8 23.6-23 22.6-22.2 45.9-45 71.3-64.7 9.9-7.6 19.5-14.3 29.3-20.3 10.7-6.5 21.9-12.4 33.3-17.3 6.5-2.6 13-5 19.5-6.9 6.3-1.8 13.1-3.3 20.2-4.4 4.4-0.5 8.9-0.9 13.2-1.1q1.4 0 2.8 0c3.9 0 8 0.3 12.5 0.8 3.2 0.5 6.3 1 9.4 1.8 3.3 0.8 6.9 2 11 3.6 3.6 1.6 7.1 3.4 10.5 5.5 2.6 1.6 5.2 3.4 8.6 6 10.5 8.3 19.8 18.3 28.7 28l0.6 0.6c4.6 5 9.3 10 14.1 14.8 7.9 7.8 15.3 13.8 22.7 18.3 8.2 5.1 17.4 8.4 26.5 9.6 2.5 0.3 4.9 0.5 7.4 0.5q0.6 0 1.2 0.1c2.5 0 4.9-0.2 6.7-0.4 5.4-0.5 11-1.7 16.8-3.4 4.2-1.4 8.6-3.2 13.4-5.7 4.2-2.2 8.6-5.1 13.5-8.8 7.3-5.6 14.5-12.6 22.6-22 6.9-8.1 13.3-16.5 19.5-24.8l1-1.3q5.3-7.1 10.7-14.1c9.1-11.7 20.2-25.1 33.7-35.7 3.6-2.7 7-5.1 10.5-7.2 4.6-2.7 9.5-4.9 13.2-6.5 4.4-1.9 8.8-3.4 13.1-4.7 4.3-1.3 9-2.3 14.2-3.1h-0.3c4.6-0.5 9.1-0.8 13.4-0.8 3.9 0 8.1 0.3 12.8 0.9 4.6 0.7 9.2 1.6 14 2.9 4.6 1.3 9.2 2.9 14.8 5.2 0 0 0.1 0 0.1 0q0 0 0 0 0 0 0 0c0 0 0.1 0.1 0.1 0.1q0 0 0 0l0.2 0.1-0.2-0.2c21.7 9.4 41.3 23.4 59.5 36.9q5.1 3.8 10.2 7.7c15.7 11.8 31.9 24 49.2 34.1 5.7 3.4 11.8 6.5 17.5 9.4 6.6 3.4 13.5 6.8 21.2 10.3 13.4 6.1 27.5 11.8 41.9 16.8 30 10.4 60.1 17.1 89.6 19.8 8.5 0.8 17.2 1.2 26 1.2q3.5 0 7-0.1c10.5-0.2 21.7-1.2 33.2-3 0.8-0.1 1.5-0.8 1.8-1.4 0.4-0.7 0.6-1.6 0.3-2.4-0.2-0.7-0.7-1.4-1.4-1.8-0.4-0.2-0.9-0.4-1.4-0.4q-0.4 0-0.9 0.1-2.4 0.4-4.8 0.7c-11.1 1.5-22.7 2.2-34.5 2.2h-1.5c-11.9 0-24.5-1-38.4-2.8l0.3 0.1c-33.3-4.8-68-14.6-103.1-29.4l0.5 0.3c-13.8-6-27.5-12.5-40.7-19.5-5.5-3-10.7-6-15.6-9-4.7-2.8-9.7-6.1-15.7-10.3-9.6-6.6-19-13.8-28.2-20.7-9.9-7.4-20.2-15.2-30.7-22.4-14.3-9.8-36.3-23.4-61.1-29-7.2-1.6-14.7-2.5-22.2-2.5z"/>
					<path id="&lt;Compound Path&gt;" fill-rule="evenodd" class="s1" d="m246 388.3q2.3 0 4.5 0c25.7 0.6 51.4 5.4 75.3 14.9 12.9 5.1 25.4 11.3 37 18.9 9.7 6.4 18.9 13.5 27.5 21.4 15.3 14.4 28.7 30.6 41.2 47.5 26.5 36 49.1 74.8 76.4 110.3q-0.2-0.2-0.3-0.4c14.9 19.2 31.2 37.3 50.4 52.2 5.5 4.2 11.1 8.1 17 11.6q9 5.3 18.5 9.5c6 2.5 12.2 4.7 18.5 6.4 6.4 1.7 12.8 2.9 19.4 3.9 6.5 0.8 13.1 1.3 19.7 1.3q9.2 0 18.3-1.2c5.8-0.8 11.5-2 17.1-3.5q8.5-2.4 16.6-5.8-0.4 0.2-0.7 0.3c6.8-2.9 13.5-6.3 19.9-10.2 6.3-3.8 12.4-8 18.3-12.5 14.6-11.4 27.9-24.4 40.5-38 12.7-13.8 24.9-28.2 37.1-42.5 12.4-14.3 24.8-28.7 38.4-41.9 6.6-6.5 13.4-12.8 20.7-18.6 9.5-7.6 19.5-14.6 30.1-20.5 25.1-14.2 52.6-23.7 80.9-29.2 14.2-2.8 28.6-4.8 43.1-6.1 15.3-1.3 30.6-2.1 46-2.2 31-0.3 62.2 1.9 92.8 7.5 15.4 2.8 30.6 6.4 45.6 11.1 14.4 4.6 28.5 10 42.2 16.5 0.7 0.3 1.2 1.1 1.4 1.8 0.2 0.7 0.1 1.6-0.3 2.3-0.4 0.6-1 1.1-1.8 1.4-0.8 0.2-1.6 0-2.3-0.3q-5.7-2.7-11.5-5.2c-15.3-6.4-31.2-11.7-47.4-15.8-15.5-4-31.4-7-47.3-9.1-23.1-3-46.3-4.4-69.6-4.2-22.3 0.1-44.7 1.4-66.9 4.3q0.2 0 0.3 0-0.3 0-0.6 0.1 0 0-0.1 0 0 0 0 0c-13.2 1.8-26.3 4.2-39.1 7.6-12.9 3.3-25.6 7.4-37.9 12.6-8.9 3.8-17.6 8-26 12.9q-12.8 7.5-24.5 16.5c-14.1 11-26.9 23.6-39 36.8-12.1 13.1-23.6 26.8-35.2 40.3-14.4 16.8-29 33.6-45.2 48.8-15.2 14.3-31.8 27.5-50.6 36.8-9.2 4.6-18.8 8.4-28.7 10.9-10.4 2.6-21.2 4.1-31.9 4.3-22 0.3-44.1-4-64.2-12.8-9.5-4.2-18.5-9.2-27-15.1-8.4-5.8-16.4-12.3-23.9-19.3-15.7-14.7-29.4-31.3-42.2-48.5-26.6-35.9-49.1-74.7-76.3-110.1-7.2-9.3-14.7-18.4-22.8-26.9-7.8-8.2-16.1-15.9-25-22.9q0 0 0 0 0 0 0 0 0 0 0 0 0 0 0 0c-6.8-5.2-13.9-10-21.4-14.3q-10.8-6.2-22.3-11.1c-8.8-3.7-17.8-6.8-27-9.3q-13.2-3.4-26.6-5.3 0.4 0.1 0.8 0.1c-10.1-1.3-20.3-2.1-30.5-2q-14.5 0.1-28.8 2 0.4 0 0.8-0.1c-7.3 1-14.6 2.3-21.8 4.1q-10.8 2.7-21.3 6.3c-1.6 0.6-3.3-0.6-3.7-2.1-0.2-0.7-0.1-1.6 0.3-2.3 0.4-0.7 1-1.1 1.8-1.3 12.9-4.6 26.2-8 39.7-10 11.1-1.6 22.4-2.6 33.6-2.6zm766.3 76q0-0.1 0-0.1 0 0 0 0.1zm-504.2 137.2q-0.1-0.1-0.2-0.2 0.1 0.1 0.2 0.2zm640.4-137.5h-0.5q0.3 0 0.5 0zm0.1 0q-0.1 0-0.1 0zm-136.3 0.2q-0.1 0.1-0.3 0.1h-0.1q0.2 0 0.4-0.1z"/>
				</g>
				<g id="&lt;Group&gt;">
					<path id="&lt;Path&gt;" class="s6" d="m359.6 223.1c0 7.5-6.1 13.5-13.6 13.5-7.5 0-13.6-6-13.6-13.5 0-7.5 6.1-13.6 13.6-13.6 7.5 0 13.6 6.1 13.6 13.6z"/>
					<path id="&lt;Path&gt;" class="s6" d="m440.3 223.1c0 7.5-6 13.5-13.5 13.5-7.5 0-13.6-6-13.6-13.5 0-7.5 6.1-13.6 13.6-13.6 7.5 0 13.5 6.1 13.5 13.6z"/>
					<path id="&lt;Path&gt;" class="s6" d="m521.1 223.1c0 7.5-6 13.5-13.5 13.5-7.5 0-13.6-6-13.6-13.5 0-7.5 6.1-13.6 13.6-13.6 7.5 0 13.5 6.1 13.5 13.6z"/>
				</g>
			</g>
			<g id="&lt;Group&gt;">
				<path id="&lt;Path&gt;" class="s8" d="m1177.1 254.5v193.3"/>
				<path id="&lt;Path&gt;" class="s9" d="m1177.1 314.5v88"/>
				<path id="&lt;Path&gt;" class="s8" d="m1147.7 287.2v193.3"/>
				<path id="&lt;Path&gt;" class="s10" d="m1147.7 377.2v58"/>
				<path id="&lt;Path&gt;" class="s8" d="m1118.2 304.2v193.3"/>
				<path id="&lt;Path&gt;" class="s10" d="m1118.2 402.7v90.7"/>
				<path id="&lt;Path&gt;" class="s8" d="m1088.7 294.6v193.3"/>
				<path id="&lt;Path&gt;" class="s9" d="m1088.7 322.9v119.7"/>
				<path id="&lt;Path&gt;" class="s8" d="m1059.3 360.8v145"/>
				<path id="&lt;Path&gt;" class="s10" d="m1059.3 398.2v64"/>
				<path id="&lt;Path&gt;" class="s8" d="m1029.8 381.6v172.5"/>
				<path id="&lt;Path&gt;" class="s10" d="m1029.8 427v102.6"/>
				<path id="&lt;Path&gt;" class="s8" d="m1000.4 351.1v150.2"/>
				<path id="&lt;Path&gt;" class="s10" d="m1000.4 386.3v85.3"/>
				<path id="&lt;Path&gt;" class="s8" d="m970.9 290.9v179.9"/>
				<path id="&lt;Path&gt;" class="s9" d="m970.9 325.8v113.1"/>
				<path id="&lt;Path&gt;" class="s8" d="m941.5 376v142.7"/>
				<path id="&lt;Path&gt;" class="s10" d="m941.5 410.2v69.1"/>
				<path id="&lt;Path&gt;" class="s8" d="m912 434.4v143.5"/>
				<path id="&lt;Path&gt;" class="s9" d="m912 479.8v52.8"/>
				<path id="&lt;Path&gt;" class="s8" d="m882.6 397.2v146.5"/>
				<path id="&lt;Path&gt;" class="s9" d="m882.6 442.6v55.3"/>
				<path id="&lt;Path&gt;" class="s8" d="m853.1 434.4v177.7"/>
				<path id="&lt;Path&gt;" class="s10" d="m853.1 479.8v102.6"/>
				<path id="&lt;Path&gt;" class="s11" d="m823.7 434.4v123.1"/>
				<path id="&lt;Path&gt;" class="s10" d="m823.7 479.8v50"/>
				<path id="&lt;Path&gt;" class="s8" d="m794.2 301.1v128.6"/>
				<path id="&lt;Path&gt;" class="s9" d="m794.2 346.4v37.5"/>
				<path id="&lt;Path&gt;" class="s12" d="m814.2 358.7v111"/>
				<path id="&lt;Path&gt;" class="s13" d="m814.2 393.7v30.2"/>
				<path id="&lt;Path&gt;" class="s8" d="m764.8 320.4v246.1"/>
				<path id="&lt;Path&gt;" class="s9" d="m764.8 365.8v173.9"/>
				<path id="&lt;Path&gt;" class="s8" d="m735.3 389.6v193.3"/>
				<path id="&lt;Path&gt;" class="s10" d="m735.3 434.9v102.6"/>
				<path id="&lt;Path&gt;" class="s8" d="m705.9 397.7v220.1"/>
				<path id="&lt;Path&gt;" class="s10" d="m705.9 439.4v133.1"/>
				<path id="&lt;Path&gt;" class="s8" d="m676.4 524.1v178.5"/>
				<path id="&lt;Path&gt;" class="s10" d="m676.4 554.6v102.6"/>
				<path id="&lt;Path&gt;" class="s8" d="m646.9 352.2v193.3"/>
				<path id="&lt;Path&gt;" class="s9" d="m646.9 397.6v126.3"/>
				<path id="&lt;Path&gt;" class="s8" d="m617.5 368v193.3"/>
				<path id="&lt;Path&gt;" class="s10" d="m617.5 440.9v75.1"/>
				<path id="&lt;Path&gt;" class="s8" d="m588 440.9v193.3"/>
				<path id="&lt;Path&gt;" class="s10" d="m588 523.4v65.4"/>
				<path id="&lt;Path&gt;" class="s8" d="m558.6 486.2v193.3"/>
				<path id="&lt;Path&gt;" class="s10" d="m558.6 582.9v51.3"/>
				<path id="&lt;Path&gt;" class="s8" d="m529.1 459.4v193.3"/>
				<path id="&lt;Path&gt;" class="s10" d="m529.1 544.9v62.5"/>
				<path id="&lt;Path&gt;" class="s8" d="m499.7 440.9v193.3"/>
				<path id="&lt;Path&gt;" class="s10" d="m499.7 510.7v78.1"/>
				<path id="&lt;Path&gt;" class="s8" d="m470.2 488.5v193.3"/>
				<path id="&lt;Path&gt;" class="s10" d="m470.2 516v120.4"/>
				<path id="&lt;Path&gt;" class="s8" d="m440.8 408.1v193.3"/>
				<path id="&lt;Path&gt;" class="s9" d="m440.8 453.4v116.8"/>
				<path id="&lt;Path&gt;" class="s8" d="m411.3 328.6v193.3"/>
				<path id="&lt;Path&gt;" class="s9" d="m411.3 373.9v118.2"/>
				<path id="&lt;Path&gt;" class="s8" d="m381.9 361.3v193.3"/>
				<path id="&lt;Path&gt;" class="s10" d="m381.9 394v115.2"/>
				<path id="&lt;Path&gt;" class="s8" d="m352.4 321.2v193.3"/>
				<path id="&lt;Path&gt;" class="s10" d="m352.4 366.5v32"/>
				<path id="&lt;Path&gt;" class="s8" d="m323 277.3v193.3"/>
				<path id="&lt;Path&gt;" class="s9" d="m323 322.7v51.3"/>
				<path id="&lt;Path&gt;" class="s8" d="m293.5 370.6v229.4"/>
				<path id="&lt;Path&gt;" class="s10" d="m293.5 394.4v160.2"/>
				<path id="&lt;Path&gt;" class="s8" d="m264.1 501.8v193.3"/>
				<path id="&lt;Path&gt;" class="s10" d="m264.1 452.8v87"/>
				<path id="&lt;Path&gt;" class="s8" d="m234.6 488.5v193.3"/>
				<path id="&lt;Path&gt;" class="s10" d="m234.6 523.4v113"/>
			</g>
			<g id="&lt;Group&gt;">
				<path id="&lt;Path&gt;" class="s14" d="m201 752.1l105.5 98.5 45.9-31.5 49 31.5 123.3-103.8 45.9 41.3 46.9-24 88.4 57.5 100.3-99.3 82.4 84.8 73.7-79.1"/>
				<g id="&lt;Group&gt;">
					<path id="&lt;Path&gt;" class="s3" d="m252 788.1c0 6.6-5.4 11.9-12 11.9-6.6 0-12-5.3-12-11.9 0-6.7 5.4-12 12-12 6.6 0 12 5.3 12 12z"/>
					<path id="&lt;Path&gt;" class="s7" d="m288 821.6c0 6.6-5.4 12-12 12-6.6 0-11.9-5.4-11.9-12 0-6.6 5.3-11.9 11.9-11.9 6.6 0 12 5.3 12 11.9z"/>
					<path id="&lt;Path&gt;" class="s3" d="m364.4 819.1c0 6.6-5.4 12-12 12-6.6 0-12-5.4-12-12 0-6.6 5.4-12 12-12 6.6 0 12 5.4 12 12z"/>
					<path id="&lt;Path&gt;" class="s7" d="m470.2 807.1c0 6.6-5.3 12-11.9 12-6.7 0-12-5.4-12-12 0-6.6 5.3-12 12-12 6.6 0 11.9 5.4 11.9 12z"/>
					<path id="&lt;Path&gt;" class="s3" d="m517.4 764.1c0 6.6-5.3 12-11.9 12-6.6 0-12-5.4-12-12 0-6.6 5.4-12 12-12 6.6 0 11.9 5.4 11.9 12z"/>
					<path id="&lt;Path&gt;" class="s7" d="m582.5 788.1c0 6.6-5.3 11.9-11.9 11.9-6.7 0-12-5.3-12-11.9 0-6.7 5.3-12 12-12 6.6 0 11.9 5.3 11.9 12z"/>
					<path id="&lt;Path&gt;" class="s7" d="m629.5 764.1c0 6.6-5.4 12-12 12-6.6 0-12-5.4-12-12 0-6.6 5.4-12 12-12 6.6 0 12 5.4 12 12z"/>
					<path id="&lt;Path&gt;" class="s3" d="m658.9 782.8c0 6.6-5.3 12-12 12-6.6 0-11.9-5.4-11.9-12 0-6.6 5.3-12 11.9-12 6.7 0 12 5.4 12 12z"/>
					<path id="&lt;Path&gt;" class="s3" d="m688.4 803c0 6.6-5.4 11.9-12 11.9-6.6 0-12-5.3-12-11.9 0-6.7 5.4-12 12-12 6.6 0 12 5.3 12 12z"/>
					<path id="&lt;Path&gt;" class="s7" d="m764.8 770.8c0 6.6-5.4 12-12 12-6.6 0-12-5.4-12-12 0-6.6 5.4-11.9 12-11.9 6.6 0 12 5.3 12 11.9z"/>
					<path id="&lt;Path&gt;" class="s3" d="m818.2 722.3c0 6.6-5.4 12-12 12-6.6 0-12-5.4-12-12 0-6.6 5.4-12 12-12 6.6 0 12 5.4 12 12z"/>
					<path id="&lt;Path&gt;" class="s7" d="m865.1 774.6c0 6.6-5.4 12-12 12-6.6 0-12-5.4-12-12 0-6.6 5.4-12 12-12 6.6 0 12 5.4 12 12z"/>
					<path id="&lt;Path&gt;" class="s3" d="m900.6 803c0 6.6-5.4 11.9-12 11.9-6.6 0-12-5.3-12-11.9 0-6.7 5.4-12 12-12 6.6 0 12 5.3 12 12z"/>
					<path id="&lt;Path&gt;" class="s7" d="m936 770.8c0 6.6-5.4 12-12 12-6.6 0-12-5.4-12-12 0-6.6 5.4-11.9 12-11.9 6.6 0 12 5.3 12 11.9z"/>
				</g>
			</g>
		</g>
		<g id="&lt;Group&gt;">
			<g id="&lt;Group&gt;">
				<path id="&lt;Path&gt;" class="s15" d="m1130.3 781.3c-10.6 0-21.6 0.2-32.8 0.6-7.4 0.3-14.8 0.7-22.8 1.1l-1.8 0.1-1.8 0.1q-5.7 0.3-11.3 0.7c-9.6 0.7-20.8 1.7-32 4.4-5.5 1.3-10.3 2.9-14.6 4.9-3.9 1.8-7.3 4-10 6.4 0.7-3.6 1.4-7.3 2.1-10.8 0-0.5 0-0.8-0.2-1.2-0.2-0.3-0.5-0.6-0.9-0.7q-0.2 0-0.4 0c-0.7 0-1.4 0.4-1.6 1.1q-0.4 2.7-0.9 5.4l-0.5 2.6-0.8 4c-3 16.2-6.1 32.9-8.4 49.7q0 0.2 0 0.4c-0.7 4.8-1.2 9.5-1.7 14.1-1.2 11.3-1.7 22.2-1.7 32.5 0 0.8 0.6 1.5 1.4 1.6 0.1 0.4 0.5 0.9 1.1 1 22.2 2.3 46.3 3.5 73.8 3.5 9.1 0 18.6-0.2 29-0.4 16.9-0.4 34.3-1.1 49.6-1.7h0.3c16.5-0.6 35-1.3 53.1-1.7 8.8-0.2 16.9-0.3 25-0.3 11.1 0 21.2 0.2 31.1 0.5 0.4 0 0.9-0.3 1.1-0.5q0.2-0.2 0.3-0.5c0.4-0.3 0.7-0.8 0.7-1.3-2.1-23.1-4.4-49.4-9.2-74.4-2.3-11.7-4.9-22.2-8.1-32.3-0.2-0.6-0.8-1.1-1.5-1.1q-0.2 0-0.4 0.1c-0.4 0.1-0.7 0.3-1 0.7q-0.3 0.6-0.1 1.2 0.6 1.8 1.1 3.7c-4.8-4.7-11.7-7.6-21.6-9.3-6.7-1.1-13.4-1.4-19.9-1.7q-3.5-0.1-7-0.3l0.4 0.1c-1.2-0.2-2.5-0.3-3.7-0.4h-0.5l-1.3-0.1q-2.1-0.2-4.3-0.3-5.7-0.4-11.3-0.6c-7.5-0.4-15-0.6-22.9-0.8q-6.6-0.1-13.1-0.1z"/>
				<path id="&lt;Compound Path&gt;" fill-rule="evenodd" class="s16" d="m1071.2 853.1q0.4 0 0.7 0.2 1.4 0.7 2.8 1.3c5.8 2.4 12 3.8 18.2 4.7 4.9 0.6 9.9 0.7 14.9 0.6 1.5 0 2.7 1.2 2.7 2.7 0 1.5-1.2 2.7-2.7 2.8-3.4 0-6.9-0.2-10.3-0.7-3-0.5-6.1-1.1-9-2-6.2-1.8-12.1-4.5-17.8-7.4-0.6-0.2-0.8-1.1-0.5-1.6 0.3-0.4 0.6-0.6 1-0.6zm3.4 1.5q0-0.1-0.1-0.1 0.1 0 0.1 0.1zm17.8 4.6q0.1 0 0.3 0-0.2 0-0.3 0z"/>
				<path id="&lt;Path&gt;" class="s16" d="m1105.9 862.4c0.2 5.7-0.1 11.3-0.4 16.9-0.2 5.9-0.4 11.9 0.5 17.7q0.2 0.8 0.8 1.3c0.5 0.6 1.3 0.9 2.1 0.9 1.5 0 3.1-1.4 2.9-3-0.2-2.7-0.4-5.4-0.5-8.1-0.1-2.9-0.1-5.9-0.1-8.8 0.1-5.6 0.2-11.2 0-16.9-0.1-1.4-1.2-2.6-2.7-2.6-1.3 0-2.6 1.2-2.6 2.6z"/>
				<path id="&lt;Path&gt;" class="s15" d="m1228.3 290.3c-0.4 0-0.8 0.2-1 0.5-0.3 0.2-0.5 0.6-0.5 1 0 0.4 0.2 0.8 0.5 1.1q0.2 0.2 0.6 0.4-0.9 0.2-1.8 0.5c-3.3 1.3-6.5 3.1-9.6 5.4-5.3 4.2-10.1 9.9-14.4 17.5-3.7 6.5-6.7 13.8-9.4 22.4-2.1 7.2-3.7 14.5-4.7 21.8-0.6 4-0.8 7.1-0.8 10 0 3.9 0.4 7.8 1.3 11.8 0.8 3.4 2 6.9 3.8 10.6 1.5 3.3 3.6 6.7 6.2 10.3 0.2 0.3 0.5 0.6 0.9 0.7q0.1 0 0.2 0c0.3 0.6 0.9 0.9 1.4 0.9q0.4 0 0.8-0.2c9-5.9 17.3-13.5 24.4-22.4 5.2-6.5 9.7-13.4 13.2-20.5 2.9-5.9 5.4-12 7.5-18.3 2.4-7.2 3.9-13.9 4.6-20.3 0.3-3.3 0.3-6.5 0.1-9.5-0.3-3.3-0.9-6.2-1.9-8.8-1-2.7-2.5-5.2-4.4-7.3-1.8-2.1-4.2-3.8-7-5.1-0.2-0.6-0.8-1-1.4-1q-0.5 0-1 0.1c-2.3-0.8-4.7-1.3-7.6-1.6z"/>
				<path id="&lt;Path&gt;" class="s15" d="m1060.2 270.7c-0.7 0-1.3 0.5-1.5 1.1q-0.1 0.5 0 1-1.1 0.2-2.2 0.5-2.6 0.9-5 2.4c-2.8 1.8-5.4 4.4-7.6 7.7-1.9 2.9-3.4 6.2-4.8 10.4-1.1 3.4-1.8 7.1-2.4 11.4-0.4 3.6-0.6 7.3-0.4 10.9 0.1 3 0.5 6.1 1.3 9.4 0.7 3.5 1.8 7 3 10.4 1.5 3.8 3 7 4.7 9.7 2 3.2 4 5.3 6.2 6.7 1.1 0.7 2.3 1.2 3.5 1.4q0.6 0.1 1.2 0.1 1.4 0 2.7-0.5c3.5-1.2 5.9-4.4 7.6-7.1 1.6-2.4 2.9-5.1 4.3-8.6 2-5.3 3.6-11.1 4.9-17.8 1.5-7.8 2.1-14.8 1.9-21.4-0.1-3.4-0.5-6.7-1.1-9.7-0.7-3-1.7-5.8-3-8.2-1.4-2.6-3.1-4.7-5.3-6.3-2.1-1.7-4.8-2.9-7.6-3.4q-0.2-0.1-0.4-0.1z"/>
				<path id="&lt;Path&gt;" class="s17" d="m1046.3 326.6c-1.6 0-3.3 0.3-4.8 1-2.2 0.9-4.1 2.5-6.1 4.9-1.6 1.9-3 4.3-4.4 7.3-1.1 2.7-2.1 5.7-2.8 9.2-1.5 6.8-1.5 13.5-0.2 19.5 1.5 7 5 12.5 9.8 15.7q0.4 0.2 0.9 0.2c0.5 0 0.9-0.2 1.2-0.6 0.2-0.3 0.3-0.7 0.3-1 2.5-1.6 5-3.6 7.7-6.3 3.1-3 5.8-6.4 8.1-10.1 2.5-3.9 4.4-7.9 5.5-11.8 1.3-4.3 1.6-8.5 1.1-12.3-0.7-4.1-2.6-7.9-5.5-10.7-1.4-1.3-2.7-2.3-4-3-0.8-0.5-1.5-0.8-2.1-1.1-0.7-0.2-1.4-0.4-2.2-0.6q-1.2-0.3-2.5-0.3z"/>
				<path id="&lt;Compound Path&gt;" fill-rule="evenodd" class="s18" d="m1041.4 332.4q0 0 0 0c1.9 0.3 3.8 0.9 5.3 2.1 0.8 0.6 1.5 1.2 2.1 2q0.9 1.1 1.6 2.3c1 1.8 1.7 3.7 2.3 5.7 0.5 1.7 0.7 3.5 1 5.3q0.1 0.5-0.1 1-0.1 0.4-0.5 0.8c-0.3 0.3-0.8 0.5-1.3 0.5-0.5 0-1-0.2-1.3-0.6-0.4-0.4-0.5-0.8-0.5-1.3q-0.1-1.3-0.2-2.6 0 0.2 0.1 0.4c-0.3-2.6-0.8-5.3-1.7-7.8q-0.6-1.6-1.6-3 0.1 0 0.1 0 0 0-0.1-0.1 0 0 0 0 0 0-0.1-0.1 0.1 0.1 0.1 0.1-0.6-0.8-1.4-1.5-0.8-0.6-1.6-1-0.9-0.4-1.9-0.6 0 0 0 0-0.2 0-0.3 0c-0.4-0.1-0.8-0.4-0.8-0.8 0-0.4 0.4-0.8 0.8-0.8zm0.3 1.6q0 0 0 0 0 0 0 0zm0.2 0h-0.1q0 0 0.1 0zm6.3 6.2q0-0.1-0.1-0.3 0.1 0.2 0.1 0.3zm-1.6-3q0 0 0-0.1 0 0 0 0 0 0 0 0 0 0 0 0.1z"/>
				<path id="&lt;Path&gt;" class="s19" d="m1077.2 272.3q-2.2 0-4.3 0.3c-1.3 0.3-2.5 0.7-3.8 1.3q-0.1-0.1-0.2-0.1-0.2 0-0.4 0.1c-0.5 0.1-0.7 0.5-0.9 0.7-3 4.5-5.4 9.5-7.5 15.4-2.1 5.9-3.4 11.9-4.3 16.5-0.7 3.2-1.3 6.4-1.8 9.6q-0.7 3.6-1.4 7.2c-1 5.3-2.6 10.9-4.9 17.5q-1.5 4.3-3 8.5c-3 8-6 16.2-7.8 24.7-1.9 9.3-2.2 18.3-1.1 26.6 1.3 8.5 4.1 16.2 8.4 23 2.1 3.4 4.7 6.7 7.8 9.7 2.9 2.9 6.3 5.6 10.2 8 3.7 2.3 8 4.4 12.7 6.2 5.2 2 10.8 3.5 16.5 4.4q1.5 0.2 2.9 0.4c0.1 2.7 0 5.6-0.4 8.6l0.1-0.4c-0.7 5-2 9.8-3.8 14.3q0 0 0 0c-1.4 3.2-3 6-4.8 8.4q-2.1 2.6-4.4 4.4-1.5 1.1-3.1 2c-0.6 0.2-0.9 0.9-0.8 1.5-0.4 0.4-0.5 0.9-0.3 1.4 1.5 4.4 2.8 9 4 13.5 1.4 5.1 2.9 10.5 4.8 15.6 1.9 5.3 4.2 9.7 6.8 13.5 1.5 2.1 3.2 4.1 5 5.9 1.9 1.9 4.1 3.4 6.5 4.4 2 0.8 4.2 1.2 6.4 1.2 2.3 0 4.5-0.5 6.9-1.3 5-1.8 9.4-5 12.7-7.6 4-3.2 7.8-7 11.1-10.3 4.2-4.2 8.5-8.7 13-13.6 7.5-8.1 14.7-16.4 21.3-24.6q0 0 0 0 0.7 0 1.1-0.4c0.6-0.6 0.6-1.5 0-2.1-1.5-1.7-3.1-3.4-4.5-5.2-2.7-3.6-4.9-7.5-6.6-11.4-1.5-3.7-2.5-7.5-3.1-11.4v0.1c-0.5-4.2-0.5-8.4 0-12.7 0.7-5.2 2.2-10.7 4.4-16.1q0.5-1.2 1-2.4c2.6 0.4 5.3 0.6 7.8 0.6q2.6 0 5.1-0.2c5.8-0.6 11.4-2.3 16.6-4.9 4.3-2.2 8.2-5.1 11.2-8.4 3.2-3.5 5.5-7.6 6.7-11.9 0.5-2.2 0.9-4.5 0.9-6.9 0-2.4-0.3-4.7-0.9-6.9-1.1-4.1-3.5-7.9-6.8-10.6-3-2.6-6.9-4.3-11-4.9-1.1-0.2-2.2-0.3-3.3-0.3q-1.5 0-3.1 0.2-0.7 0.1-1.4 0.2c5.6-9.1 9.8-19.1 12.6-29.8 1.5-5.6 2.5-11.3 3.1-17.1 0.2-2.2 0.4-5 0.3-7.8-0.1-2.1-0.4-4.2-0.9-6.3-0.8-3.6-2.5-7.3-4.8-10.5-2.2-2.9-4.9-5.6-8.4-8.2-2.9-2.1-6.3-4.1-10.4-6-3.5-1.6-7.3-3.1-11.7-4.5-3.5-1.2-7.2-2.2-11.7-3.4-2.9-0.7-5.5-1.3-8-1.8-2.9-0.6-5.9-1.1-9.3-1.5-11.2-1.6-22.7-2-33.8-2.4l-3.8-0.2q-4-0.1-7.9-0.3h-0.2q-1.9-0.1-3.8-0.2-1.7-0.1-3.4-0.4c-0.1 0-0.2 0-0.3 0l0.2 0.1-1.2-0.2c-2.7-0.4-5.6-0.8-8.4-0.8q-0.2 0-0.4 0z"/>
				<path id="&lt;Path&gt;" class="s17" d="m1072.8 272.6c-1.2 0.2-2.4 0.6-3.7 1.2q-0.1 0-0.3 0-0.2 0-0.3 0.1c-0.5 0.1-0.7 0.4-0.9 0.7-3 4.5-5.5 9.5-7.5 15.4q-0.2 0.6-0.4 1.2 4 4.2 8.5 8-0.1 0-0.1-0.1c3.8 3.3 7.9 6.2 12.2 8.9q6.3 4 13.1 7.1-0.1 0-0.1 0 7.7 3.5 15.9 6 8.3 2.5 16.8 4-0.1-0.1-0.2-0.1c6.2 1.1 12.4 1.7 18.6 1.9q9.3 0.3 18.6-0.7 0 0-0.1 0.1c5.8-0.6 11.6-1.6 17.3-2.9q8.6-2 16.8-5h-0.2q4.2-1.6 8.3-3.4-0.2-1.2-0.5-2.4c-0.9-3.7-2.6-7.3-4.9-10.5-2.1-2.9-4.9-5.6-8.3-8.2-3-2.2-6.4-4.1-10.5-6-3.5-1.7-7.3-3.1-11.7-4.6-3.5-1.1-7.2-2.2-11.7-3.3-2.9-0.8-5.5-1.4-8-1.9-2.8-0.5-5.8-1-9.3-1.5-11.2-1.5-22.7-1.9-33.9-2.4l-3.7-0.1q-4-0.2-7.9-0.3l-0.2-0.1h-1.3q-1.3-0.1-2.5-0.2c-1.2 0-2.3-0.2-3.4-0.3h-0.3l0.2 0.1-1.2-0.3h-0.2c-2.7-0.4-5.5-0.7-8.2-0.8q-0.2 0-0.4 0-2.2 0-4.4 0.4z"/>
				<path id="&lt;Path&gt;" class="s20" d="m1135.5 447.8c-5.7 2.1-11.6 3.4-17.6 4.1q-4.6 0.5-9.3 0.6-4.7 0.1-9.3-0.1-0.3 0-0.5 0-1.4 0-2.7-0.1-0.5 0-1 0-1.1-0.1-2.3-0.1 0.8 0.1 1.5 0.2c0.1 2.7-0.1 5.6-0.5 8.5l0.2-0.4q-0.6 3.8-1.5 7.2c3.6 0.5 7.3 0.3 10.9-0.1 5.6-0.8 11-2.4 16.2-4.5q-0.1 0-0.1 0c4.8-2 9.3-4.6 13.5-7.7q0 0 0-0.1 0 0 0.1 0 0 0 0 0c2.6-2.1 5.1-4.4 7.2-7.1q0 0 0-0.1 0 0 0 0 0 0 0 0 0 0 0 0 0 0 0 0 1.3-1.7 2.3-3.5c-2.3 1.2-4.7 2.2-7.1 3.2z"/>
				<path id="&lt;Path&gt;" class="s20" d="m1090.9 451.9q0 0 0-0.1-0.1 0-0.1 0 0 0-0.1 0-0.1 0-0.3 0 0.3 0 0.5 0.1z"/>
				<path id="&lt;Path&gt;" class="s20" d="m1133 455.3q0 0.1 0 0.1 0 0 0 0 0 0 0-0.1z"/>
				<path id="&lt;Compound Path&gt;" fill-rule="evenodd" class="s20" d="m1188 381.2c-0.3 0.3-0.6 0.8-0.5 1.2q0.1 2.1 0 4.3-0.2 2.1-0.6 4.2c-0.7 3.4-1.8 6.7-3.3 9.8q0-0.2 0.1-0.3c-1.4 2.8-3.1 5.4-5.1 7.7q-2 2.3-4.4 4.2c-0.4 0.3-0.4 0.9-0.1 1.3 0.3 0.3 0.9 0.3 1.2 0 2.4-1.8 4.5-3.9 6.4-6.2 2-2.3 3.8-4.8 5.2-7.5 1.4-2.7 2.5-5.5 3.2-8.5 0.7-3.1 0.9-6.2 0.6-9.3q-0.1-0.4-0.4-0.7c-0.3-0.3-0.7-0.5-1.1-0.5q-0.1-0.1-0.1-0.1c-0.4 0-0.8 0.2-1.1 0.4zm-1 9.4q0 0.1 0 0.1 0 0 0-0.1z"/>
				<path id="&lt;Compound Path&gt;" fill-rule="evenodd" class="s20" d="m1194.3 380q0.6 0 1.1 0.1c2.6 0.1 5.2 0.6 7.6 1.6 2.2 0.8 4.4 2.2 5.9 4 0.8 0.9 1.4 1.8 1.8 2.9 0.5 1.1 0.8 2.3 0.9 3.5 0 0.3-0.3 0.6-0.6 0.6-0.3 0-0.5-0.2-0.5-0.6q-0.1-0.4-0.2-0.9l0.1 0.2q-0.2-1.1-0.7-2.2-0.4-0.9-1.1-1.7-0.8-1-1.8-1.8 0 0 0 0 0 0 0 0 0 0 0 0 0 0 0 0-1.6-1.2-3.5-1.9 0.1 0 0.2 0.1c-1.7-0.7-3.6-1.1-5.4-1.3-2.2-0.2-4.4-0.1-6.6 0.2q0 0 0 0-0.1 0-0.2 0 0 0 0 0 0 0-0.1 0 0.1 0 0.1 0-0.6 0.1-1.1 0.3c-0.4 0-0.8 0.1-1.1 0.2-0.6 0.2-1.3-0.2-1.5-0.8-0.1-0.3 0-0.6 0.1-0.9 0.2-0.2 0.4-0.4 0.7-0.5q0.1 0 0.1 0 0.8-0.4 1.5-0.6 0.9-0.2 1.7-0.3 1.3-0.2 2.6-0.2zm12.5 5.7q0-0.1-0.1-0.1 0.1 0 0.1 0.1 0 0 0 0zm1.8 1.7q0 0-0.1-0.1 0.1 0.1 0.1 0.1zm-17.3-4.6q0.1 0 0.2 0-0.1 0-0.2 0 0 0 0 0 0 0 0 0zm15.5 2.9q0.1 0 0.1 0 0 0-0.1 0z"/>
				<path id="&lt;Path&gt;" class="s19" d="m748.3 411.7q-1.3 0-2.4 0.5c-1.4 0.5-2.6 1.7-3.3 3.4-1 2.1-1 4.6-0.9 6.5 0.1 2.3 0.6 4.8 1.4 7.6 0.9 2.7 2.1 5.5 3.9 8.6 1.4 2.6 3.2 5.3 5.4 8.1q1.7 2.2 3.6 4.4c-3.7 1.6-7 3.7-10 6.2-4 3.3-6.6 6.9-7.8 10.5q-1 3.2-0.6 6.4c0.2 2.1 1.1 4.3 2.4 6.4 1 1.6 2.5 3 4.1 3.9q2.1 1.1 5 1.2c0.6 0 1-0.1 1.4-0.1-0.4 1.4-0.6 2.8-0.4 4.1 0.2 1.7 1 3.5 2.1 4.8 2.2 2.7 5.8 4.4 9.8 4.7q0.6 0 1.2 0.1c1.9 4.4 4.7 8.5 8.2 12 3.7 3.7 8.2 6.4 12.9 7.8 2.3 0.7 4.8 1.1 7.5 1.1q2.4 0 4.9-0.4c4.1-0.7 8.2-2.1 12.2-4.4 3.2-1.7 6.2-4 8.8-6.8 2.6-2.7 4.7-5.8 6.2-9.1 1.4-3.3 2.1-6.9 2-10.5q0-2.8-0.7-5.9c0.8-0.5 0.9-1.4 0.5-2.1l-0.5-0.8q-1.2-2.1-2.4-4.1-0.3-0.6-0.6-1.2-0.2-0.2-0.3-0.3c-1.8-2.9-3.5-5.5-5.2-8-3.3-4.8-6.9-9.2-10.5-13-4.2-4.2-8.7-7.9-13.5-11.6-4.8-3.7-9.8-7.3-14.8-10.9l-2.4-1.7c-4.2-3-8.5-6.1-12.6-9.2q-1.8-1.3-3.5-2.6l-0.9-0.7q-1.2-1-2.4-1.9c-1.9-1.3-3.7-2.1-5.5-2.6q-1.1-0.4-2.3-0.4z"/>
				<path id="&lt;Compound Path&gt;" fill-rule="evenodd" class="s20" d="m778.7 440.3q2.5 0 5.1 0.3c0.4 0.1 0.8 0.4 1 0.7 0.2 0.4 0.3 0.8 0.2 1.2-0.1 0.4-0.4 0.8-0.7 1q-0.4 0.2-0.8 0.2c-3.3-0.3-6.6-0.2-9.9 0.3l0.5-0.1c-3 0.5-5.9 1.3-8.7 2.4-1.8 0.9-3.6 1.9-5.2 3.2-1.2 0.9-2.3 2-3.2 3.2q-0.7 1-1.2 2.2-0.4 1-0.5 2 0 0.8 0.1 1.6 0.1 0.9 0.5 1.8 0.5 1.1 1.3 2.1c0.8 1 1.8 1.9 2.9 2.7q-0.1 0-0.1-0.1c1.7 1.2 3.5 2.2 5.4 2.9l-0.2-0.1q3.8 1.5 8 1.9-0.1 0-0.3 0 3.4 0.3 6.6-0.2 0 0.1 0 0.1 0 0 0-0.1 0.1 0 0.1 0 0 0 0 0 0 0 0.1 0-0.1 0-0.2 0 0.1 0 0.1 0 0 0 0 0 0.1 0 0.1 0 0 0 0 0c1.7-0.3 3.3-0.7 4.9-1.4q1.8-0.8 3.4-2 0 0-0.1 0 0.2-0.1 0.4-0.3c0.3-0.2 0.8-0.3 1.1 0 0.3 0.3 0.3 0.8 0 1.1-2.3 2-5.1 3.3-8 3.9-3.1 0.7-6.2 0.8-9.3 0.5-3.1-0.3-6.2-1.1-9.1-2.3-1.3-0.6-2.6-1.2-3.8-2-1.1-0.8-2.1-1.6-3-2.5-1-0.9-1.9-2-2.5-3.2-0.5-1.3-0.9-2.6-1-3.9-0.1-3.2 1.5-6.1 3.6-8.4q1.1-1.2 2.3-2.2c0.9-0.8 1.9-1.5 2.9-2.1 2.2-1.3 4.6-2.3 7.1-3 3.3-1 6.7-1.4 10.1-1.4zm9.3 25.8q0 0 0 0 0 0 0 0zm-28.1-1.1q0 0 0.1 0-0.1 0-0.1 0zm0.3-15.6q0.1 0 0.2-0.1-0.1 0.1-0.2 0.1zm-4.5 5.7q0-0.1 0.1-0.2-0.1 0.1-0.1 0.2zm0.2 5.2q0-0.1-0.1-0.1 0.1 0 0.1 0.1zm28.7 7.8q0.1 0 0.1 0 0 0-0.1 0zm-28.7-7.8q0 0.1 0.1 0.2-0.1-0.1-0.1-0.2z"/>
				<path id="&lt;Compound Path&gt;" fill-rule="evenodd" class="s20" d="m788.4 466.1q0.2 0 0.3 0c0.5 0.2 0.7 0.7 0.5 1.2q-0.1 0.3-0.2 0.7 0 0 0 0 0 0 0 0.1 0 0 0 0.1 0 0 0-0.1c-0.6 2.8-0.7 5.6-0.7 8.4q0.2 3.5 1.2 6.8 0.5 1.4 1.1 2.7 0.7 1.4 1.4 2.7c0.4 0.7 0 1.7-0.8 2.1-0.3 0.1-0.8 0.1-1.1 0q-0.4-0.1-0.7-0.4c-2.3-3.5-3.4-7.6-3.5-11.7q-0.2-3.2 0.3-6.3c0.4-2 0.9-3.9 1.4-5.8 0.1-0.3 0.4-0.5 0.8-0.5zm1.1 17.2q0-0.1 0-0.2 0 0.1 0 0.2zm-0.5-15.3q0 0.1 0 0.1 0 0 0 0 0-0.1 0-0.1zm-0.7 8.2q0 0.1 0 0.1 0 0 0-0.1z"/>
				<path id="&lt;Compound Path&gt;" fill-rule="evenodd" class="s20" d="m764.9 469.6q-0.8 1.5-1.7 3c-1.6 2.6-3.4 5.1-5.6 7.2q0.1 0 0.1-0.1-2 2-4.4 3.4-1.2 0.7-2.6 1.2c-0.3 0.2-0.5 0.6-0.3 0.9 0.1 0.3 0.5 0.4 0.8 0.3 1.7-0.6 3.2-1.4 4.7-2.4 1.6-1 3-2.3 4.4-3.6q2.1-2 3.8-4.4c1-1.4 2-3 2.6-4.7 0.2-0.5 0-1.1-0.5-1.3q-0.2-0.1-0.4-0.1c-0.4 0-0.7 0.2-0.9 0.6zm-7.3 10.3q0-0.1 0-0.1 0 0 0 0.1z"/>
				<path id="&lt;Compound Path&gt;" fill-rule="evenodd" class="s20" d="m780.4 469.6q0.2 0 0.3 0.1c0.2 0.1 0.4 0.2 0.5 0.4 0.8 2.8 0.6 5.9-0.1 8.7-0.8 3.1-2.1 6-3.8 8.7-1.7 2.7-3.7 5.3-6.1 7.4-2.1 1.9-4.4 3.6-7.1 4.5-0.4 0.2-0.7 0-0.9-0.3-0.1-0.4 0-0.8 0.4-0.9q1.3-0.5 2.5-1.1 0 0-0.1 0 0.1 0 0.1-0.1h0.1q0 0 0 0c1.7-1 3.3-2.3 4.7-3.7q0 0.1-0.1 0.1c2.1-2 3.9-4.3 5.4-6.8l-0.1 0.2c1.4-2.4 2.5-4.8 3.3-7.4q-0.1 0.1-0.1 0.2c0.5-1.7 0.8-3.4 0.8-5.1q0-1.7-0.4-3.3 0-0.2-0.1-0.4c-0.1-0.3-0.1-0.5 0-0.7q0.1-0.3 0.5-0.4 0.1-0.1 0.3-0.1zm-14.2 27.4q-0.1 0-0.1 0 0 0 0 0.1 0-0.1 0.1-0.1z"/>
				<path id="&lt;Path&gt;" class="s21" d="m814.6 476.6q-4.9 3.7-9.4 7.9l0.1-0.1c-7.7 7.3-14.4 15.6-20 24.7l0.1-0.2q-3.1 5-5.6 10.2c22.7 31.9 42.5 56.8 62 78 11.7 12.8 23.8 24.7 36 35.5 6.6 5.8 13.2 11.3 19.7 16.4 6.3 4.9 13 9.3 19.9 13 13 7.2 26.8 11.9 41 14 5.3 0.8 10.8 1.2 16.2 1.2 8.4 0 16.8-1 25.1-2.8 2.5-0.5 4.9-1.2 7.4-1.9l-0.9 9.8c-1.7 18.7-3.5 38.7-5.6 57.9q-0.8 7.2-1.7 14.3l-0.6 4.9-0.2 1.7q-0.5 3.9-1 7.7-0.6 4.9-1.1 9.7v0.3c-0.8 6.3-1.5 12.8-2.3 19.2-0.1 0.4 0.1 0.9 0.4 1.1q0.2 0.2 0.5 0.4c7.5 8.1 16.8 15.1 27.5 20.9 9.8 5.2 20.6 9.4 33.2 12.7 10.8 2.9 22.4 4.9 35.4 6.3 10.3 1 21.3 1.6 32.7 1.6h1.8c12.4-0.1 24.8-1.1 36.6-3 13.2-2.2 25.5-5.6 36.5-10.2 8.5-3.4 16.2-7.5 23-12.3 3.3-2.3 6.7-5 10.1-8.1 3.3-3 7.1-6.7 9.9-11.1q0.1-0.2 0.2-0.5c0.2-0.2 0.4-0.6 0.4-1-1-9.8-1.9-19.9-2.5-29.8-0.5-8.9-0.9-18.5-1.2-30.2-0.3-9.9-0.5-19.9-0.7-29.7v-1.7c-0.2-9.8-0.4-19.3-0.6-29-0.7-24.3-1.8-42.9-3.6-60.3-1-8.8-2.2-17.7-3.6-27.3-1.5-9.3-3.1-17.4-4.8-25-4-16.9-9.2-30.9-15.9-42.6-2-3.5-4-6.5-6.1-9.3-2.1-2.7-4.7-5.4-7.8-8.2-3.7-3.2-7.6-6.1-11.5-8.9-2-1.5-4-2.9-6-4.4q-1.4-1.1-2.7-2.2c-0.3-0.3-0.6-0.5-1.1-0.5-0.4 0-0.8 0.2-1.1 0.5-0.3 0.3-0.4 0.7-0.4 1.1 0 0.3 0.1 0.8 0.4 1.1q0.8 0.6 1.6 1.2c-0.4-0.1-0.8-0.1-1.3-0.1q-0.2 0-0.3 0-1.3 0-2.3 0.4c-0.9 0.3-1.7 0.7-2.5 1.3-0.8 0.6-1.5 1.4-2 2-0.6 0.8-1.3 1.8-2.2 3-1.1 1.7-2.2 3.6-3.5 6-1.3 2.3-2.5 4.7-3.6 7-3 5.9-6 12-10.3 17.3-2 2.4-4.2 4.5-6.5 6.1-2.6 1.8-5.3 3.3-8.4 4.4-3.3 1.2-6.8 2-10.3 2.4l-0.2 0.1c-1.8 0.1-3.2 0.2-4.5 0.2q-3 0-6-0.4c-3.1-0.5-6.1-1.4-8.8-2.6-2.2-1-4.4-2.3-6.5-4-2.1-1.8-4.1-3.9-5.9-6.4-3.6-5.2-6-11-8.4-16.7-2-4.8-4-9.7-6.8-14.2q0.4-0.1 0.6-0.4c0.3-0.3 0.4-0.7 0.3-1.1l0.4-0.3c0.7-0.4 1-1.4 0.5-2.1-0.2-0.5-0.8-0.7-1.3-0.7q-0.4 0-0.8 0.2-1.3 0.7-2.6 1.5-0.2 0-0.5 0.1-0.3 0.2-0.5 0.4l-0.8 0.4q-3.3 0.9-6.6 2.2c-3.2 1.2-6.5 2.8-10.2 4.8-6.1 3.3-12.1 7.4-18.3 12.6-3.4 2.8-6.7 5.7-10 8.6-6.1 5.2-12.3 10.6-18.7 15.5-6.2 4.7-11.9 8.4-17.5 11.3-6.1 3.2-12.2 5.5-18.3 6.9 0 0-0.1 0.1-0.1 0.1 0 0-0.1 0-0.1 0-4.9 1-9.8 1.5-14.7 1.5q-0.8 0-1.5 0c-6.8-0.2-13.8-1.4-20.9-3.5h-0.2c-9.4-2.9-18.8-7.3-28.9-13.4h0.1c-9.4-5.8-18.9-13-30.1-22.5-7.9-6.7-15.6-13.8-23-20.6l-5.2-4.7c-7.7-7.1-15.3-14-23.4-20.4q-3.7 2.3-7.1 4.8z"/>
				<path id="&lt;Path&gt;" class="s22" d="m1038.4 562.7c-5.8 13.3-11 26.8-15.6 40.6q-3.4 10.4-6.3 21c-2 7-3.7 14-5.3 21.1q-2.3 10.6-4 21.3c-1.1 7.5-1.9 15-2.7 22.4-1.5 15.4-2.7 30.7-4.1 46.1-0.9 10.6-2 21.2-3.3 31.7q-1 7.8-2.3 15.6-0.7 3.8-1.3 7.6-0.4 2-0.7 4-0.2 0.9-0.3 1.8 0 0.5 0 0.9 0 0.2 0 0.4 1 1.1 2 2.3c0.4 0 0.7-0.2 1-0.6 0.2-0.3 0.5-0.7 0.6-1.1 0.3-0.4 0.4-0.9 0.5-1.4q0.3-1.3 0.5-2.7c0.3-1.9 0.5-3.9 0.7-5.8q0.3-2.7 0.7-5.4c0.4-2 0.7-4 1-5.9 1.2-7.7 2.1-15.3 3-23 1.7-15.3 2.9-30.7 4.1-46q0.9-11.3 2-22.6c0.6-7.3 1.4-14.5 2.4-21.7 1.9-14.1 4.8-28.1 8.4-41.9q-0.1 0.1-0.1 0.2c2.6-10 5.6-20 9-29.8 3.3-9.7 6.9-19.3 11-28.7 0.1-0.2 0-0.5-0.3-0.6q-0.1-0.1-0.2-0.1c-0.2 0-0.4 0.1-0.4 0.3z"/>
				<path id="&lt;Path&gt;" class="s15" d="m1115.4 222.3q-2.4 0-4.7 0c-6 0.2-11.2 0.6-16.1 1.4-8.2 1.2-16 3.5-22.9 6.7-7.8 3.7-13.6 8.4-17.3 14-1.9 2.9-3.1 6.2-3.6 9.7-0.5 3.7-0.2 7.7 1.1 11.8 0.6 2 1.5 4.1 2.7 6.5 0.9 1.9 2 3.8 3.3 5.8 2.4 3.5 5.2 6.9 8.5 10.1 5.9 5.7 13.4 10.7 22.2 15 7.7 3.7 16.2 6.7 26 9.1 8.1 2 16.8 3.5 25.9 4.4 7.4 0.8 13.4 1.2 19 1.2 4.4 0 8.4-0.3 12.3-0.7 7.5-0.9 14.2-2.8 19.8-5.6-4.2 9.7-7.1 19.7-8.5 29.8-0.9 6-1.2 11.9-1 17.5 0.1 2.2 0.2 5 0.9 7.6q0.8 3.1 2.4 5c0.4 0.6 1 1 1.7 1.4q0.9 0.5 2.3 0.6 0.1 0 0.3 0 0.8 0 1.9-0.3 1.2-0.4 2.5-1.3c2.1-1.5 3.8-3.5 5.2-5.2 1.7-2.2 3.3-4.5 4.9-7.1 4.5-7 8.1-14.7 11.5-22.1q2-4.3 4-8.4c1.3-2.6 2.5-5 3.8-7.3 1.4-2.6 2.9-5.2 4.4-7.7 3.1-5.2 5.8-9.8 7.9-14.8 0.3-0.2 0.6-0.6 0.7-1 1.5-6 1.8-11.7 1.1-17.1q-0.5-3.2-1.5-6.3c-0.6-1.8-1.4-3.7-2.4-5.8-1.7-3.5-4.1-6.8-7.2-10.2-2.7-2.9-5.8-5.7-9.5-8.4-6.4-4.7-13.9-8.8-23-12.5-8.6-3.6-18-6.6-28.7-9.3-12.1-3.1-24.3-5.1-36.3-6-4.6-0.3-9.2-0.5-13.6-0.5z"/>
				<path id="&lt;Path&gt;" class="s16" d="m1229.1 294.8q-1.8 1.6-3.7 3.1c-1.3 0.9-2.7 1.8-4.2 2.7l0.2-0.1q-1.4 0.8-2.9 1.6-1.6 0.8-3.3 1.5-3.1 1.4-6.3 2.3c-3.5 0.9-7 1.4-10.6 1.5-0.4 0.1-0.8 0.4-1.1 0.7-0.2 0.3-0.3 0.8-0.3 1.2 0.1 0.4 0.3 0.8 0.6 1 0.4 0.3 0.8 0.4 1.2 0.3 2.9-0.2 5.6-0.8 8.3-1.7 2.9-0.8 5.7-1.9 8.4-3.2q1.8-0.9 3.7-2 2-1.2 3.9-2.6c2.3-1.7 4.6-3.6 6.7-5.6 0.2-0.1 0.3-0.4 0.1-0.7-0.1-0.1-0.3-0.2-0.4-0.2q-0.2 0-0.3 0.2z"/>
				<path id="&lt;Compound Path&gt;" fill-rule="evenodd" class="s16" d="m1073.6 270.1q0.1 0 0.3 0.1c0.6 0 1.1 0.4 1.5 0.9q0 0 0 0c1.4 1.1 2.6 2.4 3.9 3.6q2 1.8 4.2 3.5 4.3 3.4 9.1 6.1c8.5 4.8 17.6 8.2 27 10.8 7.7 2 15.5 3.4 23.3 4.4 8.1 1 16.2 1.6 24.3 1.5h-0.5c4.4 0 8.8-0.2 13.2-0.6q6.4-0.7 12.6-2.4 0 0 0 0 0 0 0 0 0 0 0 0 0 0 0 0 0 0 0 0 0 0 0 0 0 0 0 0 0 0 0 0 0.1-0.1 0.2-0.1 0 0 0 0c2-0.6 4-1.2 5.9-2 1.9-0.8 3.7-1.6 5.5-2.7 0.3-0.1 0.6 0.1 0.7 0.3 0.2 0.4 0 0.6-0.3 0.8-3 1.8-6.2 3.4-9.5 4.7-3.3 1.2-6.7 2.2-10.2 3.1q-4 0.9-8.1 1.5c-2.7 0.3-5.4 0.6-8.2 0.8-5.4 0.3-10.8 0.3-16.2 0.1-9.7-0.4-19.3-1.4-28.7-3.3-9.9-2-19.6-4.9-28.6-9.4-4.5-2.2-8.8-4.7-12.8-7.7-1.9-1.4-3.8-2.9-5.5-4.6-1-0.9-1.9-1.9-2.8-2.9q-0.6-0.6-1.2-1.3c-0.3-0.4-0.6-0.9-1-1.4-0.8-0.9-0.6-2.5 0.4-3.3 0.4-0.3 1-0.5 1.5-0.5zm118.9 27.9q0 0 0 0 0 0 0 0 0 0 0 0zm0 0l0.2-0.1q-0.1 0-0.2 0.1 0 0 0 0 0 0 0 0z"/>
				<path id="&lt;Compound Path&gt;" fill-rule="evenodd" class="s16" d="m1101 271.2q0.5 0 0.9 0.3 2 1.6 4.1 3.1 2 1.3 4.1 2.5 2.3 1.3 4.6 2.4 2.3 1.2 4.7 2.2 4.6 1.8 9.3 3.1 0 0 0 0 0 0 0 0 0.1 0 0.2 0.1 0-0.1-0.1-0.1c3.7 1 7.3 1.7 11 2.1 0.3 0.1 0.5 0.3 0.5 0.6-0.1 0.3-0.3 0.5-0.6 0.4-3.5-0.3-7-0.9-10.5-1.6q-5.1-1.2-10.1-2.9-2.7-0.9-5.2-1.9-2.4-1-4.7-2.2-4.7-2.4-9.2-5.4c-0.6-0.4-0.7-1.5-0.2-2.1 0.2-0.4 0.7-0.6 1.2-0.6zm27.8 13.6q0 0-0.1 0 0 0 0 0 0.1 0 0.1 0zm-18.4-7.5q-0.1-0.1-0.2-0.1 0.1 0 0.2 0.1z"/>
				<path id="&lt;Path&gt;" class="s15" d="m1066.6 350.9c-2.2 0-4.6 3.2-5.5 7.6-1 4.6 0.1 8.8 2.4 9.3q0.2 0.1 0.4 0.1c2.3 0 4.7-3.3 5.6-7.6 0.7-3.3 0.4-6.4-0.7-8.1q-0.7-1.1-1.7-1.3-0.2 0-0.5 0z"/>
				<path id="&lt;Path&gt;" class="s15" d="m1126.5 361c-2.4 0-5 3.5-6.1 8.3-1 5.1 0.1 9.7 2.7 10.3q0.2 0 0.5 0c2.4 0 5-3.6 6.1-8.3 1-5.1-0.1-9.8-2.7-10.3q-0.2 0-0.5 0z"/>
				<path id="&lt;Path&gt;" class="s15" d="m1132.1 325.4c-3.7 0-6.5 1.3-7.6 3.5-2.3 4.4 2.1 11.2 9.7 15.1 3.4 1.8 7.1 2.8 10.3 2.8 3.7 0 6.4-1.3 7.6-3.6 1.1-2.1 0.7-4.8-1.1-7.7-1.9-2.8-4.9-5.4-8.6-7.4-3.4-1.7-7.1-2.7-10.3-2.7z"/>
				<path id="&lt;Path&gt;" class="s15" d="m1073.4 314.3q-1.8 0-3.6 0.3c-8 1.2-13.9 5.8-13.2 10.4 0.6 3.7 5.5 6.4 12 6.4q1.8 0 3.6-0.3c7.9-1.2 13.9-5.8 13.2-10.4-0.6-3.8-5.5-6.4-12-6.4z"/>
				<path id="&lt;Path&gt;" class="s15" d="m1108.5 399.3c-0.7 0-1.3 0.4-1.5 1q-0.7 1.4-1.5 2.6-1.4 2.1-3.1 3.8c-0.9 0.8-1.9 1.5-3 2.1q-1.2 0.6-2.4 1-1.2 0.2-2.3 0.2-1.1-0.1-2.3-0.4-0.5-0.1-0.9-0.3-0.3-0.1-0.5-0.1c-0.5 0-1 0.2-1.2 0.7-0.1 0.3-0.1 0.6 0 0.9q0.2 0.5 0.6 0.7 1.4 0.6 2.9 0.8 1 0.2 2 0.2 0.5 0 0.9 0c0.9-0.1 1.7-0.2 2.9-0.6q1.4-0.3 2.9-1.2 2.6-1.4 4.7-3.7 1-1.1 1.9-2.5 0.9-1.4 1.4-2.8c0.1-0.4 0.2-0.8 0-1.3-0.1-0.4-0.4-0.8-0.8-0.9q-0.4-0.2-0.7-0.2z"/>
				<path id="&lt;Path&gt;" class="s18" d="m1099.5 340.6q-0.3 0-0.5 0.2c-2.7 4.1-5.5 8.6-8.1 13.2-1.9 3.2-3.4 6.2-4.9 9.2-1.7 3.5-3 6.6-4 9.5-1.1 3.2-1.7 5.9-2 8.5q-0.3 2.1-0.2 4.1 0.1 1.8 0.6 3.6c0.7 2.3 2.1 4.3 3.9 5.7q1.6 1.2 3.5 1.9 1.2 0.4 2.4 0.6 0.6 0.1 1.2 0.2h0.3l0.4 0.1q0.5 0 0.9 0c0.3 0.1 0.5 0.1 0.7 0.1q0.6-0.1 1-0.4c0.4-0.3 0.7-0.8 0.8-1.4 0.1-0.5 0-1.1-0.3-1.5-0.3-0.4-0.9-0.8-1.4-0.8q-0.5-0.1-0.9-0.1h-0.3l-0.5-0.1q-0.6-0.1-1.2-0.2-0.9-0.1-1.8-0.4-1.3-0.4-2.4-1-0.8-0.6-1.4-1.2-0.5-0.7-1.1-1.6-0.5-1.1-0.8-2.3c-0.3-1.4-0.4-2.8-0.4-4.5 0.2-3.1 0.8-6.4 2-10.4 1.6-5 3.7-10.1 6.6-15.8 2.1-4.1 4.4-8.2 6.9-12.2 0.4-0.6 0.9-1.4 1.4-2.1 0.2-0.3 0.2-0.6-0.1-0.8q-0.1-0.1-0.3-0.1z"/>
			</g>
			<g id="&lt;Group&gt;">
				<path id="&lt;Path&gt;" class="s23" d="m1046.4 728.6l-137.6 25.3c-8.1 1.5-15.8-3.9-17.3-11.9l-35.3-192.1c-1.5-8.1 3.9-15.9 12-17.3l137.6-25.3c8.1-1.5 15.8 3.8 17.3 11.9l35.3 192.1c1.5 8.1-3.9 15.8-12 17.3z"/>
				<path id="&lt;Path&gt;" class="s24" d="m1007.8 507.2l40.5 220.8c7-2.6 11.5-9.1 10.3-15.7l-35.7-194.1c-1.2-6.6-7.7-11.1-15.1-11z"/>
				<path id="&lt;Path&gt;" class="s24" d="m952.2 566.1c2 11-3.4 21.2-12 22.8-8.6 1.6-17.3-6.1-19.3-17.1-2-11 3.3-21.2 12-22.8 8.6-1.6 17.3 6 19.3 17.1z"/>
				<path id="&lt;Path&gt;" class="s24" d="m962.2 546.8c0.7 4-1.2 7.7-4.4 8.3-3.1 0.5-6.2-2.2-6.9-6.2-0.7-4 1.2-7.6 4.3-8.2 3.1-0.6 6.2 2.2 7 6.1z"/>
			</g>
			<g id="&lt;Group&gt;">
				<path id="&lt;Path&gt;" class="s19" d="m1043.6 609.6q-0.6 0-1.1 0.1c-3.5 0.6-4.6 4.7-5 6.4-0.3 1.5-0.3 3.1-0.2 5q0 1 0.2 2.1l-0.2-0.2-0.2-0.1c-5.2-3.9-10.2-6.8-15.3-8.8-2.6-1.1-5.3-1.9-7.8-2.4-1.7-0.3-3-0.4-4.3-0.4q-0.6 0-1.2 0-1.1 0.1-1.9 0.4c-0.7 0.3-1.2 0.6-1.8 1.1-0.7 0.6-1.3 1.6-1.4 2.6-0.1 1.5 0.2 3 1 4.9 0.8 1.7 1.9 3.5 3.2 5.3 0.9 1.3 2 2.6 3.2 4-1.6-0.6-3.1-1-4.5-1.3q-2.1-0.4-3.8-0.5-2.9 0.1-4.8 1.3c-0.5 0.3-1 0.8-1.3 1.3-0.5 0.6-0.8 1.2-1.1 2.1-0.4 1.1-0.4 2.5-0.1 4 0.2 1.2 0.8 2.5 1.7 3.9 0.8 1.3 1.9 2.5 3.3 3.9 2.6 2.8 5.8 5.1 8.5 7-1.7-0.6-3.2-1-4.7-1.3-1.1-0.2-2-0.3-2.8-0.3q-0.5 0-1 0.1-0.9 0.1-1.6 0.3c-0.6 0.2-1.1 0.5-1.6 1-1.8 1.5-1.5 4.2-1 6.1 0.4 1.4 1.1 2.8 2.2 4.4 0.9 1.4 2.1 2.7 3.7 4.4 2.5 2.4 5.2 4.6 7.9 6.8l1.3 1 0.3 0.3c2.7 2.1 5.5 4.3 7.7 6.9 0.6 0.7 1.2 1.5 1.8 2.3q1.1 1.7 2.2 3.3l0.3 0.5c1.3 2 2.6 3.9 4 5.8 1.6 2.2 3.2 3.9 4.9 5.5q1.5 1.3 3.2 2.4 0.1 0.2 0.4 0.3 1.5 0.9 3.1 1.7 0.3 0.1 0.7 0.1c0.6 0 1.1-0.3 1.3-0.8q0.2-0.3 0.2-0.8 0 0 0.1 0 0.1 0 0.3 0 2.7-0.3 5.5-1.3c3.4-1.2 6.9-3.2 10.2-5.9q2.4-2 4.5-4.3c1.3-1.5 2.6-3.1 3.9-5 2.3-3.4 4.1-7 5.2-10.8 0.7-2.6 1.1-5.2 1.1-7.7 0.8 0.9 1.7 1.7 2.6 2.5 0.3 0.2 0.6 0.4 1 0.4 0.4 0 0.8-0.2 1.1-0.5 0.3-0.3 0.4-0.7 0.4-1.2 0-0.4-0.2-0.7-0.5-1q-1.8-1.5-3.4-3.3-1.2-1.5-2.3-3.2-0.5-1.4-1.2-2.9c-0.2-0.3-0.5-0.5-0.8-0.6q-0.4-0.8-0.8-1.6c-2.3-5.1-3.8-10.6-5.3-15.9-1-3.8-2.1-7.8-3.4-11.5-2-5.4-4.1-9.3-6.7-12.4q-2.3-2.7-5.1-4.3-2.1-1.2-4-1.2z"/>
				<path id="&lt;Compound Path&gt;" fill-rule="evenodd" class="s20" d="m1010 651.2q0.1 0 0.2 0c1.7 0.9 3.3 1.9 4.9 2.9q2.3 1.4 4.5 3.1c1.6 1.1 3 2.3 4.3 3.7q2 2 3.6 4.3c0.4 0.5 0.2 1.2-0.3 1.5-0.2 0.1-0.5 0.2-0.8 0.1-0.3 0-0.5-0.2-0.7-0.5q-0.9-1.1-1.8-2.2 0.1 0.1 0.1 0.1c-3.2-3.8-6.9-7.2-11-10q0.1 0 0.1 0-1.6-1.1-3.3-2.1c-0.3-0.1-0.4-0.4-0.3-0.7 0.1-0.1 0.3-0.2 0.5-0.2zm3.1 3q0 0 0 0 0 0 0 0zm10.8 9.8v0.1q0 0 0-0.1zm-0.1 0q0 0 0.1 0z"/>
				<path id="&lt;Compound Path&gt;" fill-rule="evenodd" class="s20" d="m1012.4 629.2q0.1 0 0.2 0.1c2.4 1.1 4.8 2.3 7.2 3.5 2.2 1.2 4.5 2.5 6.6 4 2.1 1.5 4.1 3.1 6 4.9q2.9 2.9 5.2 6.1c0.6 0.8 0.3 1.8-0.4 2.2-0.4 0.3-0.8 0.3-1.2 0.3-0.5-0.1-0.8-0.4-1-0.7q-1.4-1.9-2.9-3.6 0.1 0 0.1 0.1-0.1-0.2-0.2-0.3 0 0 0 0 0 0 0 0c-3.7-4.3-7.8-8.2-12.4-11.4q0 0 0 0 0 0 0 0l-0.1-0.1q0 0 0 0.1c-2.3-1.6-4.8-3-7.3-4.2-0.3-0.1-0.4-0.5-0.2-0.7 0.1-0.2 0.2-0.3 0.4-0.3zm7.2 5.2q0 0 0 0 0 0 0 0zm12.5 11.6q0-0.1-0.1-0.2 0.1 0.1 0.1 0.2zm-0.1-0.2q0 0 0 0 0 0 0 0 0 0 0 0zm-12.4-11.4q0 0-0.1 0 0.1 0 0.1 0z"/>
				<path id="&lt;Path&gt;" class="s20" d="m1038.5 624.2c-0.2 0.2-0.2 0.5 0 0.7q1.3 1.2 2.5 2.5l-0.1-0.1q3.1 3.7 5.4 8.1c0.2 0.3 0.5 0.5 0.8 0.5 0.3 0.1 0.6 0 0.9-0.1 0.2-0.2 0.4-0.5 0.5-0.8 0-0.2 0-0.6-0.2-0.9-1.4-1.7-2.7-3.4-4.2-5q-2.3-2.6-4.9-5-0.2-0.1-0.4-0.1-0.2 0-0.3 0.2z"/>
				<path id="&lt;Path&gt;" class="s21" d="m1182.7 492.6c-0.3 0.2-0.6 0.5-0.7 0.9-0.1 0.4-0.1 0.8 0.1 1.2 0.2 0.4 0.5 0.5 0.9 0.7l1.1 0.5 0.6 0.3c1.2 10.9 4.2 21.6 7.1 32 2.2 7.7 4.4 15.6 5.9 23.5v-0.2c1.1 6.2 1.8 12.9 2 20.9 0.3 6.9 0.1 13.8-0.5 20.7-0.7 8-2 16.2-3.9 24.3-1.7 7.7-4.1 15.7-7 23.8-1.4 3.6-2.9 7.4-4.5 11.2-1.7 4.1-3.4 7.7-5.2 11.1-3.6 6.9-7.9 13.7-12.1 20.2l-0.3 0.4c-10.5-3.8-21.4-6.8-31.6-9.7l-4.4-1.2c-3.9-1.1-7.7-2.1-11.5-3.2-5.7-1.7-11.3-3.5-16.9-5.3l-1.9-0.7c-10.4-3.3-21.1-6.8-31.8-9.4-1.3 4.1-3 8.2-5 12-2.6 4.7-5.7 9.2-9.2 13.4-3.5 4.1-7.3 8-11.5 11.5-3.4 2.8-7 5.5-10.8 7.8q0.1 0.4 0.4 0.8c9.3 12.2 20 23.5 31.8 33.7 12.1 10.5 25.1 19.6 38.6 26.9 14.1 7.7 28.7 13.4 43.3 17.1 3.6 0.9 7.4 1.7 11.3 2.4 4.3 0.7 7.8 1.2 11.1 1.4q2.8 0.3 5.6 0.2c4.7 0 9.4-0.4 14-1.3 5.9-1.1 11.9-3.2 17.8-6 5.3-2.5 10.6-5.9 15.9-10 9.4-7.2 18-16.5 26.5-28.5 7.1-9.8 13.5-20.9 19.7-33.9 3.1-6.3 5.6-12.1 7.8-17.8 2.5-6.5 4.8-13.2 6.8-20.1 4-14.5 6.3-28.9 6.9-42.7 0.6-15.1-1.1-29.2-5-42-2.1-6.8-4.8-13.3-8.2-19.3-3.4-6-7.6-11.9-12.7-17.4-4.8-5.3-10.5-10.4-17.3-15.7-5.7-4.4-12.2-8.8-19.8-13.3-10.4-6.1-21.1-11.5-31-16.1-1.4-0.6-2.8-1.2-4.2-1.8q-0.5-0.2-0.9-0.4-3.5-1.3-6.8-3-0.3 0-0.5 0.1z"/>
				<path id="&lt;Path&gt;" class="s21" d="m1178.4 491c-0.4 0.8-0.1 1.6 0.6 2.1 3.9 2.4 8.1 4.3 12.1 6.7 0.7 0.4 1.6 0.1 2-0.6 0.4-0.7 0.2-1.6-0.6-2-3.9-2.4-8.1-4.3-12.1-6.8q-0.3-0.2-0.7-0.2c-0.5 0-1 0.3-1.3 0.8z"/>
				<path id="&lt;Path&gt;" class="s21" d="m1179 491.3c-0.4 0.7-0.2 1.6 0.5 2 5 3 10.3 5.5 15.5 7.9 0.8 0.4 1.6 0.2 2.1-0.6 0.3-0.6 0.1-1.7-0.6-2-5.3-2.4-10.5-4.9-15.5-7.9q-0.3-0.2-0.7-0.2c-0.5 0-1.1 0.3-1.3 0.8z"/>
				<path id="&lt;Path&gt;" class="s21" d="m1180.6 492.2c-0.4 0.7-0.2 1.7 0.5 2.1 6 3.3 12.4 5.9 18.4 9 0.8 0.4 1.7 0.2 2.1-0.6 0.4-0.7 0.1-1.6-0.6-2-6.1-3.1-12.4-5.7-18.4-9q-0.3-0.2-0.7-0.2c-0.6 0-1.1 0.2-1.3 0.7z"/>
				<path id="&lt;Path&gt;" class="s21" d="m1181 492.5c-0.4 0.7-0.2 1.7 0.5 2 5.7 2.8 11.3 5.6 17 8.3 0.7 0.4 1.6 0.2 2-0.6 0.4-0.6 0.2-1.6-0.6-2-5.6-2.7-11.2-5.6-16.9-8.3q-0.4-0.2-0.7-0.2c-0.6 0-1.1 0.3-1.3 0.8z"/>
				<path id="&lt;Path&gt;" class="s22" d="m1067.9 654.7c-0.2 0.2-0.2 0.6-0.1 0.9 0.1 0.2 0.3 0.5 0.5 0.6 3 1.2 5.9 2.2 8.9 3.2q4.5 1.5 9.1 2.9c6.1 1.9 12.3 3.7 18.4 5.4q4.6 1.3 9.2 2.6 4.6 1.4 9.2 2.7c6 1.8 12.1 3.6 18.2 5.4 8 2.5 16.1 5.1 24 8.1q-0.2-0.1-0.3-0.2 2.9 1.1 5.7 2.3 2.9 1.1 5.7 2.5c3.4 1.6 6.8 3.5 10.1 5.5 3.3 2 6.5 4.1 9.6 6.3q4.9 3.3 9.7 6.7c0.2 0.1 0.6 0 0.7-0.2 0.1-0.3 0-0.5-0.2-0.7-4.9-3.4-9.6-6.9-14.5-10.3-4.7-3.3-9.7-6.4-14.8-9.2-2.8-1.4-5.6-2.7-8.4-3.9q-4.4-1.9-8.8-3.6c-5.9-2.2-11.9-4.2-17.9-6.1-5.9-1.9-11.8-3.7-17.8-5.4q-9.2-2.7-18.4-5.2c-6.1-1.7-12.3-3.4-18.4-5.1q-4.6-1.4-9.1-2.8c-3.1-1-6.1-2-9.1-3q-0.1 0-0.2 0c-0.4 0-0.8 0.2-1 0.6z"/>
				<path id="&lt;Compound Path&gt;" fill-rule="evenodd" class="s22" d="m1031.4 698.3c0.5 0 1 0.2 1.2 0.7q0.9 1.6 1.9 3.1c2.2 3.1 4.7 5.9 7.2 8.5 2.6 2.6 5.2 5.1 7.8 7.7 2.6 2.5 5.2 5.1 7.9 7.6q4 3.8 8.2 7.3-0.2-0.1-0.3-0.2c7.1 6 14.6 11.6 22.3 16.9 3.8 2.7 7.7 5.2 11.7 7.6q5.8 3.3 11.8 6.2c13.7 6.3 28.2 10.8 43.1 13.4l-0.1-0.1c4.2 0.8 8.5 1.3 12.8 1.5q6.5 0.3 12.9-0.3c6.9-0.7 13.7-2.2 20.2-4.5q-0.2 0-0.5 0.1c3.5-1.3 6.8-2.8 10.1-4.5 3.1-1.8 6.1-3.7 9.1-5.8 2.1-1.5 4.3-3 6.4-4.7q3-2.4 6-5c1.9-1.7 3.8-3.5 5.6-5.4q2.7-2.7 5.2-5.7 3.1-3.7 5.9-7.8c0.2-0.2 0.5-0.3 0.8-0.1 0.3 0.1 0.4 0.5 0.2 0.8-3.2 4.6-6.6 9.1-10.3 13.4-1.8 2.2-3.7 4.2-5.6 6.3q-2.9 3.1-6.1 5.9c-2.3 2.1-4.7 4.1-7.1 5.9-2.5 1.8-5.1 3.6-7.8 5.1-5.3 3.1-11 5.5-17 7.1-11.8 3.3-24.4 3.8-36.5 2-6.3-0.9-12.6-2.2-18.7-3.9-6.2-1.6-12.2-3.7-18.2-6q-8.9-3.6-17.4-8c-5.6-3.1-11.1-6.4-16.5-9.9-10.9-7.3-21.4-15.3-31-24.2q-7.2-6.7-13.8-13.9-3.3-3.6-6.4-7.3-1.5-2-3.1-4c-0.9-1.2-1.9-2.4-2.8-3.6-0.6-0.7-0.5-1.7 0.3-2.1q0.3-0.1 0.6-0.1zm33.9 34.7q0 0 0 0 0 0 0 0zm88.8 44q-0.2 0-0.4 0 0.2 0 0.4 0z"/>
				<path id="&lt;Path&gt;" class="s22" d="m1196.7 613.7q-2.4 9.7-5.5 19.1c-2.1 6.3-4.5 12.5-7.1 18.5q0-0.1 0.1-0.2-3.9 8.7-8.7 16.9-2.4 4.2-5.1 8.3-1.4 2.1-2.7 4.1-0.7 1.1-1.4 2.1-0.3 0.4-0.6 0.8c-0.3 0.4-0.6 0.8-0.9 1.1-0.2 0.3-0.3 0.8-0.2 1.1 0.1 0.4 0.4 0.7 0.7 0.9 0.3 0.2 0.7 0.2 1 0.1 0.4-0.1 0.7-0.3 0.9-0.6 0.4-0.5 0.8-1.1 1.2-1.7q0.7-0.8 1.3-1.7 1.3-1.9 2.5-3.8 2.4-3.7 4.5-7.5c2.8-5.1 5.2-10.3 7.5-15.6q1.7-4 3.2-8 1.5-4 2.9-8.2 2.8-8.2 5.1-16.6 1.2-4.4 2.3-8.8c0-0.3-0.1-0.6-0.4-0.7q0 0-0.1 0c-0.2 0-0.4 0.2-0.5 0.4z"/>
				<path id="&lt;Path&gt;" class="s23" d="m1169.8 477.5q0 0 0 0-0.2 0.2-0.3 0.4c-2.7 5.2-6 10.3-10 15.5l-0.2 0.3c-4.5 5.8-9.9 11.6-15.8 17.3-5.6 5.3-11.6 10.4-18 15.3l-0.2 0.1c-5.8 4.3-11.6 8.1-17.2 11.5l-0.5-0.7-0.5-0.6c-5.3-6.9-9.8-14.8-13.8-24.2v0.3c-3.6-8.9-6.6-18.5-8.8-28.5q-0.1-0.3-0.4-0.6l-1.2 0.7c-2.3 1.3-4.5 2.6-6.8 3.9-1.8 0.9-3.3 1.7-4.8 2.4q-0.8 0.4-1.7 0.8c0 7.4 0.3 14.2 0.9 20.6 0.6 6.5 1.4 12.4 2.6 18 1.3 6.3 2.9 12.2 5 17.6 0.9 2.4 1.8 4.6 2.7 6.7q0.8 1.6 1.6 3.2 0.1 0.1 0.3 0.1c10.6-4.1 18.6-8.8 24.8-14.4 2.3 4.7 5.7 9.2 10 13.3 5.1 4.8 10.6 8.3 16.4 10.3q0.2 0.1 0.5 0.1l0.9-0.6c1.5-1.6 2.8-3.1 4-4.6q0.8-1 1.6-1.9 0.9-1.3 1.9-2.5 2.1-3.1 4.2-6.2c3.5-5.2 6.9-10.5 10.2-15.8 6.7-10.7 12.9-21.7 18.4-32.7 2.1-4.1 4.1-8.3 6-12.6q0.2-0.5 0.4-0.9l0.2-0.4q-1.2-0.7-2.2-1.5-2.5-1.6-4.5-3.5c-2.3-2-4.1-4-5.6-6.1q0-0.1-0.1-0.1z"/>
			</g>
		</g>
		<g id="&lt;Group&gt;">
			<path id="&lt;Path&gt;" class="s1" d="m243.8 116.7c-49.7-11.9-99.7 18.7-111.7 68.4-12 49.7 18.6 99.7 68.3 111.7 49.7 12 99.8-18.7 111.7-68.3 12-49.7-18.6-99.8-68.3-111.8z"/>
			<path id="&lt;Compound Path&gt;" fill-rule="evenodd" class="s2" d="m222.6 124.3q1.3 0 2.6 0c15.7 0.5 31.4 5.4 44.4 14.4 6.3 4.3 12.1 9.5 17 15.5 5 5.9 9.1 12.4 12.2 19.5 1.6 3.6 3 7.3 4.1 11.1q1.6 5.7 2.4 11.5c1.1 8.2 1 16.4-0.3 24.5-2.5 15.4-9.3 30-19.6 41.7-9.9 11.2-22.8 19.7-37 24.3-15.1 4.9-31.6 5.3-47 1.2-14.7-3.9-28.3-11.8-38.8-22.9-10.7-11.4-18.4-25.8-21.4-41.2q-0.3-1.3-0.5-2.5 0-0.2-0.1-0.4 0 0 0-0.1-0.3-2.2-0.6-4.4 0 0 0-0.1c-0.6-5.5-0.6-11.1-0.1-16.6q0.1-0.8 0.2-1.5 0.6-5.3 1.8-10.6 1.1-4.3 2.7-8.6 1.6-4.6 3.9-9 0-0.1 0-0.2 0.9-1.7 1.8-3.3 2.1-3.7 4.5-7 0-0.1 0.1-0.2 0.1-0.2 0.2-0.3c6.6-9.1 15-16.9 24.6-22.8q2.2-1.3 4.5-2.5 4.5-2.3 9.3-4.2 2.9-1 5.8-1.9c7.5-2.2 15.4-3.4 23.3-3.4zm-9.3 5.6q-0.3 0-0.7 0c-7 1-13.8 2.9-20.3 5.6q0 0 0 0-7.4 3.2-13.9 7.7-0.1 0-0.1 0-0.2 0.2-0.5 0.3 0 0.1-0.1 0.1-0.2 0.2-0.4 0.3-0.1 0.1-0.2 0.2-0.2 0.1-0.3 0.2-0.2 0.1-0.3 0.2-0.1 0.1-0.2 0.1-0.2 0.2-0.4 0.3-0.1 0.1-0.1 0.1-0.4 0.3-0.7 0.5 0 0 0 0 0 0 0 0-0.1 0.1-0.1 0.1-3.7 2.9-7 6.1-0.3 0.3-0.5 0.5-3.6 3.6-6.7 7.6-0.1 0.1-0.2 0.3-0.1 0-0.1 0.1-4.2 5.6-7.4 11.7 0 0.1 0 0.1-0.1 0.2-0.2 0.4-0.1 0.1-0.1 0.2-0.1 0.1-0.1 0.3-0.1 0.1-0.2 0.3-0.1 0.1-0.1 0.2-0.1 0.2-0.2 0.4 0 0.1-0.1 0.1-0.1 0.3-0.2 0.5 0 0 0 0.1-0.2 0.2-0.3 0.5 0 0 0 0-0.4 0.9-0.8 1.8-0.8 1.9-1.5 3.8 0 0 0 0.1-0.1 0.2-0.2 0.5 0 0.1 0 0.2-0.1 0.2-0.2 0.4 0 0.1-0.1 0.3 0 0.1-0.1 0.3-0.1 0.2-0.1 0.4-0.1 0.1-0.1 0.2-0.1 0.2-0.1 0.5-0.1 0-0.1 0.1-0.1 0.3-0.2 0.5v0.1q-0.1 0.3-0.2 0.6 0 0 0 0.1-0.1 0.2-0.1 0.5l-0.1 0.1q-0.1 0.3-0.1 0.6 0 0-0.1 0.1 0 0.2-0.1 0.5 0 0.1 0 0.1-0.1 0.3-0.2 0.5 0 0.1 0 0.2-0.1 0.2-0.1 0.4-0.1 0.2-0.1 0.3-0.1 0.2-0.1 0.4 0 0.1-0.1 0.3 0 0.1 0 0.3-0.1 0.2-0.1 0.4-0.1 0.1-0.1 0.2-0.1 0.2-0.1 0.5 0 0 0 0.1-0.1 0.3-0.2 0.5 0 0.1 0 0.1 0 0.3-0.1 0.7-0.6 2.8-1 5.8-0.8 6.6-0.6 13.3 0 0.1 0 0.2 0 0.1 0 0.3l0.1 0.4q0 0.1 0 0.1 0.1 3.2 0.5 6.3 0.2 1.1 0.4 2.2 0 0 0 0 0 0.1 0 0.2c1 5.9 2.7 11.7 5 17.2q0 0.1 0 0.1 0 0 0 0 0 0 0 0 0 0 0 0 0 0 0 0 0 0 0 0 0 0 0 0 0.1 0.2 0.2 0.5-0.1-0.2-0.2-0.5c2.7 6.3 6.1 12.2 10.2 17.6 4.2 5.3 9 10 14.3 14.2 5.3 4 11.1 7.4 17.2 10.1 6.6 2.7 13.5 4.5 20.6 5.5q-0.3 0-0.7-0.1c7.1 0.9 14.3 0.9 21.4 0 6.6-1 13.1-2.8 19.3-5.3 6.3-2.7 12.3-6.2 17.7-10.3 5.3-4.2 10.1-8.9 14.2-14.2 4.1-5.4 7.5-11.2 10.2-17.4 2.6-6.5 4.5-13.3 5.4-20.2 0.9-6.9 0.9-13.8 0-20.7q0 0.1 0 0.1c-1-6.9-2.9-13.7-5.6-20.1-2.6-6.2-6-11.9-10-17.2q0 0 0 0.1 0-0.1-0.1-0.2 0 0 0 0-0.1-0.2-0.2-0.4 0 0.2 0.1 0.3c-4-5.2-8.7-9.9-13.9-13.9-5.3-4.1-11.1-7.5-17.3-10.2q0.2 0.1 0.3 0.1-0.2 0-0.4-0.1 0 0 0 0-0.1-0.1-0.2-0.1 0.1 0 0.2 0.1c-6.6-2.7-13.4-4.6-20.4-5.6-6.5-0.8-13.1-0.8-19.6 0zm87.1 67.5q0-0.2 0-0.3 0 0.2 0 0.3zm-108.1-61.9q0 0 0 0 0 0 0 0 0 0 0 0zm0 0q0 0 0 0 0 0 0 0zm78.2 10q-0.1-0.1-0.2-0.2 0.1 0.1 0.2 0.2zm-95.4 0q0 0 0 0 0 0 0 0zm125.2 72.8q0.1-0.3 0.1-0.6 0 0.3-0.1 0.6zm-139.2 37.4q-0.1-0.2-0.2-0.3zm123.5-96.1q0 0 0.1 0.1 0 0 0 0 0 0 0 0.1 0-0.1-0.1-0.2zm-31.2-24.1q0 0 0 0 0 0 0 0zm-0.1 0q0 0 0 0 0 0 0 0 0 0 0 0 0 0 0 0zm0 0q0 0 0.1 0-0.1 0-0.1 0zm-102.6 41.5q0 0 0 0 0 0 0 0 0 0 0 0zm102.4 102.7q-0.1 0-0.1 0 0 0 0.1 0z"/>
			<path id="&lt;Compound Path&gt;" fill-rule="evenodd" class="s25" d="m224.1 138.9q2.3 0 4.5 0.2c2.5 0.1 5 0.4 7.5 0.8 0.7 0.2 1.4 0.3 2.2 0.4q0.7 0.1 1.4 0.3c1.1 0.3 2.3 0.6 3.4 0.9 2.4 0.7 4.8 1.4 7.1 2.3q3.5 1.4 6.8 3.1c4.2 2.1 8 4.7 11.6 7.6 2.1 1.6 4.1 3.5 5.9 5.3q2.8 2.9 5.2 6.1-0.1-0.2-0.1-0.3 0.9 1.2 1.8 2.5c3.6 4.9 6.4 10.3 8.5 15.9 1 2.8 1.9 5.7 2.6 8.6q1 4.4 1.4 8.8c0.7 6.1 0.4 12.2-0.5 18.2-0.8 5.4-2.3 10.8-4.5 15.9q0 0 0 0-0.1 0.3-0.2 0.6-0.2 0.4-0.3 0.8c-0.3 0.6-1.2 1.2-1.8 1.3-0.8 0.3-1.6 0.2-2.3-0.2-0.7-0.4-1.2-1.1-1.4-1.8q-0.2-0.8 0-1.6 0.1-0.3 0.3-0.7 0.1-0.3 0.2-0.6c2.1-5.2 3.6-10.7 4.4-16.2 0.8-5.9 0.8-11.9 0.1-17.7q-0.6-4.4-1.8-8.7-1.2-4.4-3-8.7-0.9-2.1-2-4.2c-0.7-1.4-1.5-2.8-2.3-4.2-1.4-2.5-3.1-4.9-4.9-7.2-1.8-2.2-3.7-4.4-5.8-6.4-1-1-2-2-3.1-2.9q-1.4-1.2-2.9-2.4-3.2-2.4-6.6-4.5-1.9-1.2-3.9-2.2c-1.3-0.6-2.5-1.2-3.8-1.7q-1-0.4-2-0.8c-0.6-0.3-1.2-0.5-1.8-0.7-1.4-0.5-2.9-1-4.4-1.4-0.6-0.2-1.3-0.4-2-0.6q-1.1-0.2-2.2-0.5-2.3-0.5-4.6-0.8 0 0 0 0c-2.6-0.3-5.3-0.6-8-0.6q-4.4 0-8.8 0.5c-0.5 0.1-0.9-0.4-0.9-0.9 0-0.5 0.4-0.8 0.9-0.9 3.3-0.4 6.7-0.7 10.1-0.7zm6.7 2.6q0 0 0 0 0 0 0 0zm17.3 4.9q-0.1-0.1-0.2-0.1 0.1 0 0.2 0.1zm39.8 70.3q0-0.1 0-0.2 0 0.1 0 0.2z"/>
			<path id="&lt;Path&gt;" class="s25" d="m277.1 245.5c0 1.6 1.4 3 3 3 1.7 0 3-1.4 3-3 0-1.7-1.3-3-3-3-1.6 0-3 1.3-3 3z"/>
			<path id="&lt;Path&gt;" class="s25" d="m271.4 252.8c0 1.4 1.2 2.6 2.6 2.6 1.4 0 2.5-1.2 2.5-2.6 0-1.4-1.1-2.5-2.5-2.5-1.4 0-2.6 1.1-2.6 2.5z"/>
			<text id="$
" style="mix-blend-mode: soft-light;transform: matrix(2,0,0,2,188.459,249.931)" >
				<tspan x="0" y="0" class="t26">$
</tspan>
			</text>
		</g>
		<g id="&lt;Group&gt;">
			<path id="&lt;Path&gt;" class="s1" d="m192.9 307c-32.4-7.8-65 12.2-72.9 44.6-7.8 32.4 12.2 65.1 44.6 72.9 32.4 7.8 65.1-12.2 72.9-44.6 7.8-32.4-12.2-65.1-44.6-72.9z"/>
			<path id="&lt;Compound Path&gt;" fill-rule="evenodd" class="s2" d="m178.8 313.4q2 0 3.9 0.1c7.9 0.6 15.6 2.9 22.5 6.8 6.6 3.8 12.4 9 16.9 15.2 4.5 6.2 7.7 13.5 9.1 21 1.5 7.8 1.3 15.9-0.8 23.6-1.9 7.5-5.5 14.5-10.5 20.5-4.8 5.8-10.8 10.6-17.6 13.8-7.1 3.4-14.9 5.4-22.8 5.5-8.1 0-16.2-1.8-23.5-5.2-6.8-3.3-13-8-17.8-13.9-2.5-3-4.8-6.3-6.6-9.8-1.7-3.5-3.2-7.1-4.1-10.9q-0.2-0.8-0.4-1.7-0.1-0.1-0.1-0.2-0.3-1.5-0.6-3.1c-0.7-4.3-0.9-8.8-0.5-13.2 0.3-3.5 1-6.9 2-10.3q0.1-0.4 0.2-0.8c1.6-5.1 4-10 7-14.4q2.6-3.7 5.8-7 0.1-0.1 0.3-0.3 1.3-1.3 2.6-2.5c3-2.5 6.1-4.8 9.6-6.6 3.3-1.9 6.9-3.4 10.5-4.4q0.7-0.3 1.5-0.4c4.4-1.2 8.9-1.8 13.4-1.8zm-6.3 5.4q-2.5 0.4-4.9 1-3.8 0.9-7.5 2.4-4.9 2.2-9.3 5.2 0 0.1 0 0.1-0.1 0-0.2 0.1-0.6 0.4-1.1 0.9-0.6 0.4-1.2 0.9-4.2 3.5-7.6 7.8-0.3 0.4-0.5 0.7 0 0 0 0-0.1 0.1-0.2 0.3 0 0-0.1 0.1-0.1 0.1-0.1 0.1-0.1 0.2-0.2 0.3 0 0 0 0-2.9 4.2-5 8.9-1.3 3.1-2.2 6.3 0 0.1 0 0.1 0 0.2-0.1 0.3 0 0.2 0 0.3-0.1 0-0.1 0.1-0.7 2.7-1.1 5.4-0.8 6.4 0 12.9 1 6.5 3.5 12.5 2.4 5.6 6.2 10.6 3.8 4.9 8.8 8.8 5 3.7 10.7 6.2 6 2.4 12.4 3.4 6.4 0.7 12.7-0.1 6.3-0.9 12.1-3.2 5.8-2.5 10.9-6.3 4.8-3.8 8.6-8.6 3.8-4.9 6.3-10.6c1.6-4 2.8-8.2 3.4-12.5q0.9-6.6 0.1-13.2-1-6.1-3.3-11.9 0 0 0 0-0.1-0.1-0.1-0.3 0 0.1 0.1 0.3-2.5-5.8-6.3-10.9-3.8-4.8-8.6-8.6-5.1-4-11.1-6.5-5.9-2.4-12.3-3.3-6.4-0.8-12.7 0zm36.1 9.7l-0.3-0.2q0.1 0.1 0.3 0.2zm14.9 19.6q0 0 0 0 0 0 0 0 0 0 0 0zm-0.2 37.5q0.1-0.3 0.2-0.5-0.1 0.2-0.2 0.5zm-63.2 25.4q0 0.1 0.1 0.1-0.1 0-0.1-0.1zm0.6 0.3q-0.2-0.1-0.4-0.2 0.2 0.1 0.4 0.2zm12 3.2q-0.2-0.1-0.4-0.1 0.2 0 0.4 0.1zm50.9-66.2q0 0 0 0.1 0-0.1 0-0.1zm-15 56.4q-0.1 0.1-0.2 0.1 0.1 0 0.2-0.1zm-0.3 0.2z"/>
			<path id="&lt;Compound Path&gt;" fill-rule="evenodd" class="s25" d="m180.1 324.1q2.8 0 5.6 0.4c2.7 0.3 5.4 0.9 7.9 1.7 5.4 1.8 10.5 4.6 14.8 8.4 1.9 1.8 3.7 3.7 5.3 5.8 1.5 2 3 4.2 4.2 6.6 1.1 2.3 2.1 4.7 2.8 7.2q1.2 4 1.6 8.1 0.2 1.3 0.3 2.6 0.1 0.4 0.1 0.7 0 0.2 0 0.6c0.1 1.2-1.1 2.3-2.3 2.3-1.3 0-2.4-1.1-2.4-2.3q0-0.3 0-0.6 0 0 0 0 0-0.3 0.1-0.7 0-0.2 0-0.4c0-0.5 0-1-0.1-1.6 0-0.8-0.1-1.7-0.2-2.5-0.5-3.1-1.3-6-2.5-8.9-1.4-3.2-3.1-6.2-5.2-9q-1.6-2-3.4-3.9-1.2-1.1-2.5-2.3-1-0.8-1.9-1.5-2-1.5-4.1-2.7c-1.4-0.8-2.8-1.5-4.3-2.2-1.7-0.7-3.4-1.4-5.2-1.8-0.9-0.2-1.8-0.5-2.7-0.6q-1.1-0.2-2.3-0.4-0.1 0-0.3 0 0.1 0 0.3 0c-3.2-0.4-6.5-0.4-9.7 0q-1.4 0.2-2.8 0.5c-0.7 0.1-1.4-0.2-1.6-0.9-0.1-0.7 0.3-1.5 0.9-1.6q3.4-0.7 6.8-0.9 1.4-0.1 2.8-0.1zm3.6 3q0 0 0 0 0 0 0 0zm10.6 3q-0.2-0.1-0.4-0.2 0.2 0.1 0.4 0.2zm-10.6-3q0 0 0 0 0 0 0 0z"/>
			<path id="&lt;Path&gt;" class="s25" d="m216.7 376.1c0 1.6 1.4 3 3 3 1.7 0 3-1.4 3-3 0-1.7-1.3-3-3-3-1.6 0-3 1.3-3 3z"/>
			<text id="$
" style="mix-blend-mode: soft-light;transform: matrix(2,0,0,2,158.81,395.24)" >
				<tspan x="0" y="0" class="t27">$
</tspan>
			</text>
		</g>
		<path id="&lt;Path&gt;" class="s5" d="m1052.4 886.7h-415.5-392.4-135.2c-6.5 0-12 5.4-12 12 0 6.5 5.5 12 12 12h359.5 420.3 382.5 33.6c6.5 0 12-5.5 12-12 0-6.6-5.5-12-12-12z"/>
	</g>
</svg>