<svg version="1.2" xmlns="http://www.w3.org/2000/svg" viewBox="0 0 1000 1000" width="800" height="800">
	<title>4707069</title>
	<style>
		tspan { white-space:pre } 
		.s0 { fill: #f5f5f5 } 
		.s1 { fill: #e0e0e0 } 
		.s2 { fill: #fb2c36 } 
		.s3 { opacity: .5;fill: #000000 } 
		.s4 { fill: #ffffff } 
		.s5 { opacity: .2;fill: #000000 } 
		.s6 { fill: #37474f } 
		.s7 { fill: #455a64 } 
		.s8 { fill: #263238 } 
		.s9 { fill: #e6e6e6 } 
		.s10 { fill: #fafafa } 
		.s11 { fill: #ebebeb } 
		.s12 { opacity: .5;fill: #ffffff } 
		.t13 { font-size: 12px;fill: #fb2c36;font-weight: 800;font-family: "Montserrat-ExtraBold", "Montserrat" } 
		.s14 { opacity: .3;fill: #000000 } 
		.s15 { fill: #ffa8a7 } 
		.s16 { opacity: .4;fill: #ffffff } 
		.s17 { opacity: .2;fill: #ffffff } 
		.s18 { fill: #f28f8f } 
	</style>
	<g id="Floor">
		<path id="&lt;Path&gt;" class="s0" d="m795.3 543.4c163.1 94.2 163.1 246.9 0 341-163.1 94.2-427.5 94.2-590.6 0.1-163.1-94.2-163.1-246.9 0-341.1 163.1-94.1 427.5-94.1 590.6 0z"/>
	</g>
	<g id="Shadows">
		<path id="&lt;Path&gt;" class="s1" d="m629.4 793.8c35.3 20.3 35.3 53.4 0 73.7-35.3 20.4-92.5 20.4-127.7 0-35.3-20.3-35.3-53.4 0-73.7 35.2-20.4 92.4-20.4 127.7 0z"/>
		<path id="&lt;Path&gt;" class="s1" d="m518.6 654.1l-241.6 139.5c-6.8 3.9-18.6 3.4-26.5-1.1l-85.8-49.5c-7.8-4.5-8.7-11.4-1.9-15.3l241.6-139.5c6.8-4 18.7-3.5 26.5 1.1l85.8 49.5c7.8 4.5 8.7 11.4 1.9 15.3z"/>
	</g>
	<g id="Plants">
		<g id="&lt;Group&gt;">
			<g id="&lt;Group&gt;">
				<path id="&lt;Path&gt;" class="s2" d="m778.7 702.8l19.1 11.1c0 0-9.6-30.7-4.3-61.5 2-11.7 6.2-17.4 7.7-20.5 1.5-3.2 13-22.4 2.9-31.3-10.1-8.8-33.8 8.8-32.7 56.3 0.5 24.4 7.3 45.9 7.3 45.9z"/>
				<path id="&lt;Path&gt;" class="s3" d="m778.7 702.8l19.1 11.1c0 0-9.6-30.7-4.3-61.5 2-11.7 6.2-17.4 7.7-20.5 1.5-3.2 13-22.4 2.9-31.3-10.1-8.8-33.8 8.8-32.7 56.3 0.5 24.4 7.3 45.9 7.3 45.9z"/>
				<path id="&lt;Path&gt;" class="s4" d="m787.6 708.8c-0.4 0-0.7-0.2-0.8-0.6-0.1-0.2-7.3-20.1-6.9-52.2 0.4-32.2 17.3-49.4 17.5-49.6 0.3-0.3 0.9-0.3 1.2 0 0.3 0.4 0.3 0.9 0 1.2-0.2 0.2-16.6 16.9-17 48.4-0.4 31.7 6.7 51.5 6.8 51.7 0.2 0.4-0.1 0.9-0.5 1.1q-0.2 0-0.3 0z"/>
			</g>
			<g id="&lt;Group&gt;">
				<path id="&lt;Path&gt;" class="s2" d="m793.5 711.4l31.4 18.5c0 0 14.4-2.1 13.3-15.6-1.1-13.6-6.9-16.8 0.4-22.7 7.3-6 9.1-6.4 8.8-12.2-0.4-5.8-4.3-8.4-6.1-10.7-1.9-2.3-7-7.2-3.4-14.2 3.6-7 8.5-13.8 1.2-17.1-4.3-1.9-11.6 0.5-16.5 5.7-4.8 5.1-8.8 8.8-13.4 10-4.6 1.2-14.2 1.3-13.9 9.2 0.3 7.9 2.4 10.7 0.5 14.2-3.6 6.6-19.1 10.2-2.3 34.9z"/>
				<path id="&lt;Path&gt;" class="s5" d="m793.5 711.4l31.4 18.5c0 0 14.4-2.1 13.3-15.6-1.1-13.6-6.9-16.8 0.4-22.7 7.3-6 9.1-6.4 8.8-12.2-0.4-5.8-4.3-8.4-6.1-10.7-1.9-2.3-7-7.2-3.4-14.2 3.6-7 8.5-13.8 1.2-17.1-4.3-1.9-11.6 0.5-16.5 5.7-4.8 5.1-8.8 8.8-13.4 10-4.6 1.2-14.2 1.3-13.9 9.2 0.3 7.9 2.4 10.7 0.5 14.2-3.6 6.6-19.1 10.2-2.3 34.9z"/>
				<path id="&lt;Path&gt;" class="s4" d="m806.3 719.8c-0.5 0-0.8-0.3-0.9-0.8 0-0.4-3.4-47.3 29.1-78.1 0.4-0.3 0.9-0.3 1.3 0.1 0.3 0.3 0.3 0.8-0.1 1.2-31.9 30.2-28.6 76.2-28.5 76.7 0 0.5-0.4 0.9-0.8 0.9q-0.1 0-0.1 0z"/>
				<path id="&lt;Path&gt;" class="s4" d="m811.9 679.7c-0.4 0-0.8-0.4-0.8-0.8-0.9-12.3-9.5-18.7-9.6-18.7-0.4-0.3-0.5-0.8-0.2-1.2 0.3-0.4 0.8-0.5 1.2-0.2 0.4 0.3 9.3 6.8 10.3 19.9 0 0.5-0.3 0.9-0.8 1q0 0-0.1 0z"/>
				<path id="&lt;Path&gt;" class="s4" d="m809.6 687.7q-0.3 0-0.6-0.3c-0.3-0.3-0.4-0.8 0-1.2 0.3-0.4 8.5-9.2 27.5-6.6 0.4 0.1 0.8 0.5 0.7 1-0.1 0.4-0.5 0.8-1 0.7-18-2.5-25.9 6-26 6.1q-0.2 0.3-0.6 0.3z"/>
			</g>
		</g>
		<g id="&lt;Group&gt;">
			<g id="&lt;Group&gt;">
				<path id="&lt;Path&gt;" class="s2" d="m202.2 675.9l-9.3 19.9c0 0-9.5-30.7-31.4-53.1-8.3-8.4-15-10.8-18-12.5-3-1.7-23.4-11-20.1-24 3.3-13.1 32.8-12 58.9 27.7 13.4 20.4 19.9 42 19.9 42z"/>
				<path id="&lt;Path&gt;" class="s3" d="m202.2 675.9l-9.3 19.9c0 0-9.5-30.7-31.4-53.1-8.3-8.4-15-10.8-18-12.5-3-1.7-23.4-11-20.1-24 3.3-13.1 32.8-12 58.9 27.7 13.4 20.4 19.9 42 19.9 42z"/>
				<path id="&lt;Path&gt;" class="s4" d="m197.9 686c-0.4 0-0.8-0.3-0.9-0.6 0-0.2-5.4-20.5-23.7-46.4-18.1-25.7-41.2-30.2-41.4-30.2-0.5-0.1-0.8-0.5-0.7-1 0.1-0.5 0.5-0.8 1-0.7 0.2 0 24 4.6 42.6 30.9 18.4 26.2 23.9 46.7 23.9 46.9 0.1 0.5-0.1 1-0.6 1.1q-0.1 0-0.2 0z"/>
			</g>
			<g id="&lt;Group&gt;">
				<path id="&lt;Path&gt;" class="s2" d="m195 691.4l-15.4 33c0 0-13.1 6.5-19.8-5.3-6.8-11.8-3.8-17.7-13.2-18.5-9.4-0.8-11.2 0-14.2-5-3-5-1.2-9.4-1-12.3 0.2-3 1.7-9.9-5.3-13.6-7-3.8-14.9-6.6-10.7-13.4 2.5-4 9.9-6.2 16.8-4.7 6.9 1.5 12.3 2.3 16.8 0.6 4.4-1.6 12.4-6.9 16.6-0.2 4.2 6.7 4.1 10.1 7.7 11.9 6.7 3.4 21.5-2.5 21.7 27.5z"/>
				<path id="&lt;Path&gt;" class="s5" d="m195 691.4l-15.4 33c0 0-13.1 6.5-19.8-5.3-6.8-11.8-3.8-17.7-13.2-18.5-9.4-0.8-11.2 0-14.2-5-3-5-1.2-9.4-1-12.3 0.2-3 1.7-9.9-5.3-13.6-7-3.8-14.9-6.6-10.7-13.4 2.5-4 9.9-6.2 16.8-4.7 6.9 1.5 12.3 2.3 16.8 0.6 4.4-1.6 12.4-6.9 16.6-0.2 4.2 6.7 4.1 10.1 7.7 11.9 6.7 3.4 21.5-2.5 21.7 27.5z"/>
				<path id="&lt;Path&gt;" class="s4" d="m188.7 705.7c-0.3 0-0.6-0.2-0.7-0.4-0.3-0.4-23.6-40.3-67.1-47-0.5-0.1-0.8-0.5-0.7-1 0.1-0.5 0.5-0.8 1-0.7 44.3 6.9 68 47.4 68.3 47.8 0.2 0.4 0.1 0.9-0.3 1.2q-0.2 0.1-0.5 0.1z"/>
				<path id="&lt;Path&gt;" class="s4" d="m161.3 675.8c-0.3 0-0.6-0.1-0.8-0.4-6.6-11.4-3-21.8-2.8-22.3 0.1-0.4 0.6-0.7 1.1-0.5 0.4 0.2 0.7 0.7 0.5 1.1 0 0.1-3.5 10.2 2.7 20.8 0.3 0.4 0.1 1-0.3 1.2q-0.2 0.1-0.4 0.1z"/>
				<path id="&lt;Path&gt;" class="s4" d="m142.1 691q-0.3 0-0.6-0.3c-0.3-0.3-0.3-0.9 0-1.2 14.2-12.9 26-10.2 26.4-10.1 0.5 0.1 0.8 0.6 0.7 1-0.1 0.5-0.6 0.8-1.1 0.7-0.1-0.1-11.4-2.5-24.8 9.7q-0.3 0.2-0.6 0.2z"/>
			</g>
		</g>
	</g>
	<g id="Device">
		<g id="&lt;Group&gt;">
			<g id="&lt;Group&gt;">
				<path id="&lt;Path&gt;" class="s6" d="m439.1 132.8q0 0 0 0z"/>
				<path id="&lt;Path&gt;" class="s6" d="m195.2 273c0-11.8 6.3-22.8 16.6-28.7l211-121.9c6.3-3.6 13.8-0.2 15.8 6.1-1.1-4.9-4.2-9.2-8.6-11.9l-0.8-0.4c-5.3-3.2-11.3-4.8-17.4-4.8-1.8 0-3.7 0.4-5.5 1.5l-211.1 121.8c-10.2 5.9-16.6 16.9-16.6 28.7v456.4c0 8.4 9.1 13.6 16.3 9.4l0.3-0.1z"/>
			</g>
			<path id="&lt;Path&gt;" class="s7" d="m422.6 617l-211.1 121.8c-7.2 4.2-16.3-1-16.3-9.4v-456.4c0-11.8 6.3-22.8 16.6-28.7l211-121.9c7.3-4.2 16.3 1.1 16.3 9.4v456.4c0 11.9-6.3 22.8-16.5 28.8z"/>
			<path id="&lt;Path&gt;" class="s8" d="m195.2 729.4v-456.4c0-5.1 1.2-9.9 3.3-14.4l-16.3-10.1c-2.3 4.6-3.6 9.7-3.6 14.9v455.5 0.9 3.8c0 3.7 2 7.1 5.1 9l8.5 5c2.9 1.8 6.2 2.7 9.6 2.7h4.2c-5.7-0.1-10.8-4.6-10.8-10.9z"/>
			<g id="&lt;Group&gt;">
				<path id="&lt;Path&gt;" class="s6" d="m415.3 166.3v383.6c0 10.5-5.6 20.1-14.7 25.4l-186.3 107.6c-1.5 0.8-3.1 1.2-4.6 1.2 2.1 5.1 8.4 7.5 13.6 4.5l186.3-107.6c9.1-5.2 14.7-14.9 14.7-25.3v-379.8c0-5.4-4.2-9.3-9-9.6z"/>
				<g id="&lt;Group&gt;">
					<path id="&lt;Path&gt;" class="s2" d="m209.7 684.1c1.5 0 3.1-0.4 4.6-1.2l186.3-107.6c9.1-5.3 14.7-14.9 14.7-25.4v-383.6c0.9 0.1-2.8-0.2-5.4 1.3l-186.4 107.5c-9 5.3-14.6 15-14.6 25.4v379.8c0 1.4 0.3 2.7 0.8 3.9q0 0 0-0.1z"/>
				</g>
				<g id="&lt;Group&gt;" style="opacity: .5">
					<path id="&lt;Path&gt;" class="s4" d="m209.7 684.1c1.5 0 3.1-0.4 4.6-1.2l186.3-107.6c9.1-5.3 14.7-14.9 14.7-25.4v-383.6c0.9 0.1-2.8-0.2-5.4 1.3l-186.4 107.5c-9 5.3-14.6 15-14.6 25.4v379.8c0 1.4 0.3 2.7 0.8 3.9q0 0 0-0.1z"/>
				</g>
			</g>
			<g id="&lt;Group&gt;">
				<path id="&lt;Path&gt;" class="s8" d="m287.6 218.9c0 2.2-1.5 4.8-3.3 5.8-1.9 1.1-3.4 0.2-3.4-1.9 0-2.1 1.5-4.7 3.4-5.8 1.8-1.1 3.3-0.2 3.3 1.9z"/>
				<path id="&lt;Path&gt;" class="s8" d="m300.1 211.7c0 2.2-1.5 4.8-3.3 5.8-1.9 1.1-3.4 0.2-3.4-1.9 0-2.1 1.5-4.7 3.4-5.8 1.8-1.1 3.3-0.2 3.3 1.9z"/>
				<path id="&lt;Path&gt;" class="s8" d="m350.5 186.5l-40.6 23.4c-1.6 1-2.9 0-2.9-2.2 0-2.1 1.3-4.6 2.9-5.5l40.6-23.4c1.6-1 2.9 0 2.9 2.1 0 2.2-1.3 4.7-2.9 5.6z"/>
			</g>
			<path id="&lt;Compound Path&gt;" fill-rule="evenodd" class="s8" d="m349.3 637.9c0 6.9-4.2 14.9-9.4 17.9l-19.4 11.2c-1.3 0.8-2.6 1.2-3.7 1.2-3.3 0-5.7-3.1-5.7-8.3 0-6.9 4.2-14.9 9.4-17.9l19.4-11.2c1.4-0.7 2.6-1.1 3.8-1.1 3.3 0 5.6 3.1 5.6 8.2zm-8.5-5.6l-19.5 11.2c-4.6 2.6-8.5 10.2-8.5 16.4 0 4 1.6 6.6 4 6.6q1.3 0 2.9-0.9l19.4-11.2c4.6-2.7 8.5-10.2 8.5-16.5 0-4-1.5-6.5-3.9-6.5q-1.4 0-2.9 0.9z"/>
		</g>
	</g>
	<g id="Screen">
		<g id="&lt;Group&gt;">
			<g id="&lt;Group&gt;">
				<g id="&lt;Group&gt;">
					<g id="&lt;Group&gt;">
						<path id="&lt;Path&gt;" class="s9" d="m236.4 327.4v430c0 7.8 2.8 13 7.2 14.7l0.1 0.1 18.6 10.2-0.1-16.6-2-445.8-19.7-10.1c-2.6 5.6-4.1 11.8-4.1 17.5z"/>
						<path id="&lt;Compound Path&gt;" fill-rule="evenodd" class="s9" d="m263.3 784.1l-20.1-11.1c-5-2-7.8-7.8-7.8-15.6v-430c0-5.6 1.5-12 4.2-17.9l0.5-0.9 21.1 10.8v0.6l2 445.8zm-19.1-12.7l17.1 9.3-0.1-14.8-2-445.2-18.2-9.3c-2.3 5.3-3.6 11-3.6 16.1v430c0 7 2.4 12.1 6.6 13.8l0.2 0.1z"/>
					</g>
					<g id="&lt;Group&gt;">
						<path id="&lt;Path&gt;" class="s1" d="m240.5 309.9l19.7 10.1 210-122.2 14-8.2-19.4-10.9-0.5-0.3c-3.1-1.9-7.2-1.8-11.6 0.8l-198.8 114.8c-5.4 3.1-10.2 9-13.4 15.9z"/>
						<path id="&lt;Compound Path&gt;" fill-rule="evenodd" class="s1" d="m260.2 321q-0.3 0-0.5-0.1l-19.6-10.1c-0.5-0.2-0.7-0.8-0.5-1.3 3.4-7.3 8.5-13.3 13.8-16.4l198.8-114.8c4.6-2.6 9.1-2.9 12.6-0.8q0.1 0.1 0.1 0.1l0.4 0.3 19.4 10.9c0.3 0.1 0.5 0.5 0.5 0.8 0 0.4-0.2 0.7-0.5 0.9l-224 130.3q-0.3 0.2-0.5 0.2zm-18.3-11.5l18.2 9.3 222.1-129.1-18.4-10.4q-0.1-0.1-0.2-0.2c-2.8-1.6-6.5-1.3-10.4 1l-198.8 114.8c-4.8 2.7-9.3 8-12.5 14.6z"/>
					</g>
					<path id="&lt;Path&gt;" class="s10" d="m255.6 338.2v428.1c0 6.7 2.2 11.5 5.6 13.8l1.1 0.6c3 1.4 6.8 1.1 10.8-1.2l96.1-55.5 102.7-61.8c9.7-5.6 17.5-18.1 17.5-30.9v-428c0-6.6-2-11.3-5.2-13.7q-0.8-0.6-1.8-1c-2.9-1.2-6.5-0.8-10.5 1.4l-198.8 116.7c-5.1 3-9.7 6.7-12.9 13.3-2.9 5.7-4.6 12.2-4.6 18.2z"/>
				</g>
				<g id="&lt;Group&gt;">
					<path id="&lt;Path&gt;" class="s10" d="m471.9 662.2c-40.9 24.4-147.3 87.9-200 119.6-6.9 4.2-15.7-0.8-15.7-8.8v-440.2c0-10.2 5.4-19.6 14.2-24.7l202.5-118.7c6.9-4 15.6 1 15.6 8.9v434.8c0 11.9-6.3 23-16.6 29.1z"/>
					<path id="&lt;Path&gt;" class="s11" d="m471.4 661.3q-48.2 28.8-96.3 57.5-28.5 17.1-57 34.1-13 7.8-26 15.6-5.7 3.5-11.4 6.9c-3.5 2.1-7.2 5.1-11.1 6.4-6.4 2.3-12.2-2.9-12.4-9.2 0-1 0-2.1 0-3.1q0-7.4 0-14.8 0-28.9 0-57.9 0-41.4 0-82.8 0-46.5 0-93 0-43.8 0-87.6 0-33.7 0-67.4c0-10.8 0-21.5 0-32.3 0.1-10.5 5.2-19.7 14.3-25.1q7-4.1 14-8.2 32.7-19.2 65.4-38.3 38.7-22.7 77.5-45.4c14.7-8.6 29.3-17.3 44.1-25.9 4.5-2.6 10.3-2.4 13.4 2.4 1.3 2 1.5 4.1 1.6 6.3q0 5.8 0 11.5 0 26.6 0 53.2 0 40.2 0 80.4 0 46.2 0 92.4 0 44.6 0 89.1 0 34.9 0 69.8 0 17.8 0 35.5c0 12.3-5.4 23.4-16.1 29.9-1.1 0.7-0.1 2.4 1 1.8 11.2-6.9 17.1-18.5 17.1-31.4q0-6.2 0-12.3 0-27.5 0-55 0-41.2 0-82.4 0-47.2 0-94.4 0-44.5 0-89 0-34.2 0-68.4c0-10.4 0.1-20.9 0-31.3-0.1-9.5-9.7-14.6-17.8-10-4.9 2.9-9.7 5.7-14.6 8.6q-33.6 19.7-67.2 39.4-39.1 22.9-78.2 45.8c-13.8 8.1-27.7 16.1-41.4 24.3-9.6 5.7-15 15.6-15.1 26.6q0 5.4 0 10.8 0 26.3 0 52.5 0 40.3 0 80.7 0 47 0 93.9 0 45.2 0 90.3 0 35.9 0 71.8 0 18.6 0 37.3c0 0.7 0 1.4 0 2 0.3 7.6 7.5 13.3 14.9 10.9 3.8-1.3 7.4-4.1 10.8-6.2q5.8-3.5 11.6-7 12.9-7.7 25.9-15.5 56.8-34 113.6-67.9 20.2-12.1 40.4-24.1c1.1-0.7 0.1-2.4-1-1.8z"/>
				</g>
				<path id="&lt;Path&gt;" class="s11" d="m270.4 308.1l202.5-118.7c6.9-4 15.6 1 15.6 8.9v19.1h-0.1l-232.2 134.1v-18.7c0-10.2 5.4-19.6 14.2-24.7z"/>
			</g>
			<g id="&lt;Group&gt;">
				<path id="&lt;Path&gt;" class="s2" d="m424.9 360.3c0 33.5-23.5 74.3-52.6 91.1-29 16.7-52.5 3.1-52.5-30.4 0-33.5 23.5-74.3 52.5-91.1 29.1-16.7 52.6-3.1 52.6 30.4z"/>
				<path id="&lt;Path&gt;" class="s12" d="m424.9 360.3c0 33.5-23.5 74.3-52.6 91.1-29 16.7-52.5 3.1-52.5-30.4 0-33.5 23.5-74.3 52.5-91.1 29.1-16.7 52.6-3.1 52.6 30.4z"/>
				<g id="&lt;Group&gt;">
					<path id="&lt;Path&gt;" class="s6" d="m362.9 390.9c-1.3 0-2.3-1.1-2.3-2.4v-15.5c0-6.9 4.6-15 10.6-18.4 3.2-1.9 6.5-2.1 9-0.7 2.5 1.5 3.9 4.4 3.9 8.2v15.5c0 1.3-1 2.4-2.3 2.4-1.3 0-2.4-1.1-2.4-2.4v-15.5c0-2-0.6-3.5-1.6-4.1-1-0.6-2.5-0.3-4.3 0.7-4.4 2.6-8.2 9.1-8.2 14.3v15.5c0 1.3-1.1 2.4-2.4 2.4z"/>
					<g id="&lt;Group&gt;">
						<path id="&lt;Path&gt;" class="s2" d="m391.4 367.6c-0.9-0.4-2.1-0.3-3.3 0.4l-31.5 18.1c-1.2 0.8-2.4 2-3.3 3.5-1.2 2-2 4.5-2 6.8v27.2c0 2 0.6 3.4 1.5 4.2q0.3 0.2 0.6 0.3c0.9 0.4 2 0.3 3.2-0.4l31.5-18.2c2.9-1.7 5.3-6.3 5.3-10.2v-27.3c0-2.2-0.8-3.8-2-4.4z"/>
					</g>
					<g id="&lt;Group&gt;">
						<path id="&lt;Path&gt;" class="s7" d="m375.9 396l3.1 8.7-10.7 6.1 2.7-10.7 0.3-1.5c-1.8 0-3-1.4-3-3.8 0-1 0.2-2 0.5-2.9 0.8-2.6 2.7-5.1 4.8-6.4 3-1.7 5.4-0.3 5.4 3.1 0 2.5-1.3 5.3-3.1 7.3z"/>
						<path id="&lt;Path&gt;" class="s6" d="m371 400.1l0.3-1.5c-1.8 0-3-1.4-3-3.8 0-1 0.2-2 0.5-2.9l7.1 4.1 3.1 8.7z"/>
					</g>
				</g>
			</g>
			<g id="&lt;Group&gt;">
				<path id="&lt;Path&gt;" class="s2" d="m449.9 491.3l-155.1 89.6c-6.4 3.7-11.6-0.3-11.6-8.8v-23.5c0-8.6 5.2-18.5 11.6-22.2l155.1-89.6c6.4-3.7 11.6 0.3 11.6 8.8v23.5c0 8.6-5.2 18.5-11.6 22.2z"/>
				<g id="&lt;Group&gt;">
					<g id="&lt;Group&gt;">
						<path id="&lt;Path&gt;" class="s10" d="m322.7 549.1h-3v-24.8h3z"/>
						<path id="&lt;Path&gt;" class="s10" d="m311.2 544.2l-1.5-2.6 21.5-12.4 1.5 2.6z"/>
						<path id="&lt;Path&gt;" class="s10" d="m328.1 542.4l-15.3-8.8 1.5-2.6 15.3 8.8z"/>
						<path id="&lt;Path&gt;" class="s10" d="m314.9 550.6l-2.6-1.5 15.2-26.3 2.6 1.5z"/>
					</g>
					<g id="&lt;Group&gt;">
						<path id="&lt;Path&gt;" class="s10" d="m373.8 521.3h-3v-24.9h3z"/>
						<path id="&lt;Path&gt;" class="s10" d="m362.3 516.4l-1.5-2.6 21.6-12.5 1.5 2.6z"/>
						<path id="&lt;Path&gt;" class="s10" d="m379.2 514.5l-15.2-8.8 1.5-2.5 15.2 8.7z"/>
						<path id="&lt;Path&gt;" class="s10" d="m366 522.8l-2.6-1.5 15.3-26.4 2.6 1.5z"/>
					</g>
					<g id="&lt;Group&gt;">
						<path id="&lt;Path&gt;" class="s10" d="m425 493.4h-3v-24.8h3z"/>
						<path id="&lt;Path&gt;" class="s10" d="m413.5 488.5l-1.5-2.6 21.5-12.4 1.5 2.6z"/>
						<path id="&lt;Path&gt;" class="s10" d="m430.3 486.7l-15.2-8.8 1.5-2.6 15.2 8.8z"/>
						<path id="&lt;Path&gt;" class="s10" d="m417.2 494.9l-2.6-1.5 15.2-26.3 2.6 1.5z"/>
					</g>
				</g>
			</g>
			<g id="&lt;Group&gt;">
				<path id="&lt;Compound Path&gt;" fill-rule="evenodd" class="s2" d="m461.5 529.9v23.5c0 8.5-5.2 18.5-11.6 22.2l-155.1 89.5c-1.6 0.9-3.2 1.4-4.6 1.4-4.1 0-7-3.8-7-10.2v-23.5c0-8.5 5.2-18.5 11.6-22.2l155.1-89.5c1.6-1 3.2-1.4 4.6-1.4 4.1 0 7 3.8 7 10.2zm-9.6-5.4l-155.1 89.6c-5.2 3-9.6 11.6-9.6 18.7v23.5c0 3.1 0.9 6.2 3 6.2 0.7 0 1.6-0.3 2.6-0.9l155.1-89.5c5.2-3 9.6-11.6 9.6-18.7v-23.5c0-3.1-0.9-6.2-3-6.2-0.7 0-1.6 0.3-2.6 0.8z"/>
				<text id="enter
" style="transform: matrix(1.732,-1,0,2,334.301,621.896)" >
					<tspan x="0" y="0" class="t13" dx="0 2 2 2 2 2" >enter
</tspan>
				</text>
			</g>
		</g>
	</g>
	<g id="Icons">
		<g id="&lt;Group&gt;">
			<path id="&lt;Path&gt;" class="s7" d="m682.8 256.6c0 2.9 2.1 6.4 4.6 7.9 2.6 1.4 4.6 0.2 4.6-2.6 0-2.9-2-6.5-4.6-7.9-2.5-1.4-4.6-0.3-4.6 2.6z"/>
			<path id="&lt;Path&gt;" class="s7" d="m620.8 275.3c-3.5-0.1-7.4-1.2-11.5-3.5l-14.6-8.3c-0.5-0.3-0.7-0.9-0.4-1.4 0.3-0.4 0.9-0.6 1.4-0.3l14.6 8.3c6.4 3.5 12.2 4.1 16.6 1.6 4.2-2.5 6.6-7.7 6.6-14.7 0-7.8 2.7-13.6 7.5-16.5 5-2.9 11.6-2.3 18.6 1.7l23.7 13.4c0.5 0.3 0.6 0.9 0.4 1.3-0.3 0.5-0.9 0.7-1.4 0.4l-23.7-13.4c-6.3-3.6-12.2-4.2-16.5-1.6-4.3 2.4-6.6 7.7-6.6 14.7 0 7.7-2.7 13.6-7.6 16.4-2.1 1.2-4.5 1.8-7.1 1.8z"/>
			<path id="&lt;Path&gt;" class="s7" d="m588.6 259c0 2.4 1.7 5.2 3.8 6.4 2 1.1 3.7 0.2 3.7-2.2 0-2.3-1.7-5.1-3.7-6.3-2.1-1.2-3.8-0.2-3.8 2.1z"/>
		</g>
		<g id="&lt;Group&gt;">
			<path id="&lt;Path&gt;" class="s7" d="m682.8 431.4c0 2.9 2.1 6.4 4.6 7.9 2.6 1.4 4.6 0.3 4.6-2.6 0-2.9-2-6.4-4.6-7.9-2.5-1.4-4.6-0.3-4.6 2.6z"/>
			<path id="&lt;Path&gt;" class="s7" d="m683 433.6q-0.3 0-0.5-0.1l-23.7-13.4c-13.9-7.9-25.2-27.1-25.2-42.8 0-15-10.8-33.4-24.1-41l-14.8-8.4c-0.5-0.2-0.7-0.8-0.4-1.3 0.3-0.5 0.9-0.7 1.4-0.4l14.8 8.4c13.9 7.9 25.1 27 25.1 42.7 0 15.1 10.9 33.5 24.2 41l23.7 13.5c0.4 0.2 0.6 0.8 0.3 1.3-0.2 0.3-0.5 0.5-0.8 0.5z"/>
			<path id="&lt;Path&gt;" class="s7" d="m588.6 323.1c0 2.3 1.7 5.2 3.8 6.3 2 1.2 3.7 0.3 3.7-2.1 0-2.3-1.7-5.2-3.7-6.3-2.1-1.2-3.8-0.3-3.8 2.1z"/>
		</g>
		<g id="&lt;Group&gt;">
			<g id="&lt;Group&gt;">
				<path id="&lt;Path&gt;" class="s2" d="m825.2 237.8l-98-55.5c-2.8-1.6-5.3-1.5-7.1 0l-8.5 5.8 5.8 7.2v103.2c0 7.2 4.4 15.6 9.8 18.8l95.6 54 0.4 7.7 8.9-6.1c1.8-1.3 2.9-4 2.9-7.6v-108.8c0-7.2-4.4-15.6-9.8-18.7z"/>
				<path id="&lt;Path&gt;" class="s14" d="m825.2 237.8l-98-55.5c-2.8-1.6-5.3-1.5-7.1 0l-8.5 5.8 5.8 7.2v103.2c0 7.2 4.4 15.6 9.8 18.8l95.6 54 0.4 7.7 8.9-6.1c1.8-1.3 2.9-4 2.9-7.6v-108.8c0-7.2-4.4-15.6-9.8-18.7z"/>
				<path id="&lt;Path&gt;" class="s2" d="m816.9 378.5l-98-55.5c-5.4-3.1-9.8-11.5-9.8-18.8v-108.8c0-7.2 4.4-10.5 9.8-7.4l98 55.5c5.4 3.1 9.8 11.5 9.8 18.7v108.9c0 7.2-4.4 10.5-9.8 7.4z"/>
			</g>
			<g id="&lt;Group&gt;">
				<path id="&lt;Path&gt;" class="s4" d="m796.3 284.3c-0.5 0-0.9-0.3-1-0.7-2-7.7-5.4-15.2-9.6-21.9-0.3-0.4-0.1-1.1 0.3-1.4 0.5-0.3 1.1-0.1 1.4 0.4 4.3 6.8 7.7 14.5 9.8 22.3 0.2 0.6-0.1 1.1-0.7 1.3q-0.1 0-0.2 0z"/>
				<path id="&lt;Path&gt;" class="s4" d="m798.5 304.6q0 0 0 0c-0.6 0-1-0.5-1-1q0.1-1.6 0.1-3.4c0-3.2-0.3-6.7-0.9-10.2-0.1-0.5 0.3-1 0.8-1.1 0.6-0.1 1.1 0.2 1.2 0.8 0.6 3.6 0.9 7.1 0.9 10.5q0 1.8-0.1 3.5c0 0.5-0.5 0.9-1 0.9z"/>
				<path id="&lt;Path&gt;" class="s4" d="m737.3 271.4c-0.5 0-0.9-0.3-0.9-0.9q-0.3-2.6-0.3-5.1c0-9.7 2.6-17.7 7.4-22.6 0.4-0.4 1-0.4 1.4 0 0.4 0.4 0.4 1 0 1.4-4.4 4.5-6.8 12-6.8 21.2q0 2.4 0.2 5c0.1 0.5-0.3 1-0.9 1q0 0-0.1 0z"/>
				<path id="&lt;Path&gt;" class="s4" d="m781.6 255.3c-0.3 0-0.6-0.2-0.8-0.4-4.2-5.1-8.7-9.1-13.4-11.8-6.7-3.7-12.9-4.4-18-2.1-0.5 0.3-1.1 0.1-1.4-0.4-0.2-0.5 0-1.1 0.5-1.4 5.8-2.6 12.6-1.9 19.9 2.2 4.9 2.8 9.6 6.9 14 12.2 0.3 0.5 0.2 1.1-0.2 1.4q-0.3 0.3-0.6 0.3z"/>
				<path id="&lt;Path&gt;" class="s4" d="m744.2 272.2c-0.5 0-0.9-0.4-1-0.9q0-1 0-1.9c0-7.1 1.7-12.9 5-16.8 0.4-0.4 1-0.4 1.4-0.1 0.5 0.4 0.5 1 0.2 1.4-3 3.5-4.6 8.9-4.6 15.5q0 0.9 0 1.8c0.1 0.5-0.4 1-0.9 1q0 0-0.1 0z"/>
				<path id="&lt;Path&gt;" class="s4" d="m752.1 251.6c-0.3 0-0.7-0.2-0.9-0.5-0.3-0.4-0.1-1 0.4-1.3 2.5-1.6 5.3-2.2 8.5-1.9 0.5 0.1 0.9 0.6 0.9 1.1-0.1 0.6-0.6 0.9-1.1 0.9q-4.1-0.4-7.3 1.6-0.2 0.1-0.5 0.1z"/>
				<path id="&lt;Path&gt;" class="s4" d="m796.3 317.5c-0.4 0-0.8-0.2-1-0.6l-1.1-2.9c-2.4-5.9-3.7-12-3.6-17.7 0-17-10.4-36.6-23.2-43.8-0.5-0.3-0.7-0.9-0.4-1.4 0.3-0.5 0.9-0.6 1.4-0.4 13.3 7.6 24.2 28 24.2 45.5-0.1 5.5 1.1 11.4 3.4 17l1.2 2.9c0.2 0.5 0 1.1-0.5 1.3q-0.2 0.1-0.4 0.1z"/>
				<path id="&lt;Path&gt;" class="s4" d="m750.4 306c-0.4 0-0.8-0.2-1-0.7-5-13.7-6.2-29-6.2-29.2 0-0.5 0.4-1 0.9-1 0.5-0.1 1.1 0.3 1.1 0.9 0 0.1 1.2 15.2 6.1 28.7 0.2 0.5-0.1 1.1-0.6 1.2q-0.2 0.1-0.3 0.1z"/>
				<path id="&lt;Path&gt;" class="s4" d="m790.4 324.2c-0.4 0-0.8-0.2-0.9-0.6l-2.7-7.2c-2.8-7.6-4.3-15.2-4.3-22v-7.8c0-9.4-6.7-20.8-15-25.4-3.8-2.2-7.4-2.6-10-1.1-2.5 1.5-3.9 4.7-3.9 9v6.9c0 10.2 2.3 21.6 6.7 33l3.3 8.6c0.2 0.5-0.1 1.1-0.6 1.3-0.5 0.2-1.1-0.1-1.3-0.6l-3.3-8.6c-4.4-11.6-6.8-23.3-6.8-33.7v-6.9c0-5 1.7-8.8 4.9-10.7 3.3-1.9 7.5-1.5 12 1 8.8 5 16 17.2 16 27.2v7.8c0 6.6 1.4 13.9 4.2 21.3l2.6 7.2c0.2 0.5 0 1.1-0.6 1.3q-0.1 0-0.3 0z"/>
				<path id="&lt;Path&gt;" class="s4" d="m781.6 327.1c-0.5 0-0.9-0.3-1-0.7l-1.4-4.7c-2.6-8.9-4-17.5-4-25.6v-12.1c0-5.1-3.6-11.2-8-13.7-2-1.1-3.8-1.3-5.1-0.5-1.2 0.7-1.9 2.3-1.9 4.5 0 13.5 4.1 29.1 11.5 43.9l2.9 5.5c0.2 0.5 0 1.1-0.5 1.4-0.5 0.2-1.1 0-1.3-0.5l-2.8-5.5c-7.7-15.1-11.8-31-11.8-44.8 0-2.9 1-5.2 2.9-6.3 1.9-1.1 4.5-0.9 7.1 0.6 5 2.8 9 9.7 9 15.4v12.1c0 7.9 1.3 16.3 3.9 25l1.4 4.7c0.2 0.6-0.1 1.1-0.6 1.3q-0.2 0-0.3 0z"/>
				<path id="&lt;Path&gt;" class="s4" d="m770.4 306c-0.5 0-0.9-0.3-1-0.8l-0.9-4.3c-0.9-4.1-1.4-8.3-1.4-12.5v-11.2c0-0.6 0.5-1 1-1 0.6 0 1 0.4 1 1v11.2c0 4.1 0.5 8.2 1.3 12.1l0.9 4.3c0.2 0.5-0.2 1.1-0.7 1.2q-0.1 0-0.2 0z"/>
				<path id="&lt;Path&gt;" class="s4" d="m739.5 284.3c-0.5 0-0.9-0.4-1-0.9l-0.6-5.8c0-0.6 0.4-1.1 0.9-1.1 0.6-0.1 1.1 0.3 1.1 0.9l0.6 5.8c0.1 0.6-0.3 1-0.9 1.1q0 0-0.1 0z"/>
			</g>
		</g>
		<g id="&lt;Group&gt;">
			<g id="&lt;Group&gt;">
				<path id="&lt;Path&gt;" class="s2" d="m825.2 423.1l-98-55.5c-2.8-1.6-5.3-1.5-7.1 0l-8.5 5.8 5.8 7.2v103.2c0 7.2 4.4 15.6 9.8 18.8l95.6 54 0.4 7.7 8.9-6.1c1.8-1.3 2.9-4 2.9-7.6v-108.8c0-7.2-4.4-15.6-9.8-18.7z"/>
				<path id="&lt;Path&gt;" class="s14" d="m825.2 423.1l-98-55.5c-2.8-1.6-5.3-1.5-7.1 0l-8.5 5.8 5.8 7.2v103.2c0 7.2 4.4 15.6 9.8 18.8l95.6 54 0.4 7.7 8.9-6.1c1.8-1.3 2.9-4 2.9-7.6v-108.8c0-7.2-4.4-15.6-9.8-18.7z"/>
				<path id="&lt;Path&gt;" class="s2" d="m816.9 563.8l-98-55.5c-5.4-3.1-9.8-11.5-9.8-18.8v-108.8c0-7.2 4.4-10.5 9.8-7.4l98 55.5c5.4 3.1 9.8 11.5 9.8 18.7v108.9c0 7.2-4.4 10.5-9.8 7.4z"/>
			</g>
			<g id="&lt;Group&gt;">
				<path id="&lt;Path&gt;" class="s4" d="m730.9 411.1c-0.6 0-1-0.5-1-1v-6.7c0-1.4 0.7-2.6 1.9-3.3 1.2-0.7 2.7-0.8 3.9-0.1l7.1 4c0.4 0.3 0.6 0.9 0.3 1.4-0.2 0.5-0.8 0.7-1.3 0.4l-7.1-4c-0.6-0.4-1.3-0.3-1.9 0-0.6 0.3-0.9 0.9-0.9 1.6v6.7c0 0.5-0.4 1-1 1z"/>
				<path id="&lt;Path&gt;" class="s4" d="m742.3 503.8q-0.3 0.1-0.5-0.1l-6.6-3.7c-3.3-1.9-5.3-5.3-5.3-9v-6.2c0-0.6 0.4-1 1-1 0.6 0 1 0.4 1 1v6.2c0 3 1.6 5.7 4.3 7.2l6.6 3.8c0.4 0.3 0.6 0.9 0.3 1.3-0.1 0.4-0.5 0.5-0.8 0.5z"/>
				<path id="&lt;Path&gt;" class="s4" d="m802 537.3q-1 0-1.9-0.6l-7.1-4c-0.5-0.2-0.7-0.8-0.4-1.3 0.3-0.5 0.9-0.7 1.4-0.4l7.1 4c0.6 0.3 1.3 0.3 1.9 0 0.5-0.3 0.9-0.9 0.9-1.6v-6.7c0-0.6 0.4-1 1-1 0.5 0 1 0.4 1 1v6.7c0 1.4-0.7 2.6-1.9 3.3q-1 0.6-2 0.6z"/>
				<path id="&lt;Path&gt;" class="s4" d="m804.9 453c-0.6 0-1-0.4-1-1v-6.2c0-3-1.7-5.8-4.3-7.2l-6.6-3.8c-0.5-0.3-0.7-0.9-0.4-1.4 0.3-0.4 0.9-0.6 1.4-0.3l6.6 3.7c3.2 1.9 5.3 5.3 5.3 9v6.2c0 0.6-0.5 1-1 1z"/>
			</g>
			<g id="&lt;Group&gt;">
				<path id="&lt;Path&gt;" class="s4" d="m739.8 444.7c0.1 11.9 2 23.2 4.8 33.6 7.6 28.7 37.6 46.3 45.8 26.9 3.3-7.7 5.6-17.6 5.6-30.1 0-17.6-12.6-39-28.1-47.8-15.9-9-28.4-0.6-28.1 17.4z"/>
			</g>
			<path id="&lt;Path&gt;" class="s1" d="m766.9 460.8v18.8l-8.2-6.1z"/>
			<g id="&lt;Group&gt;">
				<path id="&lt;Path&gt;" class="s1" d="m751.7 449.5c0 1.7 1.2 3.7 2.6 4.6 1.5 0.8 2.7 0.2 2.7-1.5 0-1.7-1.2-3.8-2.7-4.6-1.4-0.9-2.6-0.2-2.6 1.5z"/>
				<path id="&lt;Path&gt;" class="s1" d="m776.7 463.9c0 1.6 1.2 3.7 2.7 4.5 1.5 0.9 2.7 0.2 2.7-1.5 0-1.7-1.2-3.7-2.7-4.6-1.5-0.8-2.7-0.1-2.7 1.6z"/>
			</g>
			<path id="&lt;Path&gt;" class="s1" d="m764.2 488.8l9.1-1.5c0 0-1.9 9.7-9.1 1.5z"/>
		</g>
	</g>
	<g id="Character">
		<g id="&lt;Group&gt;">
			<path id="&lt;Path&gt;" class="s15" d="m616.8 506.4c0 0 14.5-1 22.8 19.3 5.1 12.6 11.4 32 15.4 45 2.5 8-0.1 16.7-6.5 22.1l-25.4 21.4-9.1-16.6c0 0 9.8-13 17.3-19.8l-17.3-52.1z"/>
			<path id="&lt;Path&gt;" class="s2" d="m623.5 568.3c0 0 23.1 3 28.9-14.8 0 0-9.9-26.2-14.5-34.8-4.5-8.7-13.8-15-21.1-12.3-7.4 2.7 6.7 61.9 6.7 61.9z"/>
			<path id="&lt;Path&gt;" class="s16" d="m623.5 568.3c0 0 23.1 3 28.9-14.8 0 0-9.9-26.2-14.5-34.8-4.5-8.7-13.8-15-21.1-12.3-7.4 2.7 6.7 61.9 6.7 61.9z"/>
			<path id="&lt;Path&gt;" class="s6" d="m608 802.8c0 0-11-9.4-15.3-9.9-4.2-0.4-11.6 6.9-5.4 19.6 1.8 3.6 8.8 7.4 13.3 14.2 4.4 6.7 8.3 11.8 15.1 10.9 6.8-0.9 7.7-4.7 7.2-9.2-0.4-4.4-2.4-12-2.4-12z"/>
			<path id="&lt;Path&gt;" class="s8" d="m616.1 835.6c-7 0.9-11.1-4.3-15.7-11.3-4.5-7-11.8-10.9-13.6-14.6q-1.2-2.4-1.8-4.5c0.3 2.2 1 4.6 2.3 7.3 1.8 3.6 8.8 7.4 13.3 14.2 4.4 6.7 8.3 11.8 15.1 10.9 5.2-0.7 6.9-3.1 7.3-6.2-0.9 2.1-2.9 3.6-6.9 4.2z"/>
			<path id="&lt;Path&gt;" class="s11" d="m602.2 814.9q-0.3 0-0.5-0.1c-0.6-0.3-0.8-0.9-0.5-1.5 0.2-0.2 3.6-6.5 10.4-8.1 0.6-0.1 1.1 0.3 1.2 0.8 0.2 0.6-0.2 1.2-0.8 1.3-5.8 1.3-8.9 7-8.9 7-0.2 0.4-0.6 0.6-0.9 0.6z"/>
			<path id="&lt;Path&gt;" class="s11" d="m598 811.1q-0.2 0-0.5-0.1c-0.5-0.3-0.7-0.9-0.4-1.4 0.1-0.3 3.6-6.6 10.4-8.2 0.5-0.1 1.1 0.3 1.2 0.8 0.2 0.6-0.2 1.2-0.8 1.3-5.8 1.3-8.9 7-8.9 7.1-0.2 0.3-0.6 0.5-1 0.5z"/>
			<path id="&lt;Path&gt;" class="s11" d="m593.3 807.3q-0.2 0-0.5-0.1c-0.5-0.3-0.7-0.9-0.4-1.4 0.1-0.3 3.6-6.6 10.4-8.1 0.5-0.2 1.1 0.2 1.2 0.8 0.2 0.5-0.2 1.1-0.8 1.2-5.8 1.4-8.9 7-8.9 7.1-0.2 0.3-0.6 0.5-1 0.5z"/>
			<path id="&lt;Path&gt;" class="s6" d="m549.5 833.7c0 0-14.8-4.8-19.2-3.5-4.4 1.4-8.7 11.6 2.7 21.6 3.2 2.8 11.7 3.7 18.9 8.5 7.1 4.9 13.2 8.3 19.5 4.6 6.3-3.7 5.8-7.9 4.6-12.6-1.4-5.8-2.5-10.1-2.5-10.1z"/>
			<path id="&lt;Path&gt;" class="s8" d="m570.9 862.8c-6.5 3.8-12.7 0.3-20.1-4.8-7.4-5-16.2-5.9-19.4-8.7q-2.2-1.9-3.7-3.8c1.2 2.1 2.9 4.2 5.3 6.3 3.2 2.8 11.7 3.7 18.9 8.5 7.1 4.9 13.2 8.3 19.5 4.6 4.8-2.8 5.5-5.9 4.6-9.1-0.1 2.4-1.4 4.8-5.1 7z"/>
			<path id="&lt;Path&gt;" class="s11" d="m545.9 847.3q0 0-0.1 0c-0.5 0-1-0.6-0.9-1.2 0-0.3 0.8-7.9 6.8-12.2 0.5-0.3 1.2-0.2 1.5 0.3 0.4 0.5 0.3 1.1-0.2 1.5-5.2 3.7-6 10.6-6 10.7 0 0.5-0.5 0.9-1.1 0.9z"/>
			<path id="&lt;Path&gt;" class="s11" d="m552 849.3q0 0-0.1 0c-0.6-0.1-1-0.6-0.9-1.2 0-0.3 0.8-7.9 6.8-12.2 0.5-0.3 1.2-0.2 1.5 0.3 0.4 0.5 0.2 1.1-0.2 1.5-5.3 3.7-6 10.6-6 10.6-0.1 0.6-0.5 1-1.1 1z"/>
			<path id="&lt;Path&gt;" class="s11" d="m540.3 845.3q0 0-0.1 0c-0.6-0.1-1-0.6-0.9-1.2 0-0.3 0.8-7.9 6.8-12.2 0.5-0.4 1.2-0.2 1.5 0.2 0.3 0.5 0.2 1.2-0.2 1.5-5.3 3.7-6 10.6-6 10.7-0.1 0.6-0.5 1-1.1 1z"/>
			<g id="&lt;Group&gt;">
				<path id="&lt;Path&gt;" class="s7" d="m621.2 805.6c1.3-14.6 4.2-37.5 5.4-48.2 2.1-19.1 0.2-33.7-1.2-40.6q-0.9-4.8-0.4-9.6c2.9-29.1 4.7-76.2 3.1-86.6l-40.8 8.7c0 0 5 66.1 7.2 88.1 2.2 22.1 10.4 88.4 10.4 88.4 3.4 2 9.6 4.2 16.3-0.2z"/>
				<path id="&lt;Path&gt;" class="s15" d="m615.3 820.6c3.6-0.5 5.2-4.2 5.2-4.2 0-2.3 0.3-6.1 0.7-10.8-6.7 4.4-12.9 2.2-16.3 0.2l1.5 12.3c1.6 1.9 5.4 3.1 8.9 2.5z"/>
			</g>
			<path id="&lt;Path&gt;" class="s7" d="m575.3 831.3c1.6-22.1 4.9-65 5.3-71.7 0.4-6.8-0.3-16.1-1.4-22.2-0.7-4-0.7-8 0-12l18-99.6-49.4-0.7-3.2 104.3q0 2 0.2 4l10.4 97.3c0 0 10.2 8.5 20.1 0.6z"/>
			<path id="&lt;Path&gt;" class="s15" d="m567 849.5c3.6-0.3 6.8-3.3 7.3-5.1 0 0 0.4-5.2 1-13.1-9.9 7.9-20.1-0.6-20.1-0.6l1.6 14.5c0 0 2.3 5.1 10.2 4.3z"/>
			<path id="&lt;Path&gt;" class="s2" d="m570.6 513l-11.6 4-12.5 59.2 0.6 52.5c0 0 8.9 7.2 43.9 7.2 19.6 0 32.3-7.4 37.1-15.3l-3.1-31.7c0 0 3.1-31.3 3.1-46.7 0-15.5 0.7-28.1-11.3-35.8l-10.8 0.9z"/>
			<path id="&lt;Path&gt;" class="s17" d="m570.6 513l-11.6 4-12.5 59.2 0.6 52.5c0 0 8.9 7.2 43.9 7.2 19.6 0 32.3-7.4 37.1-15.3l-3.1-31.7c0 0 3.1-31.3 3.1-46.7 0-15.5 0.7-28.1-11.3-35.8l-10.8 0.9z"/>
			<path id="&lt;Path&gt;" class="s18" d="m558 462.1l-5.8 11.6c-0.4 0.7 0 1.6 0.7 1.8l6.9 2.3z"/>
			<path id="&lt;Path&gt;" class="s15" d="m566.1 442.8c0 0-8.9 4.8-8.9 32.1 0 15 1.1 24.6 8.9 24 7.8-0.6 30.3-3.5 30.3-3.5v-52.6z"/>
			<path id="&lt;Path&gt;" class="s18" d="m566.1 498.9c2.7-0.2 7.3-0.7 12-1.3v-2.8c-4.3 2.3-12.1 3.9-13.3 4.1q0.6 0 1.3 0z"/>
			<path id="&lt;Path&gt;" class="s15" d="m576.8 493.7v17.1h23.5v-24.1z"/>
			<path id="&lt;Path&gt;" class="s2" d="m576.8 504.3c0 0 8.4 3 15.2 1.8 6.8-1.2 8.3-5.3 8.3-5.3 0 0 2.2-0.2 5.7 6.5 0 0-4.1 8.3-13.7 8.8-12.5 0.8-21.7-3.1-21.7-3.1 0 0 3.3-9.6 6.2-8.7z"/>
			<path id="&lt;Path&gt;" class="s16" d="m576.8 504.3c0 0 8.4 3 15.2 1.8 6.8-1.2 8.3-5.3 8.3-5.3 0 0 2.2-0.2 5.7 6.5 0 0-4.1 8.3-13.7 8.8-12.5 0.8-21.7-3.1-21.7-3.1 0 0 3.3-9.6 6.2-8.7z"/>
			<path id="&lt;Path&gt;" class="s15" d="m524.5 555.2l-6.3 9.7c0 0-15.3-6.9-26.1-11-10.7-4.1-17.1-9.9-17.1-9.9 0 0 0.8-8.2 2-12.4 1.3-4.2 1.7-7.7-2-5.8-3.8 1.9-6.2 9.1-6.5 9.9 0 0-21.5-21.6-24.1-21.1-2.7 0.4-2.1 3.7 3.7 10.4 5.8 6.6 5.8 6.6 5.8 6.6 0 0-13.2 7.6-11.1 15.9 2.2 8.3 19.5 12 19.5 12 0 0 50.9 39.1 62.2 32 11.2-7 27.2-27.3 27.2-27.3z"/>
			<path id="&lt;Path&gt;" class="s2" d="m563.6 515.5c0 0 9.4 7.7 3.3 23.7-6.1 15.9-21.7 35.2-21.7 35.2 0 0-16.4-5.1-22.7-18.3l20.6-32.3c3-4.7 8-7.6 13.5-8q2.9-0.2 7-0.3z"/>
			<path id="&lt;Path&gt;" class="s16" d="m563.6 515.5c0 0 9.4 7.7 3.3 23.7-6.1 15.9-21.7 35.2-21.7 35.2 0 0-16.4-5.1-22.7-18.3l20.6-32.3c3-4.7 8-7.6 13.5-8q2.9-0.2 7-0.3z"/>
			<path id="&lt;Path&gt;" class="s8" d="m562.7 426.7c0 0-9.3-1.2-11.6 5.2-1.5 3.9 3.2 7 3.2 7 0 0-6 5.7 2.9 7.4 0 0-0.7 7.7 7.3 6.6 0 0-1.1 6.1 6.7 8.2 0 0-3.9 10.5 3.5 10.7h7l-2.8 8.1c0 0 5.2 12.5 21.4 12.5 0 0 4.1-8.5 6-11 1.9-2.5 11.9-15.4 11.9-25.5 0-10.2-3.9-16.2-9.3-17.5 0 0-2.3-5.6-7.8-9.3-5.4-3.7-16.9-7-23.4-2.5 0 0-5.7-7.5-9.7-7.5-4 0-5.3 4.1-5.3 7.6z"/>
			<path id="&lt;Path&gt;" class="s15" d="m574.7 471.8c0 0-0.7-10.7 8.3-10.7 9 0 6.9 18.8-4.1 18.8z"/>
		</g>
	</g>
</svg>